<svg xmlns="http://www.w3.org/2000/svg" xmlns:xlink="http://www.w3.org/1999/xlink" width="1920" zoomAndPan="magnify" viewBox="0 0 1440 809.999993" height="1080" preserveAspectRatio="xMidYMid meet" version="1.0"><defs><clipPath id="07bb351ae3"><path d="M 36 411 L 1404 411 L 1404 716.71875 L 36 716.71875 Z M 36 411 " clip-rule="nonzero"/></clipPath><clipPath id="4394a0c95e"><path d="M 36 136.21875 L 1404 136.21875 L 1404 649 L 36 649 Z M 36 136.21875 " clip-rule="nonzero"/></clipPath></defs><g clip-path="url(#07bb351ae3)"><path fill="#ea8439" d="M 1403.3125 411.664062 L 1403.3125 459.753906 C 1403.3125 460.109375 1403.3125 460.109375 1403.3125 460.460938 C 1403.3125 601.898438 1288.75 716.460938 1147.3125 716.460938 L 292.683594 716.460938 C 151.25 716.460938 36.683594 601.542969 36.683594 460.460938 C 36.683594 459.753906 36.683594 459.402344 36.683594 458.695312 C 36.683594 457.984375 36.683594 457.632812 36.683594 456.925781 L 36.683594 411.664062 Z M 1403.3125 411.664062 L 1403.3125 459.753906 C 1403.3125 460.109375 1403.3125 460.109375 1403.3125 460.460938 C 1403.3125 601.898438 1288.75 716.460938 1147.3125 716.460938 L 292.683594 716.460938 C 151.25 716.460938 36.683594 601.542969 36.683594 460.460938 C 36.683594 459.753906 36.683594 459.402344 36.683594 458.695312 C 36.683594 457.984375 36.683594 457.632812 36.683594 456.925781 L 36.683594 411.664062 Z M 1403.3125 411.664062 " fill-opacity="1" fill-rule="nonzero"/></g><g clip-path="url(#4394a0c95e)"><path fill="#ffde59" d="M 1403.3125 390.449219 L 1403.3125 391.511719 C 1403.3125 391.863281 1403.3125 391.863281 1403.3125 392.21875 C 1403.3125 533.65625 1288.75 648.21875 1147.3125 648.21875 L 292.683594 648.21875 C 151.25 648.21875 36.683594 533.300781 36.683594 392.21875 C 36.683594 391.511719 36.683594 391.15625 36.683594 390.449219 C 36.683594 389.742188 36.683594 389.390625 36.683594 388.683594 C 38.804688 249.015625 152.308594 136.21875 292.683594 136.21875 L 1147.3125 136.21875 C 1147.3125 136.21875 1147.3125 136.21875 1147.667969 136.21875 C 1288.042969 136.21875 1402.25 249.722656 1403.3125 390.449219 Z M 1403.3125 390.449219 L 1403.3125 391.511719 C 1403.3125 391.863281 1403.3125 391.863281 1403.3125 392.21875 C 1403.3125 533.65625 1288.75 648.21875 1147.3125 648.21875 L 292.683594 648.21875 C 151.25 648.21875 36.683594 533.300781 36.683594 392.21875 C 36.683594 391.511719 36.683594 391.15625 36.683594 390.449219 C 36.683594 389.742188 36.683594 389.390625 36.683594 388.683594 C 38.804688 249.015625 152.308594 136.21875 292.683594 136.21875 L 1147.3125 136.21875 C 1147.3125 136.21875 1147.3125 136.21875 1147.667969 136.21875 C 1288.042969 136.21875 1402.25 249.722656 1403.3125 390.449219 Z M 1403.3125 390.449219 " fill-opacity="1" fill-rule="nonzero"/></g><path fill="#1f1347" d="M 477.257812 394.339844 C 481.148438 401.058594 482.917969 408.835938 482.917969 418.382812 L 482.917969 434.648438 C 482.917969 449.148438 478.671875 460.460938 470.1875 468.949219 C 461.699219 477.433594 450.386719 481.675781 435.886719 481.675781 L 386.03125 481.675781 L 386.03125 283.667969 L 433.414062 283.667969 C 447.910156 283.667969 459.226562 287.910156 467.710938 296.394531 C 476.199219 304.882812 480.441406 316.550781 480.441406 330.695312 L 480.441406 341.300781 C 480.441406 358.980469 473.722656 371.710938 460.285156 379.136719 C 467.710938 382.671875 473.371094 387.976562 477.257812 394.339844 Z M 416.085938 311.953125 L 416.085938 365.699219 L 429.523438 365.699219 C 436.597656 365.699219 441.898438 363.929688 445.433594 360.394531 C 448.972656 356.859375 450.738281 351.554688 450.738281 344.484375 L 450.738281 330.339844 C 450.738281 324.328125 448.972656 320.085938 445.789062 316.902344 C 442.605469 313.722656 438.011719 311.953125 432.351562 311.953125 Z M 453.214844 415.203125 C 453.214844 408.128906 451.445312 402.824219 447.910156 399.289062 C 444.375 395.753906 439.070312 393.988281 432 393.988281 L 416.085938 393.988281 L 416.085938 453.390625 L 434.828125 453.390625 C 440.839844 453.390625 445.082031 451.621094 448.265625 448.4375 C 451.445312 445.257812 453.214844 440.660156 453.214844 435.003906 C 453.214844 435.003906 453.214844 415.203125 453.214844 415.203125 Z M 605.257812 437.832031 L 573.082031 437.832031 L 566.71875 481.675781 L 536.660156 481.675781 L 569.546875 283.667969 L 609.5 283.667969 L 642.386719 481.675781 L 611.976562 481.675781 Z M 601.367188 409.191406 L 589.347656 326.449219 L 577.324219 409.191406 Z M 712.394531 471.777344 C 703.558594 462.9375 699.3125 451.621094 699.3125 437.832031 L 699.3125 328.21875 C 699.3125 314.429688 703.558594 303.113281 712.394531 294.273438 C 721.234375 285.433594 732.550781 281.191406 746.339844 281.191406 C 760.132812 281.191406 771.445312 285.433594 780.285156 294.273438 C 789.125 303.113281 793.367188 314.429688 793.367188 328.21875 L 793.367188 351.554688 L 764.019531 351.554688 L 764.019531 328.21875 C 764.019531 322.5625 762.253906 317.964844 759.070312 314.78125 C 755.886719 311.246094 751.644531 309.832031 746.695312 309.832031 C 741.746094 309.832031 737.5 311.601562 734.320312 314.78125 C 731.136719 318.316406 729.367188 322.5625 729.367188 328.21875 L 729.367188 437.832031 C 729.367188 443.488281 731.136719 448.085938 734.320312 451.269531 C 737.5 454.804688 741.746094 456.21875 746.695312 456.21875 C 751.644531 456.21875 755.886719 454.449219 759.070312 451.269531 C 762.253906 447.730469 764.019531 443.488281 764.019531 437.832031 L 764.019531 409.542969 L 793.367188 409.542969 L 793.367188 437.832031 C 793.367188 451.621094 789.125 462.9375 780.285156 471.777344 C 771.445312 480.617188 760.132812 484.859375 746.339844 484.859375 C 732.550781 484.503906 721.234375 480.261719 712.394531 471.777344 Z M 899.09375 400.351562 L 887.777344 422.273438 L 887.777344 482.03125 L 857.722656 482.03125 L 857.722656 284.019531 L 887.777344 284.019531 L 887.777344 364.285156 L 927.378906 284.019531 L 959.554688 284.019531 L 917.480469 368.175781 L 962.738281 482.03125 L 930.5625 482.03125 Z M 1013.65625 382.671875 L 1094.980469 450.5625 L 1094.980469 314.78125 Z M 1013.65625 382.671875 " fill-opacity="1" fill-rule="nonzero"/></svg>