<svg xmlns="http://www.w3.org/2000/svg" xmlns:xlink="http://www.w3.org/1999/xlink" width="1920" zoomAndPan="magnify" viewBox="0 0 1440 809.999993" height="1080" preserveAspectRatio="xMidYMid meet" version="1.0"><defs><clipPath id="850860452a"><path d="M 1 157.910156 L 1439 157.910156 L 1439 613.160156 L 1 613.160156 Z M 1 157.910156 " clip-rule="nonzero"/></clipPath></defs><g clip-path="url(#850860452a)"><path fill="#51b6f0" d="M 1346.125 157.996094 L 1092.488281 157.996094 C 1086.949219 158.003906 1081.449219 158.472656 1075.988281 159.414062 C 1070.679688 158.472656 1065.328125 158 1059.933594 157.996094 L 385.230469 157.996094 C 379.691406 158.003906 374.191406 158.472656 368.730469 159.414062 C 363.421875 158.472656 358.070312 158 352.675781 157.996094 L 99.039062 157.996094 C 97.429688 158.003906 95.824219 158.050781 94.21875 158.136719 C 92.613281 158.222656 91.007812 158.347656 89.410156 158.515625 C 87.808594 158.679688 86.214844 158.882812 84.625 159.125 C 83.035156 159.367188 81.449219 159.652344 79.875 159.972656 C 78.296875 160.292969 76.730469 160.652344 75.171875 161.050781 C 73.613281 161.445312 72.066406 161.882812 70.53125 162.355469 C 68.992188 162.828125 67.46875 163.339844 65.957031 163.890625 C 64.445312 164.4375 62.945312 165.023438 61.464844 165.644531 C 59.980469 166.265625 58.511719 166.925781 57.0625 167.621094 C 55.609375 168.3125 54.179688 169.042969 52.761719 169.808594 C 51.347656 170.570312 49.953125 171.371094 48.578125 172.203125 C 47.199219 173.035156 45.847656 173.902344 44.511719 174.800781 C 43.179688 175.699219 41.867188 176.632812 40.582031 177.59375 C 39.292969 178.558594 38.03125 179.554688 36.792969 180.578125 C 35.554688 181.605469 34.339844 182.660156 33.152344 183.746094 C 31.964844 184.832031 30.808594 185.945312 29.675781 187.085938 C 28.542969 188.230469 27.4375 189.398438 26.363281 190.59375 C 25.289062 191.789062 24.246094 193.011719 23.230469 194.261719 C 22.214844 195.507812 21.230469 196.777344 20.28125 198.074219 C 19.328125 199.371094 18.40625 200.6875 17.519531 202.03125 C 16.632812 203.371094 15.777344 204.734375 14.957031 206.117188 C 14.136719 207.5 13.351562 208.902344 12.597656 210.324219 C 11.847656 211.742188 11.128906 213.183594 10.449219 214.640625 C 9.769531 216.097656 9.125 217.570312 8.515625 219.058594 C 7.90625 220.546875 7.332031 222.046875 6.796875 223.5625 C 6.261719 225.082031 5.765625 226.609375 5.304688 228.148438 C 4.847656 229.691406 4.425781 231.242188 4.039062 232.804688 C 3.65625 234.363281 3.3125 235.933594 3.003906 237.511719 C 2.699219 239.089844 2.429688 240.675781 2.203125 242.269531 C 1.972656 243.859375 1.78125 245.457031 1.632812 247.058594 C 1.480469 248.65625 1.371094 250.261719 1.300781 251.867188 C 1.226562 253.472656 1.195312 255.082031 1.203125 256.6875 L 1.203125 529.515625 C 1.195312 530.882812 1.222656 532.246094 1.285156 533.613281 C 1.34375 534.976562 1.441406 536.339844 1.566406 537.703125 C 1.695312 539.0625 1.855469 540.421875 2.050781 541.773438 C 2.246094 543.125 2.472656 544.472656 2.734375 545.816406 C 2.996094 547.15625 3.289062 548.492188 3.613281 549.820312 C 3.941406 551.144531 4.296875 552.464844 4.691406 553.773438 C 5.082031 555.085938 5.503906 556.382812 5.957031 557.671875 C 6.414062 558.960938 6.898438 560.238281 7.417969 561.503906 C 7.933594 562.769531 8.480469 564.019531 9.0625 565.257812 C 9.640625 566.496094 10.25 567.71875 10.886719 568.929688 C 11.527344 570.136719 12.195312 571.328125 12.894531 572.503906 C 13.589844 573.679688 14.316406 574.835938 15.070312 575.976562 C 15.828125 577.117188 16.609375 578.238281 17.417969 579.339844 C 18.226562 580.441406 19.0625 581.519531 19.925781 582.582031 C 20.789062 583.640625 21.675781 584.679688 22.589844 585.699219 C 23.503906 586.714844 24.441406 587.707031 25.40625 588.679688 C 26.367188 589.648438 27.351562 590.597656 28.363281 591.519531 C 29.371094 592.441406 30.402344 593.335938 31.457031 594.210938 C 32.507812 595.082031 33.582031 595.925781 34.675781 596.746094 C 35.773438 597.566406 36.886719 598.355469 38.019531 599.121094 C 39.152344 599.886719 40.304688 600.621094 41.472656 601.328125 C 42.644531 602.035156 43.828125 602.714844 45.03125 603.363281 C 46.234375 604.015625 47.453125 604.632812 48.6875 605.222656 C 49.921875 605.8125 51.167969 606.371094 52.429688 606.902344 C 53.691406 607.429688 54.960938 607.925781 56.25 608.394531 C 57.535156 608.859375 58.828125 609.292969 60.136719 609.695312 C 61.441406 610.097656 62.757812 610.46875 64.082031 610.804688 C 65.40625 611.144531 66.742188 611.449219 68.082031 611.722656 C 69.421875 611.992188 70.765625 612.234375 72.117188 612.4375 C 73.46875 612.644531 74.824219 612.820312 76.183594 612.957031 C 77.542969 613.097656 78.90625 613.203125 80.273438 613.277344 C 81.636719 613.351562 83.003906 613.390625 84.371094 613.394531 L 354.300781 613.394531 C 357.074219 613.394531 359.820312 613.394531 362.535156 613.011719 C 365.160156 613.277344 367.847656 613.394531 370.5625 613.394531 L 1061.558594 613.394531 C 1064.332031 613.394531 1067.078125 613.394531 1069.792969 613.011719 C 1072.417969 613.277344 1075.105469 613.394531 1077.820312 613.394531 L 1347.75 613.394531 C 1349.238281 613.382812 1350.726562 613.335938 1352.214844 613.25 C 1353.703125 613.167969 1355.1875 613.046875 1356.667969 612.890625 C 1358.148438 612.734375 1359.628906 612.539062 1361.101562 612.3125 C 1362.570312 612.082031 1364.039062 611.816406 1365.496094 611.515625 C 1366.957031 611.21875 1368.40625 610.882812 1369.851562 610.507812 C 1371.292969 610.136719 1372.726562 609.730469 1374.148438 609.289062 C 1375.574219 608.847656 1376.984375 608.375 1378.382812 607.863281 C 1379.785156 607.351562 1381.171875 606.808594 1382.542969 606.230469 C 1383.917969 605.652344 1385.273438 605.042969 1386.617188 604.398438 C 1387.960938 603.753906 1389.289062 603.074219 1390.597656 602.367188 C 1391.910156 601.65625 1393.199219 600.917969 1394.476562 600.144531 C 1395.75 599.371094 1397.003906 598.570312 1398.238281 597.734375 C 1399.472656 596.902344 1400.6875 596.039062 1401.878906 595.148438 C 1403.074219 594.253906 1404.242188 593.332031 1405.390625 592.382812 C 1406.539062 591.433594 1407.660156 590.457031 1408.761719 589.449219 C 1409.859375 588.445312 1410.9375 587.414062 1411.984375 586.355469 C 1413.035156 585.300781 1414.058594 584.21875 1415.054688 583.109375 C 1416.050781 582.003906 1417.019531 580.871094 1417.960938 579.71875 C 1418.902344 578.5625 1419.816406 577.386719 1420.699219 576.1875 C 1421.582031 574.988281 1422.4375 573.765625 1423.261719 572.527344 C 1424.085938 571.285156 1424.878906 570.023438 1425.640625 568.746094 C 1426.402344 567.464844 1427.132812 566.167969 1427.832031 564.851562 C 1428.53125 563.539062 1429.199219 562.207031 1429.832031 560.859375 C 1430.46875 559.511719 1431.066406 558.148438 1431.636719 556.769531 C 1432.203125 555.394531 1432.738281 554.003906 1433.234375 552.601562 C 1433.734375 551.195312 1434.199219 549.78125 1434.632812 548.355469 C 1435.0625 546.929688 1435.457031 545.496094 1435.816406 544.050781 C 1436.175781 542.601562 1436.503906 541.148438 1436.792969 539.6875 C 1437.082031 538.226562 1437.332031 536.761719 1437.550781 535.285156 C 1437.769531 533.8125 1437.949219 532.335938 1438.09375 530.851562 C 1438.242188 529.371094 1438.351562 527.886719 1438.421875 526.398438 C 1438.496094 524.910156 1438.53125 523.421875 1438.53125 521.933594 L 1438.53125 251.171875 C 1438.539062 249.652344 1438.507812 248.136719 1438.4375 246.621094 C 1438.371094 245.101562 1438.265625 243.589844 1438.121094 242.078125 C 1437.980469 240.566406 1437.800781 239.058594 1437.582031 237.554688 C 1437.367188 236.050781 1437.113281 234.554688 1436.824219 233.066406 C 1436.535156 231.574219 1436.207031 230.09375 1435.84375 228.617188 C 1435.480469 227.144531 1435.082031 225.679688 1434.648438 224.226562 C 1434.214844 222.769531 1433.742188 221.328125 1433.238281 219.894531 C 1432.730469 218.464844 1432.191406 217.046875 1431.617188 215.640625 C 1431.039062 214.234375 1430.429688 212.84375 1429.789062 211.46875 C 1429.144531 210.09375 1428.46875 208.734375 1427.757812 207.394531 C 1427.046875 206.050781 1426.304688 204.726562 1425.527344 203.421875 C 1424.753906 202.117188 1423.945312 200.832031 1423.109375 199.5625 C 1422.269531 198.296875 1421.402344 197.054688 1420.5 195.832031 C 1419.601562 194.605469 1418.671875 193.40625 1417.714844 192.230469 C 1416.753906 191.050781 1415.769531 189.898438 1414.753906 188.769531 C 1413.738281 187.636719 1412.695312 186.535156 1411.628906 185.457031 C 1410.558594 184.378906 1409.460938 183.328125 1408.339844 182.300781 C 1407.222656 181.277344 1406.074219 180.28125 1404.90625 179.3125 C 1403.734375 178.34375 1402.542969 177.40625 1401.328125 176.496094 C 1400.109375 175.585938 1398.875 174.707031 1397.613281 173.859375 C 1396.355469 173.007812 1395.074219 172.191406 1393.777344 171.40625 C 1392.476562 170.621094 1391.160156 169.867188 1389.824219 169.144531 C 1388.488281 168.421875 1387.132812 167.734375 1385.761719 167.078125 C 1384.394531 166.425781 1383.007812 165.804688 1381.609375 165.214844 C 1380.207031 164.628906 1378.792969 164.078125 1377.363281 163.558594 C 1375.9375 163.039062 1374.496094 162.558594 1373.046875 162.109375 C 1371.59375 161.664062 1370.132812 161.253906 1368.660156 160.878906 C 1367.191406 160.503906 1365.710938 160.164062 1364.222656 159.859375 C 1362.734375 159.558594 1361.238281 159.292969 1359.738281 159.0625 C 1358.234375 158.832031 1356.730469 158.640625 1355.21875 158.484375 C 1353.707031 158.328125 1352.195312 158.210938 1350.679688 158.128906 C 1349.160156 158.046875 1347.644531 158.003906 1346.125 157.996094 Z M 1346.125 157.996094 " fill-opacity="1" fill-rule="nonzero"/></g><path fill="#8fe0ff" d="M 1307.789062 186.203125 L 121.320312 186.203125 C 72.566406 186.203125 40.484375 223.910156 40.484375 270.410156 L 54.148438 463.21875 C 54.148438 509.71875 80.003906 534.382812 128.789062 534.382812 L 317.46875 534.382812 C 319.503906 534.382812 321.511719 534.382812 323.371094 534.207031 C 325.230469 534.027344 327.796875 534.382812 330.070312 534.382812 L 518.867188 534.382812 C 520.421875 534.382812 521.945312 534.382812 523.441406 534.382812 C 525.066406 534.382812 526.71875 534.382812 528.398438 534.382812 L 939.960938 534.382812 C 941.515625 534.382812 943.042969 534.382812 944.539062 534.382812 C 946.160156 534.382812 947.8125 534.382812 949.496094 534.382812 L 1300.320312 534.382812 C 1349.078125 534.382812 1372.894531 503.582031 1372.894531 457.082031 L 1388.59375 270.410156 C 1388.625 223.878906 1356.542969 186.203125 1307.789062 186.203125 Z M 1307.789062 186.203125 " fill-opacity="1" fill-rule="nonzero"/><path fill="#ffffff" d="M 140.859375 209.1875 L 139.445312 208.625 L 138.351562 208.242188 L 136.285156 207.566406 C 134.929688 207.179688 133.601562 206.855469 132.273438 206.5625 C 129.628906 206.019531 126.964844 205.65625 124.273438 205.46875 C 118.933594 205.136719 113.632812 205.441406 108.367188 206.382812 C 103.269531 207.316406 98.320312 208.742188 93.507812 210.664062 C 88.699219 212.585938 84.128906 214.964844 79.796875 217.800781 C 75.265625 220.605469 71.167969 223.941406 67.503906 227.804688 C 63.835938 231.671875 60.722656 235.9375 58.164062 240.609375 C 55.558594 245.503906 53.875 250.695312 53.117188 256.1875 C 52.769531 258.953125 52.691406 261.726562 52.878906 264.507812 C 52.996094 265.964844 53.195312 267.410156 53.472656 268.84375 C 53.617188 269.613281 53.824219 270.378906 54.0625 271.234375 C 54.296875 272.089844 54.328125 272.148438 54.535156 272.738281 L 54.976562 273.917969 C 55.125 274.304688 55.183594 274.449219 55.535156 275.1875 L 55.800781 275.71875 C 56.027344 276.105469 56.273438 276.480469 56.539062 276.839844 L 57.042969 277.488281 C 57.691406 278.257812 58.429688 278.925781 59.253906 279.496094 C 60.386719 280.292969 61.625 280.84375 62.972656 281.148438 C 63.855469 281.363281 64.75 281.472656 65.660156 281.480469 C 66.566406 281.488281 67.464844 281.390625 68.347656 281.191406 C 69.234375 280.992188 70.085938 280.695312 70.902344 280.296875 C 71.71875 279.902344 72.480469 279.417969 73.1875 278.847656 C 73.613281 278.496094 74.007812 278.113281 74.371094 277.699219 C 74.738281 277.285156 75.066406 276.84375 75.359375 276.375 C 75.65625 275.910156 75.910156 275.421875 76.125 274.914062 C 76.339844 274.40625 76.515625 273.882812 76.648438 273.347656 C 76.78125 272.808594 76.867188 272.265625 76.914062 271.71875 C 76.957031 271.167969 76.957031 270.617188 76.914062 270.066406 C 76.871094 269.515625 76.785156 268.972656 76.65625 268.4375 C 76.523438 267.898438 76.351562 267.375 76.136719 266.867188 L 76.136719 267.371094 C 76.214844 267.148438 76.273438 266.921875 76.3125 266.691406 C 76.3125 266.128906 76.550781 265.511719 76.699219 264.863281 C 77.003906 263.511719 77.40625 262.195312 77.90625 260.90625 C 78.394531 259.582031 78.984375 258.300781 79.679688 257.074219 C 80.34375 255.804688 81.09375 254.582031 81.921875 253.414062 C 85.738281 248.332031 90.34375 244.101562 95.734375 240.726562 C 101.472656 236.917969 107.621094 233.96875 114.179688 231.875 C 117.390625 230.90625 120.65625 230.195312 123.976562 229.75 C 125.632812 229.515625 127.285156 229.398438 128.90625 229.308594 L 133.128906 229.308594 C 133.8125 229.542969 134.515625 229.710938 135.230469 229.808594 C 135.949219 229.910156 136.667969 229.941406 137.390625 229.902344 C 138.113281 229.863281 138.828125 229.757812 139.53125 229.582031 C 140.234375 229.40625 140.914062 229.167969 141.570312 228.863281 C 142.226562 228.558594 142.847656 228.191406 143.433594 227.769531 C 144.019531 227.34375 144.5625 226.867188 145.058594 226.339844 C 145.550781 225.8125 145.992188 225.242188 146.378906 224.628906 C 146.765625 224.019531 147.089844 223.375 147.351562 222.699219 C 147.585938 222.042969 147.753906 221.371094 147.851562 220.679688 C 147.953125 219.992188 147.984375 219.300781 147.945312 218.601562 C 147.910156 217.90625 147.804688 217.222656 147.632812 216.546875 C 147.460938 215.871094 147.222656 215.21875 146.921875 214.59375 C 146.617188 213.964844 146.257812 213.371094 145.839844 212.816406 C 145.417969 212.257812 144.949219 211.75 144.429688 211.285156 C 143.910156 210.820312 143.351562 210.414062 142.75 210.058594 C 142.148438 209.707031 141.519531 209.414062 140.859375 209.1875 Z M 72.300781 262.292969 Z M 71.386719 261.734375 L 70.738281 261.410156 Z M 58.457031 262.972656 C 59.195312 262.296875 60.03125 261.773438 60.96875 261.410156 C 60.070312 261.773438 59.234375 262.246094 58.457031 262.824219 Z M 61.644531 261.113281 Z M 65.570312 260.347656 C 66.570312 260.277344 67.554688 260.378906 68.523438 260.644531 C 67.558594 260.371094 66.574219 260.222656 65.570312 260.199219 Z M 65.570312 260.347656 " fill-opacity="1" fill-rule="nonzero"/><path fill="#1e5ea3" d="M 522.347656 400.078125 C 525.148438 399.902344 527.863281 400.292969 530.496094 401.257812 C 533.0625 402.203125 535.324219 403.628906 537.28125 405.539062 C 538.292969 406.53125 539.195312 407.617188 539.988281 408.792969 C 540.78125 409.96875 541.449219 411.214844 541.992188 412.523438 C 542.535156 413.832031 542.941406 415.183594 543.210938 416.578125 C 543.480469 417.96875 543.609375 419.375 543.597656 420.792969 L 543.597656 423.417969 C 543.621094 426.101562 543.152344 428.695312 542.195312 431.199219 C 541.238281 433.707031 539.855469 435.949219 538.050781 437.933594 C 536.3125 439.84375 534.277344 441.347656 531.941406 442.449219 C 529.546875 443.574219 527.03125 444.125 524.386719 444.101562 C 515.355469 444.414062 504.964844 444.691406 493.21875 444.925781 C 481.472656 445.160156 469.5 445.160156 457.300781 444.925781 L 457.300781 444.691406 L 453.023438 444.691406 C 451.796875 444.707031 450.582031 444.601562 449.378906 444.375 C 448.171875 444.148438 447.003906 443.804688 445.867188 443.34375 C 444.730469 442.882812 443.652344 442.3125 442.632812 441.636719 C 441.609375 440.960938 440.667969 440.1875 439.800781 439.320312 C 437.957031 437.535156 436.480469 435.488281 435.371094 433.171875 C 434.265625 430.855469 433.597656 428.421875 433.367188 425.867188 C 432.617188 417.132812 432.085938 407.050781 431.773438 395.625 C 431.457031 384.195312 431.308594 372.609375 431.332031 360.867188 C 431.332031 349.066406 431.410156 337.679688 431.566406 326.703125 C 431.722656 315.726562 431.949219 306.246094 432.246094 298.261719 C 432.226562 295.496094 432.757812 292.839844 433.839844 290.292969 C 434.855469 287.878906 436.285156 285.734375 438.117188 283.863281 C 439.921875 282.039062 441.996094 280.613281 444.34375 279.585938 C 446.753906 278.539062 449.273438 278.027344 451.902344 278.050781 L 492.601562 278.050781 C 504.40625 278.050781 514.871094 278.128906 524.003906 278.285156 C 525.28125 278.316406 526.546875 278.472656 527.792969 278.761719 C 529.042969 279.046875 530.25 279.457031 531.414062 279.992188 C 532.578125 280.523438 533.675781 281.167969 534.710938 281.925781 C 535.742188 282.679688 536.6875 283.53125 537.546875 284.480469 C 539.40625 286.398438 540.847656 288.589844 541.867188 291.058594 C 542.886719 293.523438 543.414062 296.09375 543.453125 298.761719 L 543.453125 301.386719 C 543.472656 304.3125 542.941406 307.136719 541.859375 309.855469 C 540.835938 312.4375 539.328125 314.699219 537.34375 316.640625 C 535.371094 318.558594 533.109375 320.023438 530.554688 321.039062 C 527.9375 322.085938 525.222656 322.519531 522.410156 322.335938 C 514.421875 321.863281 507.042969 321.472656 500.273438 321.15625 C 493.503906 320.839844 487.179688 320.605469 481.296875 320.449219 C 480.546875 329.496094 480.097656 338.070312 479.9375 346.175781 C 482.496094 346.019531 485.09375 345.941406 487.730469 345.941406 C 490.484375 345.933594 493.226562 345.777344 495.964844 345.46875 C 497.121094 345.414062 498.273438 345.480469 499.414062 345.667969 C 500.558594 345.855469 501.671875 346.160156 502.75 346.578125 C 503.828125 346.996094 504.855469 347.523438 505.824219 348.15625 C 506.792969 348.789062 507.6875 349.515625 508.507812 350.335938 C 510.285156 351.992188 511.6875 353.925781 512.707031 356.128906 C 513.730469 358.335938 514.296875 360.652344 514.410156 363.082031 C 514.644531 365.789062 514.261719 368.402344 513.257812 370.929688 C 512.328125 373.242188 511.011719 375.308594 509.304688 377.125 C 507.628906 378.898438 505.660156 380.246094 503.402344 381.167969 C 501.042969 382.125 498.59375 382.519531 496.054688 382.347656 L 486.902344 381.640625 L 479.554688 381.167969 C 479.554688 389.429688 479.78125 396.726562 480.234375 403.058594 L 499.652344 401.996094 C 506.480469 401.503906 514.046875 400.867188 522.347656 400.078125 Z M 522.347656 400.078125 " fill-opacity="1" fill-rule="nonzero"/><path fill="#1e5ea3" d="M 689.304688 378.15625 C 690.484375 384.214844 691.269531 390.324219 691.667969 396.480469 C 692.199219 403.621094 692.53125 411.007812 692.671875 418.636719 C 692.691406 422.15625 692.386719 425.648438 691.753906 429.113281 C 691.234375 432.085938 690.183594 434.859375 688.597656 437.433594 C 687.042969 439.878906 684.96875 441.75 682.371094 443.039062 C 679.179688 444.523438 675.824219 445.203125 672.304688 445.074219 C 668.285156 445.253906 664.449219 444.496094 660.796875 442.800781 C 658.046875 441.425781 655.824219 439.460938 654.125 436.902344 C 652.554688 434.367188 651.570312 431.625 651.175781 428.667969 C 650.726562 425.65625 650.578125 422.625 650.730469 419.582031 C 651.183594 405.242188 649.148438 394.847656 644.621094 388.394531 C 644.15625 387.726562 643.65625 387.085938 643.113281 386.476562 C 642.570312 385.867188 641.992188 385.292969 641.382812 384.753906 C 640.769531 384.214844 640.128906 383.710938 639.457031 383.25 C 638.785156 382.789062 638.085938 382.367188 637.363281 381.988281 C 636.640625 381.613281 635.898438 381.277344 635.136719 380.988281 C 634.375 380.703125 633.597656 380.460938 632.804688 380.265625 C 632.011719 380.070312 631.210938 379.925781 630.402344 379.824219 C 629.589844 379.726562 628.777344 379.679688 627.960938 379.679688 C 627.148438 379.679688 626.335938 379.726562 625.523438 379.824219 C 624.714844 379.925781 623.914062 380.070312 623.121094 380.265625 C 622.328125 380.460938 621.550781 380.703125 620.789062 380.988281 C 620.027344 381.277344 619.285156 381.613281 618.5625 381.988281 C 617.835938 382.367188 617.140625 382.789062 616.46875 383.25 C 615.796875 383.710938 615.15625 384.214844 614.542969 384.753906 C 613.933594 385.292969 613.355469 385.867188 612.8125 386.476562 C 612.269531 387.085938 611.765625 387.726562 611.300781 388.394531 C 607.761719 393.648438 606.136719 402.175781 606.433594 413.976562 C 606.433594 416.355469 606.511719 419.304688 606.667969 422.828125 C 606.824219 426.214844 606.375 429.519531 605.3125 432.742188 C 604.734375 434.410156 603.925781 435.960938 602.882812 437.386719 C 601.84375 438.816406 600.617188 440.058594 599.203125 441.121094 C 597.125 442.484375 594.890625 443.488281 592.496094 444.140625 C 590.101562 444.789062 587.664062 445.050781 585.183594 444.925781 C 583.304688 445.132812 581.425781 445.132812 579.546875 444.925781 C 577.894531 444.691406 576.242188 444.425781 574.585938 444.101562 C 571.160156 443.429688 568.148438 441.921875 565.558594 439.585938 C 563.742188 438.160156 562.199219 436.488281 560.921875 434.570312 C 559.800781 432.820312 558.816406 431.234375 557.972656 429.820312 C 557.253906 428.21875 556.722656 426.554688 556.378906 424.832031 C 556.222656 421.351562 556.222656 417.742188 556.378906 414.003906 C 556.535156 410.269531 556.722656 406.582031 556.9375 402.941406 C 556.644531 398.023438 556.457031 393.421875 556.378906 389.132812 C 556.300781 384.84375 556.300781 380.519531 556.378906 376.152344 C 556.535156 371.785156 556.683594 367.222656 556.820312 362.460938 C 556.957031 357.703125 557.105469 352.382812 557.261719 346.5 C 557.242188 343.734375 557.773438 341.078125 558.855469 338.535156 C 559.875 336.117188 561.300781 333.972656 563.136719 332.101562 C 564.941406 330.28125 567.015625 328.855469 569.363281 327.824219 C 571.773438 326.777344 574.292969 326.265625 576.917969 326.289062 L 584.089844 326.289062 C 586.542969 326.230469 588.945312 326.546875 591.296875 327.238281 C 593.648438 327.925781 595.84375 328.957031 597.875 330.332031 C 601.714844 328.972656 605.648438 327.988281 609.679688 327.382812 C 613.757812 326.742188 617.859375 326.429688 621.984375 326.4375 C 629.714844 326.414062 637.359375 327.210938 644.917969 328.828125 C 652.070312 330.328125 658.660156 333.140625 664.691406 337.265625 C 670.867188 341.609375 675.914062 347.011719 679.832031 353.464844 C 684.480469 361.121094 687.640625 369.355469 689.304688 378.15625 Z M 689.304688 378.15625 " fill-opacity="1" fill-rule="nonzero"/><path fill="#1e5ea3" d="M 812.199219 403.886719 C 813.300781 403.484375 814.433594 403.335938 815.601562 403.441406 C 816.765625 403.542969 817.855469 403.886719 818.871094 404.476562 C 821.171875 405.792969 823.136719 407.492188 824.773438 409.578125 C 826.675781 411.96875 828.179688 414.582031 829.289062 417.429688 C 830.464844 420.261719 831.0625 423.210938 831.089844 426.28125 C 831.117188 428.414062 830.554688 430.382812 829.40625 432.179688 C 828.238281 433.964844 826.839844 435.546875 825.214844 436.929688 C 823.558594 438.355469 821.75 439.546875 819.785156 440.5 C 818.058594 441.378906 816.25 442.019531 814.355469 442.417969 C 804.210938 444.757812 793.941406 445.671875 783.542969 445.160156 C 774.242188 444.785156 765.386719 442.601562 756.980469 438.613281 C 753.121094 436.742188 749.570312 434.40625 746.324219 431.597656 C 743.082031 428.789062 740.257812 425.613281 737.855469 422.058594 C 735.199219 417.945312 733.121094 413.554688 731.617188 408.894531 C 730.117188 404.230469 729.246094 399.453125 729 394.5625 C 728.707031 390.433594 728.441406 386.378906 728.203125 382.40625 C 727.96875 378.433594 727.703125 374.628906 727.40625 370.988281 C 726.996094 370.945312 726.582031 370.945312 726.167969 370.988281 C 725.753906 371.03125 725.34375 371.03125 724.929688 370.988281 C 722.4375 371.320312 719.988281 371.125 717.578125 370.398438 C 715.253906 369.699219 713.175781 368.550781 711.351562 366.945312 C 709.5 365.289062 708.070312 363.320312 707.074219 361.046875 C 705.992188 358.671875 705.394531 356.183594 705.273438 353.582031 L 705.035156 347.679688 C 704.878906 345.148438 705.25 342.699219 706.15625 340.332031 C 707.007812 338.050781 708.246094 336.007812 709.875 334.195312 C 711.464844 332.453125 713.34375 331.113281 715.515625 330.183594 C 717.785156 329.214844 720.15625 328.746094 722.625 328.769531 L 725.785156 328.769531 C 725.628906 320.644531 725.546875 313.394531 725.546875 307.023438 C 725.546875 300.652344 725.402344 294.828125 725.105469 289.558594 C 724.933594 286.558594 725.453125 283.6875 726.671875 280.941406 C 727.265625 279.578125 727.988281 278.285156 728.839844 277.0625 C 729.6875 275.839844 730.648438 274.710938 731.71875 273.675781 C 732.789062 272.640625 733.949219 271.71875 735.203125 270.910156 C 736.453125 270.101562 737.769531 269.425781 739.152344 268.875 C 742.222656 267.640625 745.410156 267.042969 748.714844 267.074219 C 750.820312 267.074219 752.621094 267.074219 754.117188 267.074219 C 755.621094 267.074219 757.070312 267.3125 758.722656 267.546875 C 760.078125 267.722656 761.386719 268.078125 762.648438 268.609375 C 764.511719 269.632812 766.15625 270.9375 767.582031 272.511719 C 769.007812 274.089844 770.136719 275.859375 770.96875 277.8125 C 773.050781 282.476562 774.4375 287.332031 775.128906 292.390625 C 775.996094 298.378906 776.449219 304.394531 776.488281 310.445312 C 776.488281 316.976562 776.488281 323.507812 776.488281 330.035156 C 780.421875 330.035156 784.417969 330.035156 788.472656 330.035156 C 792.523438 330.035156 796.890625 329.839844 801.574219 329.445312 C 802.738281 329.394531 803.898438 329.460938 805.046875 329.648438 C 806.199219 329.835938 807.320312 330.136719 808.40625 330.550781 C 809.496094 330.96875 810.53125 331.492188 811.511719 332.121094 C 812.496094 332.75 813.402344 333.46875 814.234375 334.285156 C 816.019531 335.917969 817.425781 337.832031 818.449219 340.027344 C 819.46875 342.21875 820.035156 344.523438 820.136719 346.941406 C 820.308594 349.566406 819.894531 352.09375 818.898438 354.523438 C 817.96875 356.828125 816.652344 358.886719 814.945312 360.691406 C 813.265625 362.453125 811.296875 363.789062 809.042969 364.703125 C 806.683594 365.660156 804.234375 366.054688 801.691406 365.882812 C 798.683594 365.726562 796.164062 365.570312 794.136719 365.414062 L 788.234375 364.941406 C 786.199219 364.820312 784.160156 364.820312 782.125 364.941406 L 774.453125 365.292969 C 774.15625 368.480469 773.929688 371.429688 773.773438 374.144531 C 773.617188 376.859375 773.46875 379.359375 773.332031 381.640625 C 772.984375 384.351562 773.0625 387.050781 773.566406 389.734375 C 774.070312 392.421875 774.976562 394.964844 776.28125 397.363281 C 777.367188 399.125 778.710938 400.65625 780.316406 401.960938 C 781.917969 403.269531 783.691406 404.273438 785.636719 404.976562 C 789.855469 406.449219 794.1875 406.921875 798.625 406.394531 C 803.238281 406.042969 807.765625 405.207031 812.199219 403.886719 Z M 812.199219 403.886719 " fill-opacity="1" fill-rule="nonzero"/><path fill="#1e5ea3" d="M 942.324219 369.835938 C 942.015625 372.871094 941.261719 375.789062 940.066406 378.589844 C 938.867188 381.394531 937.277344 383.953125 935.300781 386.273438 C 931.398438 390.617188 926.804688 394.03125 921.515625 396.507812 C 916.042969 399.101562 910.316406 400.890625 904.339844 401.878906 C 898.695312 402.863281 893.007812 403.453125 887.28125 403.648438 C 886.597656 403.734375 885.960938 403.953125 885.367188 404.308594 C 884.777344 404.660156 884.285156 405.121094 883.886719 405.683594 C 883.667969 405.921875 883.503906 406.1875 883.386719 406.484375 C 883.269531 406.78125 883.210938 407.089844 883.210938 407.410156 C 883.210938 407.730469 883.269531 408.039062 883.386719 408.339844 C 883.503906 408.636719 883.667969 408.902344 883.886719 409.136719 C 884.886719 410.339844 886.082031 411.292969 887.480469 411.996094 C 888.875 412.699219 890.355469 413.09375 891.914062 413.179688 C 895.851562 413.699219 899.785156 413.699219 903.71875 413.179688 C 907.890625 412.621094 911.921875 411.546875 915.820312 409.964844 C 919.132812 408.734375 922.144531 406.980469 924.851562 404.710938 C 925.070312 404.425781 925.328125 404.179688 925.625 403.976562 C 925.921875 403.777344 926.242188 403.628906 926.589844 403.53125 C 926.9375 403.433594 927.289062 403.398438 927.648438 403.417969 C 928.007812 403.4375 928.355469 403.515625 928.6875 403.648438 C 929.382812 403.957031 929.953125 404.421875 930.398438 405.039062 C 930.84375 405.65625 931.097656 406.34375 931.167969 407.101562 L 933.648438 429.257812 C 933.714844 429.621094 933.730469 429.980469 933.691406 430.347656 C 933.652344 430.710938 933.5625 431.0625 933.421875 431.402344 C 933.28125 431.738281 933.09375 432.050781 932.859375 432.332031 C 932.625 432.617188 932.359375 432.859375 932.054688 433.066406 C 928.171875 435.84375 924.027344 438.160156 919.625 440.003906 C 915.222656 441.851562 910.667969 443.1875 905.964844 444.011719 C 901.597656 444.816406 897.195312 445.148438 892.757812 445.007812 C 888.316406 444.871094 883.945312 444.261719 879.636719 443.183594 C 875.601562 442.15625 871.757812 440.640625 868.105469 438.644531 C 864.453125 436.644531 861.105469 434.226562 858.0625 431.382812 C 854.996094 428.542969 852.429688 425.304688 850.363281 421.667969 C 848.300781 418.03125 846.832031 414.171875 845.960938 410.082031 C 843.878906 401.199219 843.390625 392.230469 844.488281 383.171875 C 845.449219 375.472656 847.554688 368.097656 850.804688 361.046875 C 853.675781 354.84375 857.40625 349.210938 861.988281 344.140625 C 865.804688 339.832031 870.171875 336.183594 875.09375 333.195312 C 879.667969 330.566406 884.527344 328.65625 889.671875 327.46875 C 894.941406 326.207031 900.285156 325.695312 905.699219 325.9375 C 910.980469 326.109375 916.105469 327.09375 921.074219 328.886719 C 925.894531 330.640625 930.113281 333.335938 933.734375 336.96875 C 935.574219 338.875 937.152344 340.976562 938.472656 343.273438 C 939.789062 345.570312 940.808594 347.992188 941.527344 350.542969 C 943.230469 356.914062 943.496094 363.347656 942.324219 369.835938 Z M 885.128906 363.40625 C 884.601562 365.613281 884.789062 367.757812 885.6875 369.835938 C 886.097656 370.625 886.632812 371.320312 887.292969 371.914062 C 887.953125 372.507812 888.695312 372.964844 889.523438 373.289062 C 891.421875 374.050781 893.386719 374.363281 895.425781 374.234375 C 897.574219 374.15625 899.609375 373.644531 901.535156 372.699219 C 902.871094 372.144531 904.109375 371.425781 905.253906 370.546875 C 906.570312 369.550781 907.730469 368.398438 908.738281 367.09375 C 909.773438 365.777344 910.523438 364.3125 910.980469 362.699219 C 911.4375 360.921875 911.359375 359.171875 910.746094 357.445312 C 910.59375 356.8125 910.359375 356.210938 910.042969 355.644531 C 909.722656 355.074219 909.335938 354.558594 908.878906 354.097656 C 908.421875 353.632812 907.910156 353.242188 907.34375 352.917969 C 906.78125 352.59375 906.179688 352.355469 905.550781 352.195312 C 902.757812 351.554688 900.015625 351.710938 897.316406 352.667969 C 894.386719 353.605469 891.75 355.070312 889.40625 357.0625 C 888.351562 357.84375 887.457031 358.777344 886.722656 359.867188 C 885.988281 360.957031 885.457031 362.136719 885.128906 363.40625 Z M 885.128906 363.40625 " fill-opacity="1" fill-rule="nonzero"/><path fill="#1e5ea3" d="M 1052.585938 335.082031 C 1053.210938 335.507812 1053.71875 336.042969 1054.113281 336.683594 C 1054.511719 337.328125 1054.757812 338.023438 1054.859375 338.769531 C 1055.140625 340.699219 1054.914062 342.570312 1054.179688 344.375 L 1046.035156 365.027344 C 1045.285156 366.777344 1044.300781 367.761719 1043.082031 367.980469 C 1042.351562 368.011719 1041.648438 367.878906 1040.976562 367.589844 C 1040.300781 367.300781 1039.726562 366.878906 1039.246094 366.328125 C 1036.328125 363.734375 1032.976562 361.984375 1029.179688 361.074219 C 1025.738281 360.265625 1022.3125 360.34375 1018.910156 361.3125 C 1015.550781 362.265625 1012.601562 363.9375 1010.058594 366.328125 C 1007.429688 368.777344 1005.617188 371.726562 1004.625 375.179688 C 1004.015625 383.046875 1003.640625 389.152344 1003.503906 393.5 C 1003.367188 397.847656 1003.367188 401.378906 1003.503906 404.09375 C 1003.570312 406.765625 1003.835938 409.421875 1004.300781 412.058594 C 1004.753906 414.597656 1005.207031 418.085938 1005.660156 422.53125 C 1005.976562 425.539062 1005.5625 428.4375 1004.417969 431.234375 C 1003.292969 434.015625 1001.640625 436.433594 999.460938 438.492188 C 997.167969 440.628906 994.570312 442.289062 991.667969 443.480469 C 988.5625 444.78125 985.328125 445.421875 981.960938 445.398438 L 978.359375 445.398438 C 978.246094 445.539062 978.097656 445.617188 977.917969 445.632812 L 977.472656 445.632812 C 976.234375 445.648438 975.007812 445.535156 973.789062 445.304688 C 972.574219 445.070312 971.390625 444.71875 970.246094 444.246094 C 969.101562 443.773438 968.011719 443.195312 966.984375 442.503906 C 965.953125 441.8125 965.003906 441.027344 964.132812 440.144531 C 962.289062 438.394531 960.820312 436.367188 959.730469 434.066406 C 958.640625 431.769531 958.003906 429.347656 957.816406 426.808594 C 956.914062 416.328125 956.3125 407.398438 956.019531 400.019531 C 955.722656 392.644531 955.644531 385.464844 955.78125 378.484375 C 955.632812 376.261719 955.632812 374.039062 955.78125 371.816406 C 955.9375 368 956.058594 364.066406 956.136719 360.011719 C 956.214844 355.960938 956.332031 351.359375 956.488281 346.203125 C 956.609375 343.980469 957.054688 341.820312 957.824219 339.730469 C 958.59375 337.636719 959.65625 335.703125 961.003906 333.929688 C 962.296875 332.191406 963.832031 330.699219 965.609375 329.460938 C 967.386719 328.21875 969.316406 327.289062 971.394531 326.671875 C 971.730469 326.71875 972.035156 326.636719 972.308594 326.4375 C 972.644531 326.472656 972.976562 326.472656 973.3125 326.4375 C 973.648438 326.402344 973.980469 326.402344 974.316406 326.4375 L 983.347656 326.4375 C 987.386719 326.425781 991.222656 327.300781 994.855469 329.0625 C 1000.308594 327.625 1005.847656 326.710938 1011.472656 326.320312 C 1016.90625 325.917969 1022.324219 326.035156 1027.734375 326.671875 C 1032.605469 327.234375 1037.347656 328.34375 1041.960938 330.007812 C 1045.753906 331.171875 1049.296875 332.863281 1052.585938 335.082031 Z M 1052.585938 335.082031 " fill-opacity="1" fill-rule="nonzero"/></svg>