<svg xmlns="http://www.w3.org/2000/svg" xmlns:xlink="http://www.w3.org/1999/xlink" width="1920" zoomAndPan="magnify" viewBox="0 0 1440 809.999993" height="1080" preserveAspectRatio="xMidYMid meet" version="1.0"><path fill="#000000" d="M 1222.050781 449.777344 C 1218.277344 445.449219 1215.738281 440.007812 1212.679688 435.042969 C 1178.203125 378.847656 1133 332.304688 1082.992188 289.851562 C 1064.605469 274.242188 1044.1875 267.332031 1020.632812 266.378906 C 983.058594 264.832031 945.484375 262.609375 907.910156 260.542969 C 903.898438 260.34375 899.925781 259.46875 894.367188 258.675781 C 894.367188 224.007812 894.367188 190.289062 894.367188 154.984375 C 917.285156 154.070312 940.480469 153.316406 963.636719 152.164062 C 973.128906 151.6875 982.742188 151.132812 991.957031 149.144531 C 1007.289062 145.851562 1018.527344 135.5625 1026.273438 122.816406 C 1040.136719 100.058594 1023.453125 70.671875 994.617188 66.78125 C 979.445312 64.753906 963.992188 64.082031 948.621094 63.84375 C 813.972656 61.738281 679.363281 60.941406 544.792969 67.136719 C 504.160156 69.003906 463.40625 71.347656 422.734375 74.683594 C 372.609375 78.773438 322.5625 84.292969 272.476562 88.902344 C 244.351562 91.484375 225.328125 108.320312 220.441406 135.960938 C 217.703125 151.488281 224.414062 166.382812 238.753906 172.816406 C 245.785156 175.992188 254.003906 177.980469 261.671875 177.980469 C 286.574219 177.9375 311.441406 176.828125 336.34375 175.875 C 355.726562 175.121094 375.109375 173.96875 394.691406 173.015625 C 394.691406 204.984375 394.691406 234.96875 394.691406 265.863281 C 348.21875 271.742188 304.171875 277.382812 260.121094 282.820312 C 240.816406 285.203125 232.398438 291.203125 228.226562 309.90625 C 223.976562 328.96875 220.242188 348.351562 218.613281 367.808594 C 215.875 399.976562 214.285156 432.304688 213.410156 464.628906 C 211.347656 537.742188 209.71875 610.894531 218.335938 683.769531 C 221.277344 708.710938 228.546875 717.25 253.210938 722.054688 C 313.1875 733.769531 374.039062 737.421875 434.847656 740.320312 C 493.078125 743.140625 551.386719 744.132812 609.695312 745.085938 C 741.722656 747.230469 873.632812 743.339844 1005.539062 738.773438 C 1031.636719 737.859375 1052.726562 729.164062 1071.632812 712.5625 C 1075.605469 709.066406 1079.738281 705.730469 1083.710938 702.238281 C 1137.964844 654.460938 1180.902344 597.550781 1217.683594 535.71875 C 1223.046875 526.703125 1227.335938 516.773438 1230.394531 506.726562 C 1236.390625 486.671875 1237.105469 467.054688 1222.050781 449.777344 Z M 444.859375 172.300781 C 458.085938 168.765625 819.851562 154.984375 845.035156 157.328125 C 845.191406 190.089844 845.035156 223.054688 844.320312 255.222656 C 841.65625 256.414062 840.703125 257.207031 839.789062 257.167969 C 709.429688 254.945312 579.109375 254.824219 448.910156 263.285156 C 447.996094 263.324219 447.042969 262.570312 444.859375 261.65625 C 444.859375 232.226562 444.859375 202.242188 444.859375 172.300781 Z M 444.859375 172.300781 " fill-opacity="1" fill-rule="nonzero"/><path fill="#ef4952" d="M 1205.964844 455.695312 C 1170.058594 398.070312 1125.136719 348.429688 1074.136719 303.832031 C 1057.453125 289.253906 1040.652344 281.390625 1017.417969 281.910156 C 982.582031 282.664062 947.628906 277.859375 912.714844 276.746094 C 847.058594 274.640625 781.363281 272.65625 715.667969 272.21875 C 656.84375 271.820312 597.9375 271.863281 539.230469 274.839844 C 448.789062 279.445312 358.46875 286.714844 268.144531 292.949219 C 264.53125 293.1875 261.394531 293.546875 258.730469 294.0625 C 257.9375 301.367188 257.339844 308.675781 256.746094 316.023438 C 257.460938 316.101562 258.175781 316.222656 258.890625 316.300781 C 258.890625 324.523438 259.445312 332.78125 258.8125 340.921875 C 251.027344 438.222656 248.839844 535.636719 251.066406 633.175781 C 251.34375 644.8125 251.742188 656.488281 252.65625 668.121094 C 253.6875 681.585938 257.898438 685.953125 271.324219 686.828125 C 340.554688 691.433594 409.785156 696.28125 479.058594 700.210938 C 588.644531 706.40625 698.347656 706.605469 808.054688 705.335938 C 870.574219 704.621094 933.09375 703.269531 995.652344 702.355469 C 1001.527344 702.277344 1007.367188 703.109375 1013.246094 703.507812 C 1013.285156 704.5 1013.324219 705.453125 1013.367188 706.445312 C 1026.710938 706.207031 1039.898438 706.722656 1053.125 707.042969 C 1060.433594 700.964844 1067.820312 694.96875 1074.773438 688.457031 C 1124.382812 642.148438 1163.941406 587.902344 1198.816406 530.078125 C 1204.21875 521.101562 1208.429688 511.175781 1211.84375 501.246094 C 1217.246094 485.320312 1215.0625 470.269531 1205.964844 455.695312 Z M 463.683594 386.234375 C 463.488281 395.011719 458.761719 398.863281 450.976562 399.300781 C 439.335938 399.9375 427.699219 400.015625 416.023438 400.136719 C 402.359375 400.253906 388.65625 400.175781 373.917969 400.175781 C 373.917969 413.957031 373.917969 426.386719 373.917969 440.085938 C 380.511719 440.085938 385.675781 439.851562 390.800781 440.128906 C 397.113281 440.484375 403.589844 440.566406 409.667969 441.996094 C 422.734375 445.09375 425.355469 448.585938 424.878906 461.730469 C 424.441406 473.925781 423.726562 486.074219 422.535156 498.1875 C 421.183594 511.652344 418.324219 514.351562 404.660156 515.386719 C 396.757812 515.980469 388.773438 515.425781 380.828125 515.503906 C 378.289062 515.542969 375.707031 516.058594 371.894531 516.496094 C 371.894531 535.679688 371.894531 554.34375 371.894531 575.195312 C 391.316406 575.195312 410.222656 575.511719 429.167969 575.113281 C 446.488281 574.757812 453.835938 584.167969 453.121094 599.578125 C 452.5625 611.691406 452.125 623.921875 450.261719 635.875 C 448.113281 649.855469 444.5 652.398438 429.921875 652.277344 C 417.214844 652.160156 404.503906 651.402344 391.792969 650.808594 C 373.800781 649.933594 355.6875 649.933594 337.851562 647.828125 C 305.640625 644.097656 306.515625 643.023438 304.566406 614.75 C 298.609375 527.417969 298.054688 440.007812 302.421875 352.558594 C 303.097656 339.296875 305.800781 335.402344 318.789062 333.257812 C 339.679688 329.804688 360.691406 327.023438 381.742188 324.800781 C 398.070312 323.09375 414.589844 321.1875 430.917969 321.902344 C 467.339844 323.527344 464.480469 325.238281 465.671875 356.054688 C 465.988281 366.101562 463.921875 376.1875 463.683594 386.234375 Z M 662.839844 644.492188 C 651.796875 645.445312 640.597656 644.292969 629.515625 644.769531 C 621.371094 645.128906 616.289062 641.433594 613.46875 634.445312 C 606.953125 618.28125 600.597656 602 594.480469 585.675781 C 591.542969 577.773438 589.359375 569.59375 586.816406 561.53125 C 585.824219 561.332031 584.789062 561.175781 583.796875 560.976562 C 578.078125 575.074219 572.320312 589.132812 566.636719 603.230469 C 563.5 611.09375 559.964844 618.878906 557.582031 626.941406 C 554.445312 637.464844 547.453125 643.261719 537.085938 643.9375 C 524.457031 644.730469 511.667969 645.050781 499.074219 643.898438 C 488.113281 642.90625 485.53125 638.496094 488.511719 627.574219 C 492.917969 611.253906 498.003906 595.089844 503.246094 579.003906 C 513.296875 548.347656 523.421875 517.6875 534.148438 487.226562 C 536.808594 479.640625 536.09375 473.210938 533.949219 465.78125 C 521.359375 422.058594 509.203125 378.175781 496.96875 334.332031 C 494.070312 323.964844 495.460938 319.914062 505.550781 318.207031 C 520.605469 315.664062 535.976562 314.078125 551.226562 313.917969 C 562.546875 313.800781 563.820312 316.617188 566.441406 328.015625 C 571.84375 351.644531 577.640625 375.195312 583.28125 398.785156 C 584.472656 398.867188 585.664062 398.984375 586.894531 399.0625 C 592.496094 383.496094 598.015625 367.929688 603.65625 352.359375 C 607.074219 342.949219 610.570312 333.535156 614.144531 324.164062 C 617.082031 316.378906 623.160156 312.25 631.144531 312.050781 C 642.78125 311.773438 654.539062 311.335938 666.058594 312.804688 C 682.261719 314.871094 687.625 323.570312 684.488281 339.492188 C 677.21875 376.148438 660.179688 409.269531 646.277344 443.503906 C 642.105469 453.789062 633.921875 463.679688 633.605469 473.925781 C 633.328125 483.375 641.273438 493.066406 645.324219 502.714844 C 660.457031 538.855469 675.351562 575.074219 684.726562 613.277344 C 690.761719 638.097656 688.300781 642.347656 662.839844 644.492188 Z M 809.523438 393.066406 C 808.492188 420.546875 806.824219 448.03125 805.433594 475.511719 C 805.59375 475.511719 805.710938 475.511719 805.871094 475.550781 C 803.367188 522.054688 800.867188 568.5625 798.324219 615.066406 C 798.164062 618.242188 797.964844 621.421875 797.449219 624.558594 C 795.382812 636.988281 790.339844 643.023438 778.226562 644.214844 C 765.632812 645.445312 752.804688 645.765625 740.214844 644.851562 C 726.351562 643.859375 719.082031 633.808594 719.519531 618.003906 C 719.878906 604.261719 720.671875 590.523438 721.546875 576.78125 C 725.121094 521.34375 729.050781 465.902344 732.347656 410.460938 C 733.859375 385.125 734.097656 359.707031 735.011719 334.292969 C 735.488281 320.90625 738.265625 316.140625 751.375 316.0625 C 767.582031 315.945312 783.867188 318.605469 800.03125 320.628906 C 808.609375 321.703125 810.515625 328.292969 810.398438 335.917969 C 810.039062 354.980469 810.238281 374.042969 809.523438 393.066406 Z M 1022.300781 344.65625 C 1022.144531 354.703125 1021.984375 364.789062 1021.546875 374.839844 C 1020.914062 389.613281 1016.742188 394.65625 1002.203125 397.078125 C 993.941406 398.46875 985.480469 398.746094 975.949219 399.621094 C 974.757812 423.050781 973.925781 444.734375 972.492188 466.339844 C 969.394531 513.875 966.21875 561.453125 962.644531 608.949219 C 960.460938 638.257812 960.140625 638.335938 930.589844 640.957031 C 922.167969 641.714844 913.628906 642.148438 905.210938 641.714844 C 890.710938 640.917969 886.5 636.867188 886.5 622.175781 C 886.460938 592.507812 886.777344 562.84375 887.730469 533.214844 C 889.003906 492.984375 891.027344 452.796875 892.699219 412.566406 C 892.855469 408.4375 892.738281 404.265625 892.738281 398.90625 C 881.417969 398.386719 870.96875 398.109375 860.605469 397.394531 C 847.058594 396.480469 845.789062 395.410156 845.589844 382.621094 C 845.351562 366.738281 845.390625 350.851562 845.867188 334.964844 C 846.265625 321.183594 849.441406 317.609375 862.75 317.292969 C 906.679688 316.261719 950.648438 315.230469 994.617188 315.148438 C 1016.066406 315.148438 1022.621094 323.09375 1022.300781 344.65625 Z M 1022.300781 344.65625 " fill-opacity="1" fill-rule="nonzero"/><path fill="#ed174c" d="M 1053.085938 707.003906 C 1050.621094 709.066406 1048.160156 711.09375 1045.777344 713.199219 C 1036.085938 721.578125 1024.566406 724.398438 1012.09375 724.554688 C 911.960938 726.066406 811.789062 727.574219 697.632812 729.28125 C 633.765625 728.011719 555.835938 727.414062 478.023438 724.59375 C 407.125 722.015625 336.226562 717.882812 266.078125 706.207031 C 257.816406 704.816406 249.675781 702.277344 241.730469 699.535156 C 234.660156 697.113281 231.324219 692.230469 231.285156 683.890625 C 231.007812 631.984375 229.378906 580.039062 229.738281 528.132812 C 230.09375 478.332031 231.800781 428.53125 233.988281 378.808594 C 234.898438 358.238281 238.039062 337.707031 241.214844 317.332031 C 243.679688 301.6875 247.214844 296.246094 258.773438 294.0625 C 257.976562 301.367188 257.382812 308.675781 256.785156 316.023438 C 255.992188 315.902344 255.195312 315.824219 254.441406 315.707031 C 253.25 321.144531 251.660156 326.507812 251.027344 331.988281 C 249.636719 343.542969 248.324219 355.140625 247.691406 366.777344 C 242.011719 465.226562 239.269531 563.714844 243.71875 662.285156 C 244.75 685.039062 249.875 691.078125 271.878906 695.523438 C 274.460938 696.042969 277.121094 696.320312 279.742188 696.519531 C 334.675781 700.609375 389.527344 705.613281 444.539062 708.433594 C 501.140625 711.332031 557.859375 713.714844 614.539062 713.515625 C 744.382812 713.039062 874.1875 710.855469 1003.992188 709.265625 C 1007.167969 709.226562 1010.308594 707.835938 1013.445312 707.121094 C 1013.445312 706.882812 1013.445312 706.644531 1013.40625 706.445312 C 1026.671875 706.167969 1039.898438 706.644531 1053.085938 707.003906 Z M 1053.085938 707.003906 " fill-opacity="1" fill-rule="nonzero"/><path fill="#4d4d4f" d="M 893.492188 135.644531 C 888.925781 118.171875 882.648438 112.492188 868.308594 112.769531 C 853.773438 113.046875 847.058594 119.796875 843.761719 138.34375 C 711.179688 143.269531 578.355469 148.195312 446.964844 153.078125 C 442.671875 143.191406 440.410156 133.699219 434.847656 126.867188 C 431.75 123.054688 423.132812 122.179688 417.171875 122.5 C 401.839844 123.292969 397.394531 130.402344 395.683594 155.382812 C 385.796875 156.414062 375.507812 157.84375 365.179688 158.480469 C 333.445312 160.503906 301.667969 162.292969 269.933594 164 C 264.648438 164.277344 259.289062 164.316406 254.085938 163.640625 C 240.578125 161.933594 232.875 151.570312 234.582031 138.105469 C 237.203125 117.296875 252.296875 102.164062 273.191406 100.617188 C 345.082031 95.296875 416.933594 89.773438 488.867188 85.328125 C 645.640625 75.558594 802.613281 77.664062 959.546875 80.125 C 969.632812 80.285156 979.683594 80.164062 989.773438 80.125 C 1003.15625 80.046875 1014.398438 89.496094 1016.226562 102.445312 C 1017.894531 114.238281 1007.289062 128.375 994.816406 131.035156 C 976.703125 134.808594 912.558594 137.75 893.492188 135.644531 Z M 995.730469 105.105469 C 995.769531 103.875 995.808594 102.601562 995.808594 101.371094 C 991.597656 100.496094 987.46875 98.988281 983.21875 98.789062 C 959.941406 97.679688 936.628906 96.328125 913.3125 96.089844 C 718.804688 94.144531 524.257812 91.878906 330.308594 111.539062 C 311.917969 113.40625 293.605469 116.699219 275.613281 120.871094 C 260.679688 124.367188 252.894531 138.859375 256.984375 153.714844 C 259.011719 151.25 261.273438 149.625 261.949219 147.480469 C 266.753906 132.707031 278.035156 127.941406 292.253906 126.351562 C 314.894531 123.808594 337.335938 119.242188 360.015625 117.8125 C 435.644531 112.96875 511.269531 107.210938 586.976562 105.421875 C 708.320312 102.484375 829.742188 101.847656 951.085938 107.089844 C 962.722656 107.605469 974.402344 107.726562 986.078125 107.605469 C 989.296875 107.566406 992.511719 105.976562 995.730469 105.105469 Z M 859.292969 257.523438 C 867 257.523438 873.035156 257.523438 881.019531 257.523438 C 881.019531 234.648438 880.980469 212.609375 881.019531 190.527344 C 881.058594 173.132812 881.097656 155.699219 881.457031 138.304688 C 881.617188 130.28125 877.722656 126.550781 870.214844 126.273438 C 866.679688 126.113281 863.105469 126.828125 859.292969 127.183594 C 859.292969 171.703125 859.292969 214.199219 859.292969 257.523438 Z M 429.683594 136.796875 C 422.535156 136.796875 416.0625 136.796875 409.863281 136.796875 C 406.765625 152.761719 408.632812 254.664062 412.167969 265.863281 C 417.132812 265.308594 422.296875 264.753906 429.683594 263.917969 C 429.683594 220.632812 429.683594 179.210938 429.683594 136.796875 Z M 429.683594 136.796875 " fill-opacity="1" fill-rule="nonzero"/><path fill="#ffffff" d="M 508.410156 331.667969 C 524.496094 330.082031 538.636719 328.691406 553.171875 327.261719 C 560.480469 355.972656 567.433594 384.089844 574.980469 412.011719 C 576.609375 418.046875 574.503906 428.054688 583.679688 428.570312 C 592.574219 429.046875 594.679688 419.636719 597.183594 413.003906 C 606.597656 387.746094 615.492188 362.289062 624.550781 336.910156 C 625.421875 334.488281 626.179688 332.027344 627.210938 328.96875 C 641.074219 328.96875 654.539062 328.96875 670.347656 328.96875 C 669.632812 336.15625 670.265625 341.957031 668.359375 346.800781 C 654.0625 383.257812 639.761719 419.675781 624.390625 455.695312 C 618.871094 468.640625 621.53125 480.675781 624.191406 492.90625 C 626.21875 502.121094 630.191406 510.9375 633.644531 519.792969 C 645.601562 550.332031 657.714844 580.832031 669.671875 611.371094 C 671.738281 616.652344 673.128906 622.175781 675.351562 629.203125 C 657.796875 629.203125 642.066406 629.203125 624.90625 629.203125 C 616.644531 604.105469 608.34375 578.488281 599.765625 552.953125 C 597.34375 545.6875 597.460938 535.082031 588.125 533.929688 C 578.238281 532.699219 576.609375 543.542969 573.589844 550.214844 C 561.632812 576.621094 550.433594 603.351562 538.4375 631.1875 C 527.554688 630.554688 515.082031 629.800781 502.09375 629.046875 C 508.886719 610.0625 515.957031 592.03125 521.753906 573.566406 C 530.613281 545.328125 538.796875 516.855469 546.699219 488.339844 C 548.128906 483.136719 548.089844 476.824219 546.699219 471.582031 C 535.378906 429.167969 523.621094 386.871094 511.945312 344.539062 C 510.910156 341.003906 510 337.46875 508.410156 331.667969 Z M 375.507812 454.859375 C 363.351562 454.027344 360.652344 452 359.5 439.808594 C 358.429688 428.253906 358.230469 416.496094 359.101562 404.941406 C 360.492188 386.59375 362.957031 384.886719 381.785156 384.726562 C 386.035156 384.6875 390.242188 384.6875 394.492188 384.6875 C 412.882812 384.6875 431.3125 384.6875 450.578125 384.6875 C 451.53125 372.695312 452.523438 361.691406 453.160156 350.691406 C 453.398438 346.601562 452.683594 342.472656 452.285156 336.714844 C 405.535156 336.59375 360.136719 341.480469 314.378906 347.316406 C 311.441406 442.828125 316.046875 537.226562 318.667969 632.738281 C 358.625 634.605469 397.074219 636.390625 436.277344 638.21875 C 436.277344 622.414062 436.277344 607.359375 436.277344 591.4375 C 427.660156 590.402344 420.390625 589.09375 413.082031 588.816406 C 399.855469 588.339844 386.589844 588.617188 373.363281 588.339844 C 358.269531 588.058594 355.328125 585.835938 355.410156 570.90625 C 355.488281 553.988281 356.402344 537.027344 358.191406 520.230469 C 359.859375 504.503906 363.789062 501.683594 379.875 501.367188 C 389.25 501.167969 398.664062 501.328125 408.792969 501.328125 C 410.300781 486.394531 411.691406 472.335938 413.28125 456.808594 C 399.578125 456.050781 387.542969 455.65625 375.507812 454.859375 Z M 945.921875 624.558594 C 946.597656 620.902344 947.191406 618.878906 947.3125 616.8125 C 952.199219 543.820312 957.082031 470.867188 961.929688 397.871094 C 962.800781 385.003906 962.960938 384.6875 975.433594 383.296875 C 985.285156 382.226562 995.132812 381.628906 1006.296875 380.675781 C 1006.296875 363.917969 1006.296875 348.269531 1006.296875 332.105469 C 957.28125 332.105469 908.265625 332.105469 858.417969 332.105469 C 858.417969 349.066406 858.417969 364.710938 858.417969 381.074219 C 869.0625 382.265625 878.914062 383.535156 888.84375 384.488281 C 905.011719 386.078125 905.726562 386.039062 905.605469 402.679688 C 905.328125 446.679688 904.851562 490.644531 903.660156 534.644531 C 902.867188 564.273438 900.761719 593.898438 899.050781 626.703125 C 915.695312 625.945312 930.75 625.273438 945.921875 624.558594 Z M 734.96875 628.210938 C 749.785156 628.210938 764.761719 628.210938 781.285156 628.210938 C 786.605469 528.96875 791.808594 431.429688 797.132812 332.105469 C 779.574219 332.105469 763.925781 332.105469 747.800781 332.105469 C 750.820312 431.789062 737.195312 529.679688 734.96875 628.210938 Z M 734.96875 628.210938 " fill-opacity="1" fill-rule="nonzero"/></svg>