<svg xmlns="http://www.w3.org/2000/svg" xmlns:xlink="http://www.w3.org/1999/xlink" width="1920" zoomAndPan="magnify" viewBox="0 0 1440 809.999993" height="1080" preserveAspectRatio="xMidYMid meet" version="1.0"><defs><clipPath id="ebc65cf3da"><path d="M 27.800781 235 L 1412.195312 235 L 1412.195312 594.207031 L 27.800781 594.207031 Z M 27.800781 235 " clip-rule="nonzero"/></clipPath><clipPath id="05a6901d29"><path d="M 27.800781 215.636719 L 1412.195312 215.636719 L 1412.195312 575 L 27.800781 575 Z M 27.800781 215.636719 " clip-rule="nonzero"/></clipPath></defs><g clip-path="url(#ebc65cf3da)"><path fill="#00a5ef" d="M 1412.195312 414.75 C 1412.195312 513.824219 1331.882812 594.136719 1232.8125 594.136719 L 207.183594 594.136719 C 108.113281 594.136719 27.800781 513.824219 27.800781 414.75 C 27.800781 315.679688 108.113281 235.367188 207.183594 235.367188 L 1232.8125 235.371094 C 1331.882812 235.371094 1412.195312 315.683594 1412.195312 414.753906 Z M 1412.195312 414.75 " fill-opacity="1" fill-rule="evenodd"/></g><g clip-path="url(#05a6901d29)"><path fill="#1e5ea3" d="M 1412.195312 395.234375 C 1412.195312 494.304688 1331.882812 574.617188 1232.8125 574.617188 L 207.183594 574.617188 C 108.113281 574.617188 27.800781 494.304688 27.800781 395.234375 C 27.800781 296.160156 108.113281 215.847656 207.183594 215.847656 L 1232.8125 215.851562 C 1331.882812 215.851562 1412.195312 296.164062 1412.195312 395.234375 Z M 1412.195312 395.234375 " fill-opacity="1" fill-rule="evenodd"/></g><path fill="#8fe0ff" d="M 1394.097656 395.234375 C 1394.097656 487.015625 1319.703125 561.417969 1227.914062 561.417969 L 211.871094 561.417969 C 120.082031 561.417969 45.6875 487.015625 45.6875 395.234375 C 45.6875 303.453125 120.082031 229.050781 211.871094 229.050781 L 1227.914062 229.050781 C 1319.703125 229.050781 1394.097656 303.453125 1394.097656 395.234375 Z M 1394.097656 395.234375 " fill-opacity="1" fill-rule="evenodd"/><path fill="#1e5ea3" d="M 327.824219 374.597656 L 316.433594 402.964844 L 339.195312 402.964844 Z M 875.578125 349.988281 L 900.660156 349.988281 L 900.660156 398.402344 C 900.660156 406.007812 902.152344 411.457031 905.152344 414.753906 C 908.132812 418.046875 912.265625 419.695312 917.480469 419.695312 C 922.71875 419.695312 926.828125 418.046875 929.765625 414.753906 C 932.726562 411.457031 934.195312 406.007812 934.195312 398.402344 L 934.195312 349.988281 L 958.894531 349.988281 L 958.894531 399.164062 C 958.894531 412.34375 955.230469 422.523438 947.886719 429.707031 C 940.539062 436.886719 930.320312 440.480469 917.246094 440.480469 C 904.152344 440.480469 893.933594 436.886719 886.585938 429.707031 C 879.261719 422.523438 875.578125 412.34375 875.578125 399.164062 Z M 774.613281 349.988281 L 795.246094 349.988281 L 834.378906 397.269531 L 834.378906 349.988281 L 858.929688 349.988281 L 858.929688 438.707031 L 838.296875 438.707031 L 799.164062 391.429688 L 799.164062 438.707031 L 774.613281 438.707031 Z M 689.699219 349.988281 L 759.21875 349.988281 L 759.21875 369.378906 L 714.527344 369.378906 L 714.527344 384.335938 L 753.894531 384.335938 L 753.894531 403.089844 L 714.527344 403.089844 L 714.527344 419.316406 L 760.859375 419.316406 L 760.859375 438.707031 L 689.699219 438.707031 Z M 568.953125 349.988281 L 589.585938 349.988281 L 620.777344 401.246094 L 651.121094 349.988281 L 671.753906 349.988281 L 672.007812 438.707031 L 648.96875 438.707031 L 648.757812 391.636719 L 625.933594 429.960938 L 614.773438 429.960938 L 592.121094 392.953125 L 592.121094 438.707031 L 568.953125 438.707031 Z M 429.898438 349.988281 L 450.53125 349.988281 L 489.644531 397.269531 L 489.644531 349.988281 L 514.214844 349.988281 L 514.214844 438.707031 L 493.582031 438.707031 L 454.449219 391.429688 L 454.449219 438.707031 L 429.898438 438.707031 Z M 386.71875 349.988281 L 411.777344 349.988281 L 411.777344 438.707031 L 386.71875 438.707031 Z M 315.667969 349.988281 L 340.34375 349.988281 L 379.605469 438.707031 L 353.523438 438.707031 L 346.605469 421.46875 L 309.023438 421.46875 L 302.105469 438.707031 L 276.53125 438.707031 Z M 166.410156 349.988281 L 187.042969 349.988281 L 218.257812 401.246094 L 248.578125 349.988281 L 269.230469 349.988281 L 269.484375 438.707031 L 246.425781 438.707031 L 246.214844 391.636719 L 223.386719 429.960938 L 212.253906 429.960938 L 189.578125 392.953125 L 189.578125 438.707031 L 166.410156 438.707031 Z M 166.410156 349.988281 " fill-opacity="1" fill-rule="evenodd"/><path fill="#1e5ea3" d="M 1164.1875 424.539062 C 1158.71875 424.539062 1154.289062 428.964844 1154.289062 434.421875 C 1154.289062 439.882812 1158.71875 444.304688 1164.1875 444.304688 L 1280.570312 444.304688 C 1286.042969 444.304688 1290.472656 439.882812 1290.472656 434.421875 C 1290.472656 428.964844 1286.042969 424.539062 1280.570312 424.539062 Z M 1164.1875 385.351562 C 1158.71875 385.351562 1154.289062 389.777344 1154.289062 395.234375 C 1154.289062 400.695312 1158.71875 405.117188 1164.1875 405.117188 L 1280.570312 405.117188 C 1286.042969 405.117188 1290.472656 400.695312 1290.472656 395.234375 C 1290.472656 389.777344 1286.042969 385.351562 1280.570312 385.351562 Z M 1164.1875 346.164062 C 1158.71875 346.164062 1154.289062 350.589844 1154.289062 356.046875 C 1154.289062 361.503906 1158.71875 365.929688 1164.1875 365.929688 L 1280.570312 365.929688 C 1286.042969 365.929688 1290.472656 361.503906 1290.472656 356.046875 C 1290.472656 350.589844 1286.042969 346.164062 1280.570312 346.164062 Z M 1222.378906 269.507812 C 1291.8125 269.507812 1348.109375 325.796875 1348.109375 395.234375 C 1348.109375 464.671875 1291.8125 520.964844 1222.378906 520.964844 C 1152.945312 520.964844 1096.652344 464.671875 1096.652344 395.234375 C 1096.652344 325.796875 1152.945312 269.507812 1222.378906 269.507812 Z M 1222.378906 269.507812 " fill-opacity="1" fill-rule="evenodd"/></svg>