<svg xmlns="http://www.w3.org/2000/svg" xmlns:xlink="http://www.w3.org/1999/xlink" width="1920" zoomAndPan="magnify" viewBox="0 0 1440 809.999993" height="1080" preserveAspectRatio="xMidYMid meet" version="1.0"><defs><g/><clipPath id="0c9d0a3199"><path d="M 270.046875 271.621094 L 1339 271.621094 L 1339 493.066406 L 270.046875 493.066406 Z M 270.046875 271.621094 " clip-rule="nonzero"/></clipPath><clipPath id="ab5dd92ab1"><path d="M 345.046875 271.621094 L 1263.6875 271.621094 C 1305.109375 271.621094 1338.6875 305.199219 1338.6875 346.621094 L 1338.6875 418.066406 C 1338.6875 459.488281 1305.109375 493.066406 1263.6875 493.066406 L 345.046875 493.066406 C 303.625 493.066406 270.046875 459.488281 270.046875 418.066406 L 270.046875 346.621094 C 270.046875 305.199219 303.625 271.621094 345.046875 271.621094 Z M 345.046875 271.621094 " clip-rule="nonzero"/></clipPath><clipPath id="14b4e805a2"><path d="M 0.046875 0.621094 L 1068.71875 0.621094 L 1068.71875 222.066406 L 0.046875 222.066406 Z M 0.046875 0.621094 " clip-rule="nonzero"/></clipPath><clipPath id="0b51d257f4"><path d="M 75.046875 0.621094 L 993.6875 0.621094 C 1035.109375 0.621094 1068.6875 34.199219 1068.6875 75.621094 L 1068.6875 147.066406 C 1068.6875 188.488281 1035.109375 222.066406 993.6875 222.066406 L 75.046875 222.066406 C 33.625 222.066406 0.046875 188.488281 0.046875 147.066406 L 0.046875 75.621094 C 0.046875 34.199219 33.625 0.621094 75.046875 0.621094 Z M 75.046875 0.621094 " clip-rule="nonzero"/></clipPath><clipPath id="92b9233676"><rect x="0" width="1069" y="0" height="223"/></clipPath><clipPath id="38699d1aa6"><path d="M 81 289 L 331.5 289 L 331.5 507 L 81 507 Z M 81 289 " clip-rule="nonzero"/></clipPath><clipPath id="ef59e2913c"><path d="M 185 257.105469 L 226 257.105469 L 226 300 L 185 300 Z M 185 257.105469 " clip-rule="nonzero"/></clipPath><clipPath id="98808a1433"><path d="M 340 0.640625 L 385 0.640625 L 385 96 L 340 96 Z M 340 0.640625 " clip-rule="nonzero"/></clipPath><clipPath id="801715868c"><rect x="0" width="863" y="0" height="122"/></clipPath></defs><g clip-path="url(#0c9d0a3199)"><g clip-path="url(#ab5dd92ab1)"><g transform="matrix(1, 0, 0, 1, 270, 271)"><g clip-path="url(#92b9233676)"><g clip-path="url(#14b4e805a2)"><g clip-path="url(#0b51d257f4)"><path fill="#1b353e" d="M 0.046875 0.621094 L 1068.359375 0.621094 L 1068.359375 222.066406 L 0.046875 222.066406 Z M 0.046875 0.621094 " fill-opacity="1" fill-rule="nonzero"/></g></g></g></g></g></g><g clip-path="url(#38699d1aa6)"><path fill="#f4900c" d="M 308.253906 315.679688 C 285.296875 292.128906 243.941406 289.457031 206.230469 289.457031 C 168.523438 289.457031 127.167969 292.128906 104.210938 315.679688 C 85.050781 335.335938 81 365.996094 81 394.105469 C 81 430.722656 94.789062 472.800781 125.226562 493.203125 C 146.148438 507.230469 178.054688 505.980469 206.230469 505.980469 C 234.410156 505.980469 266.316406 507.230469 287.238281 493.203125 C 317.675781 472.792969 331.464844 430.722656 331.464844 394.105469 C 331.464844 365.996094 327.414062 335.335938 308.253906 315.679688 Z M 308.253906 315.679688 " fill-opacity="1" fill-rule="nonzero"/></g><g clip-path="url(#ef59e2913c)"><path fill="#d7d26d" d="M 225.59375 294.289062 C 226.074219 297.210938 224.050781 299.601562 221.09375 299.601562 L 190.125 299.601562 C 187.164062 299.601562 185.136719 297.210938 185.625 294.289062 L 190.808594 263.175781 C 191.296875 260.246094 194.121094 257.859375 197.082031 257.859375 L 214.136719 257.859375 C 217.101562 257.859375 219.925781 260.25 220.40625 263.175781 Z M 225.59375 294.289062 " fill-opacity="1" fill-rule="nonzero"/></g><path fill="#642116" d="M 224.695312 403.621094 L 213.578125 385.5625 C 211.554688 381.789062 208.898438 379.90625 206.226562 379.875 C 203.5625 379.90625 200.894531 381.789062 198.871094 385.5625 L 187.753906 403.621094 C 183.667969 411.226562 193.828125 415.5625 206.21875 415.5625 C 218.609375 415.5625 228.78125 411.21875 224.695312 403.621094 Z M 290.847656 425.828125 C 290.535156 425.308594 289.972656 424.988281 289.359375 424.988281 L 283.507812 424.988281 C 283.035156 424.988281 282.574219 425.183594 282.25 425.523438 L 266.726562 441.761719 L 247.957031 426.671875 C 247.601562 426.386719 247.140625 426.269531 246.667969 426.304688 C 246.210938 426.351562 245.785156 426.589844 245.5 426.957031 L 228.746094 448.261719 L 207.5 425.539062 C 207.410156 425.441406 207.269531 425.417969 207.164062 425.34375 C 207.058594 425.273438 206.992188 425.15625 206.867188 425.105469 C 206.824219 425.09375 206.773438 425.105469 206.734375 425.09375 C 206.566406 425.042969 206.40625 425.058594 206.230469 425.058594 C 206.058594 425.058594 205.898438 425.042969 205.730469 425.097656 C 205.691406 425.113281 205.640625 425.09375 205.59375 425.113281 C 205.46875 425.160156 205.40625 425.28125 205.292969 425.351562 C 205.183594 425.417969 205.050781 425.441406 204.960938 425.539062 L 183.71875 448.261719 L 166.957031 426.957031 C 166.671875 426.589844 166.25 426.351562 165.789062 426.304688 C 165.332031 426.261719 164.863281 426.386719 164.503906 426.671875 L 145.730469 441.761719 L 130.214844 425.523438 C 129.890625 425.183594 129.4375 424.988281 128.957031 424.988281 L 123.105469 424.988281 C 122.5 424.988281 121.929688 425.308594 121.617188 425.828125 C 121.304688 426.351562 121.28125 427 121.566406 427.535156 L 140.730469 463.84375 C 140.964844 464.289062 141.375 464.609375 141.871094 464.730469 C 142.363281 464.847656 142.878906 464.742188 143.28125 464.449219 L 157.433594 454.304688 L 178.332031 479.582031 C 178.632812 479.953125 179.070312 480.175781 179.542969 480.207031 L 179.675781 480.214844 C 180.109375 480.214844 180.519531 480.0625 180.839844 479.777344 L 206.230469 457.035156 L 231.625 479.769531 C 231.945312 480.054688 232.355469 480.207031 232.789062 480.207031 L 232.921875 480.203125 C 233.394531 480.167969 233.832031 479.945312 234.132812 479.574219 L 255.039062 454.300781 L 269.191406 464.441406 C 269.605469 464.742188 270.113281 464.859375 270.601562 464.722656 C 271.089844 464.601562 271.507812 464.289062 271.734375 463.84375 L 290.902344 427.535156 C 291.183594 427 291.167969 426.351562 290.847656 425.828125 Z M 275.640625 363.699219 C 276.535156 378.5 270.183594 390.179688 253.339844 391.203125 C 236.503906 392.21875 228.789062 381.386719 227.890625 366.59375 C 226.992188 351.804688 236.460938 330.972656 249.644531 330.179688 C 262.835938 329.375 274.75 348.902344 275.640625 363.699219 Z M 136.824219 363.699219 C 135.929688 378.5 142.28125 390.179688 159.125 391.203125 C 175.960938 392.21875 183.675781 381.386719 184.574219 366.59375 C 185.472656 351.804688 176.003906 330.972656 162.820312 330.179688 C 149.632812 329.386719 137.714844 348.902344 136.824219 363.699219 Z M 136.824219 363.699219 " fill-opacity="1" fill-rule="nonzero"/><g transform="matrix(1, 0, 0, 1, 392, 320)"><g clip-path="url(#801715868c)"><g fill="#ffffff" fill-opacity="1"><g transform="translate(1.021402, 95.682397)"><g><path d="M 85.0625 -73 C 84.8125 -69.300781 84.726562 -65.644531 84.8125 -62.03125 C 84.894531 -58.425781 84.894531 -54.773438 84.8125 -51.078125 C 84.726562 -46.734375 84.5625 -42.382812 84.3125 -38.03125 C 84.3125 -37.289062 84.1875 -36.570312 83.9375 -35.875 C 83.695312 -35.175781 83.492188 -34.421875 83.328125 -33.609375 C 83.660156 -32.535156 83.988281 -31.40625 84.3125 -30.21875 C 84.644531 -29.03125 84.523438 -27.820312 83.953125 -26.59375 C 83.296875 -25.195312 82.925781 -23.78125 82.84375 -22.34375 C 82.757812 -20.90625 82.675781 -19.445312 82.59375 -17.96875 C 82.507812 -15.75 82.46875 -13.550781 82.46875 -11.375 C 82.46875 -9.207031 82.425781 -7.054688 82.34375 -4.921875 C 82.34375 -4.515625 82.257812 -4.144531 82.09375 -3.8125 C 81.9375 -3.488281 81.816406 -3.160156 81.734375 -2.828125 C 81.398438 -2.910156 81.085938 -2.992188 80.796875 -3.078125 C 80.515625 -3.160156 80.210938 -3.242188 79.890625 -3.328125 C 78.816406 -3.648438 78.097656 -3.769531 77.734375 -3.6875 C 77.367188 -3.601562 76.894531 -3.15625 76.3125 -2.34375 C 76.226562 -2.175781 76.164062 -2.007812 76.125 -1.84375 C 76.09375 -1.675781 76.035156 -1.515625 75.953125 -1.359375 C 75.296875 -0.203125 74.390625 0.207031 73.234375 -0.125 C 72.910156 -0.125 72.625 -0.265625 72.375 -0.546875 C 72.132812 -0.835938 71.890625 -1.109375 71.640625 -1.359375 C 71.554688 -2.015625 71.515625 -2.707031 71.515625 -3.4375 C 71.515625 -4.175781 71.722656 -4.878906 72.140625 -5.546875 C 72.953125 -6.691406 73.664062 -7.921875 74.28125 -9.234375 C 74.894531 -10.546875 75.328125 -11.898438 75.578125 -13.296875 C 75.660156 -13.460938 75.617188 -13.601562 75.453125 -13.71875 C 75.285156 -13.84375 75.164062 -13.988281 75.09375 -14.15625 C 74.757812 -14.070312 74.40625 -13.988281 74.03125 -13.90625 C 73.664062 -13.820312 73.320312 -13.738281 73 -13.65625 C 72.914062 -13.738281 72.789062 -13.820312 72.625 -13.90625 C 72.457031 -13.988281 72.332031 -14.070312 72.25 -14.15625 C 71.675781 -16.125 71.453125 -18.03125 71.578125 -19.875 C 71.703125 -21.726562 71.804688 -23.1875 71.890625 -24.25 C 71.972656 -25.644531 72.363281 -26.628906 73.0625 -27.203125 C 73.757812 -27.773438 74.394531 -28.304688 74.96875 -28.796875 C 75.539062 -29.296875 75.742188 -30.035156 75.578125 -31.015625 C 75.085938 -31.429688 74.554688 -31.863281 73.984375 -32.3125 C 73.410156 -32.757812 72.796875 -33.234375 72.140625 -33.734375 C 71.890625 -36.359375 71.804688 -39.023438 71.890625 -41.734375 C 71.972656 -44.441406 72.015625 -47.148438 72.015625 -49.859375 C 72.015625 -50.921875 71.992188 -52.003906 71.953125 -53.109375 C 71.910156 -54.222656 71.847656 -55.3125 71.765625 -56.375 C 71.765625 -56.625 71.617188 -56.890625 71.328125 -57.171875 C 71.046875 -57.460938 70.820312 -57.769531 70.65625 -58.09375 C 70.164062 -57.519531 69.734375 -56.925781 69.359375 -56.3125 C 68.992188 -55.695312 68.566406 -55.101562 68.078125 -54.53125 C 66.023438 -52.476562 64.28125 -50.179688 62.84375 -47.640625 C 61.40625 -45.097656 60.070312 -42.507812 58.84375 -39.875 C 57.851562 -37.988281 56.863281 -36.0625 55.875 -34.09375 C 54.894531 -32.125 53.914062 -30.195312 52.9375 -28.3125 C 52.113281 -26.664062 51.375 -25 50.71875 -23.3125 C 50.0625 -21.632812 49.566406 -19.894531 49.234375 -18.09375 C 48.578125 -17.4375 47.816406 -16.960938 46.953125 -16.671875 C 46.097656 -16.390625 45.21875 -16.125 44.3125 -15.875 C 42.257812 -15.050781 40.695312 -14.925781 39.625 -15.5 C 38.5625 -16.082031 37.828125 -17.148438 37.421875 -18.703125 C 36.597656 -21.253906 35.570312 -23.738281 34.34375 -26.15625 C 33.113281 -28.570312 32.375 -31.21875 32.125 -34.09375 C 32.039062 -34.914062 31.796875 -35.753906 31.390625 -36.609375 C 30.984375 -37.472656 30.570312 -38.273438 30.15625 -39.015625 C 28.757812 -41.804688 27.40625 -44.578125 26.09375 -47.328125 C 24.78125 -50.078125 23.632812 -52.890625 22.65625 -55.765625 C 21.75 -55.109375 21.148438 -54.328125 20.859375 -53.421875 C 20.578125 -52.515625 20.1875 -51.613281 19.6875 -50.71875 C 19.363281 -45.539062 19.265625 -40.328125 19.390625 -35.078125 C 19.515625 -29.828125 19.578125 -24.578125 19.578125 -19.328125 C 19.492188 -16.785156 19.429688 -14.238281 19.390625 -11.6875 C 19.347656 -9.144531 19.328125 -6.601562 19.328125 -4.0625 C 19.242188 -3.570312 18.972656 -3.222656 18.515625 -3.015625 C 18.066406 -2.804688 17.515625 -2.785156 16.859375 -2.953125 C 16.703125 -2.953125 16.539062 -2.992188 16.375 -3.078125 C 16.207031 -3.160156 16.125 -3.242188 16.125 -3.328125 C 15.300781 -3.078125 14.5625 -2.867188 13.90625 -2.703125 C 13.25 -2.546875 12.675781 -2.425781 12.1875 -2.34375 C 9.5625 -3.238281 8.207031 -4.960938 8.125 -7.515625 C 8.039062 -10.628906 8 -13.722656 8 -16.796875 C 8 -19.878906 7.957031 -22.976562 7.875 -26.09375 C 7.875 -27.320312 7.832031 -28.570312 7.75 -29.84375 C 7.664062 -31.125 7.378906 -32.378906 6.890625 -33.609375 C 6.722656 -34.265625 6.617188 -34.976562 6.578125 -35.75 C 6.546875 -36.53125 6.609375 -37.210938 6.765625 -37.796875 C 7.335938 -39.179688 7.664062 -40.59375 7.75 -42.03125 C 7.832031 -43.46875 7.914062 -44.925781 8 -46.40625 C 8.082031 -51.90625 8.1875 -57.382812 8.3125 -62.84375 C 8.4375 -68.300781 8.414062 -73.738281 8.25 -79.15625 C 8.164062 -79.882812 8.164062 -80.597656 8.25 -81.296875 C 8.332031 -81.992188 8.414062 -82.632812 8.5 -83.21875 C 9.226562 -84.195312 10.046875 -84.707031 10.953125 -84.75 C 11.859375 -84.789062 12.722656 -84.9375 13.546875 -85.1875 C 14.441406 -85.34375 15.300781 -85.523438 16.125 -85.734375 C 16.945312 -85.941406 17.726562 -86.164062 18.46875 -86.40625 C 19.863281 -85.75 20.910156 -84.890625 21.609375 -83.828125 C 22.304688 -82.765625 22.859375 -81.613281 23.265625 -80.375 C 23.585938 -79.71875 23.832031 -79.039062 24 -78.34375 C 24.164062 -77.644531 24.453125 -77.007812 24.859375 -76.4375 C 26.335938 -74.300781 27.546875 -72.0625 28.484375 -69.71875 C 29.429688 -67.382812 30.644531 -65.15625 32.125 -63.03125 C 33.269531 -61.382812 34.046875 -59.578125 34.453125 -57.609375 C 34.867188 -55.640625 35.53125 -53.753906 36.4375 -51.953125 C 36.6875 -51.535156 36.847656 -51.039062 36.921875 -50.46875 C 37.003906 -49.894531 37.171875 -49.363281 37.421875 -48.875 C 37.828125 -48.132812 38.296875 -47.394531 38.828125 -46.65625 C 39.367188 -45.914062 39.882812 -45.132812 40.375 -44.3125 C 40.78125 -43.570312 41.046875 -42.726562 41.171875 -41.78125 C 41.296875 -40.84375 41.769531 -40.085938 42.59375 -39.515625 C 43.820312 -39.097656 44.765625 -39.382812 45.421875 -40.375 C 45.828125 -40.945312 46.210938 -41.539062 46.578125 -42.15625 C 46.953125 -42.769531 47.265625 -43.40625 47.515625 -44.0625 C 48.085938 -46.03125 48.882812 -47.851562 49.90625 -49.53125 C 50.9375 -51.21875 52.066406 -52.882812 53.296875 -54.53125 C 55.597656 -57.5625 57.851562 -60.613281 60.0625 -63.6875 C 62.28125 -66.769531 64.539062 -69.832031 66.84375 -72.875 C 67.5 -74.925781 68.5625 -76.628906 70.03125 -77.984375 C 71.507812 -79.335938 72.90625 -80.753906 74.21875 -82.234375 C 75.125 -81.898438 75.988281 -81.566406 76.8125 -81.234375 C 77.632812 -80.910156 78.453125 -80.664062 79.265625 -80.5 C 79.921875 -80.332031 80.597656 -80.269531 81.296875 -80.3125 C 81.992188 -80.351562 82.671875 -80.375 83.328125 -80.375 C 83.578125 -79.96875 83.84375 -79.597656 84.125 -79.265625 C 84.414062 -78.941406 84.5625 -78.65625 84.5625 -78.40625 C 84.726562 -77.507812 84.851562 -76.609375 84.9375 -75.703125 C 85.019531 -74.796875 85.0625 -73.894531 85.0625 -73 Z M 79.15625 -30.890625 L 79.640625 -31.515625 L 78.90625 -31.515625 Z M 79.15625 -30.890625 "/></g></g></g><g fill="#ffffff" fill-opacity="1"><g transform="translate(92.97577, 95.682397)"><g><path d="M 44.6875 -12.921875 C 45.175781 -12.097656 45.601562 -11.234375 45.96875 -10.328125 C 46.34375 -9.429688 46.570312 -8.492188 46.65625 -7.515625 C 44.601562 -5.617188 42.320312 -4.382812 39.8125 -3.8125 C 37.3125 -3.238281 34.832031 -2.625 32.375 -1.96875 C 29.914062 -1.3125 27.554688 -1.453125 25.296875 -2.390625 C 23.035156 -3.335938 20.71875 -4.019531 18.34375 -4.4375 C 16.375 -5.414062 14.628906 -6.722656 13.109375 -8.359375 C 11.585938 -10.003906 10.007812 -11.566406 8.375 -13.046875 C 7.632812 -14.441406 7.035156 -15.628906 6.578125 -16.609375 C 6.128906 -17.597656 5.703125 -18.503906 5.296875 -19.328125 C 5.210938 -19.816406 5.109375 -20.242188 4.984375 -20.609375 C 4.859375 -20.984375 4.796875 -21.375 4.796875 -21.78125 C 4.796875 -24.414062 4.796875 -27.023438 4.796875 -29.609375 C 4.796875 -32.191406 4.796875 -34.753906 4.796875 -37.296875 C 5.617188 -39.753906 6.457031 -42.234375 7.3125 -44.734375 C 8.175781 -47.242188 9.429688 -49.726562 11.078125 -52.1875 C 12.222656 -53.007812 13.535156 -53.953125 15.015625 -55.015625 C 16.492188 -56.085938 18.09375 -57.28125 19.8125 -58.59375 C 21.125 -59 22.582031 -59.445312 24.1875 -59.9375 C 25.789062 -60.4375 27.328125 -60.890625 28.796875 -61.296875 C 31.429688 -60.554688 33.734375 -59.445312 35.703125 -57.96875 C 37.671875 -56.5 39.800781 -55.066406 42.09375 -53.671875 C 42.507812 -52.847656 42.984375 -51.921875 43.515625 -50.890625 C 44.046875 -49.867188 44.597656 -48.867188 45.171875 -47.890625 C 45.171875 -46.816406 45.171875 -45.785156 45.171875 -44.796875 C 45.171875 -43.816406 45.171875 -42.796875 45.171875 -41.734375 C 44.679688 -40.910156 44.1875 -40.046875 43.6875 -39.140625 C 43.195312 -38.242188 42.664062 -37.300781 42.09375 -36.3125 C 40.375 -35.488281 38.609375 -34.601562 36.796875 -33.65625 C 34.992188 -32.71875 33.023438 -31.757812 30.890625 -30.78125 C 29.003906 -30.613281 26.992188 -30.488281 24.859375 -30.40625 C 22.734375 -30.320312 20.4375 -30.195312 17.96875 -30.03125 C 17.226562 -29.707031 16.53125 -29.195312 15.875 -28.5 C 15.21875 -27.800781 14.847656 -26.710938 14.765625 -25.234375 C 15.015625 -24.410156 15.320312 -23.484375 15.6875 -22.453125 C 16.0625 -21.429688 16.410156 -20.390625 16.734375 -19.328125 C 17.640625 -18.097656 18.664062 -17.050781 19.8125 -16.1875 C 20.96875 -15.320312 22.160156 -14.519531 23.390625 -13.78125 C 26.585938 -13.207031 29.742188 -13.039062 32.859375 -13.28125 C 35.984375 -13.53125 39.101562 -14.234375 42.21875 -15.390625 C 42.632812 -14.972656 43.085938 -14.578125 43.578125 -14.203125 C 44.066406 -13.835938 44.4375 -13.410156 44.6875 -12.921875 Z M 16.859375 -41.109375 C 16.703125 -40.785156 16.722656 -40.4375 16.921875 -40.0625 C 17.128906 -39.695312 17.316406 -39.304688 17.484375 -38.890625 C 18.546875 -39.054688 19.628906 -39.257812 20.734375 -39.5 C 21.847656 -39.75 22.976562 -39.914062 24.125 -40 C 25.601562 -40.164062 26.9375 -40.578125 28.125 -41.234375 C 29.3125 -41.890625 30.5625 -42.460938 31.875 -42.953125 C 32.613281 -43.285156 33.144531 -44.046875 33.46875 -45.234375 C 33.800781 -46.421875 33.765625 -47.425781 33.359375 -48.25 C 32.453125 -49.8125 31.363281 -50.941406 30.09375 -51.640625 C 28.820312 -52.335938 27.285156 -52.476562 25.484375 -52.0625 C 23.265625 -50.832031 21.5 -49.253906 20.1875 -47.328125 C 18.875 -45.398438 17.765625 -43.328125 16.859375 -41.109375 Z M 16.859375 -41.109375 "/></g></g></g><g fill="#ffffff" fill-opacity="1"><g transform="translate(143.692243, 95.682397)"><g><path d="M 44.6875 -12.921875 C 45.175781 -12.097656 45.601562 -11.234375 45.96875 -10.328125 C 46.34375 -9.429688 46.570312 -8.492188 46.65625 -7.515625 C 44.601562 -5.617188 42.320312 -4.382812 39.8125 -3.8125 C 37.3125 -3.238281 34.832031 -2.625 32.375 -1.96875 C 29.914062 -1.3125 27.554688 -1.453125 25.296875 -2.390625 C 23.035156 -3.335938 20.71875 -4.019531 18.34375 -4.4375 C 16.375 -5.414062 14.628906 -6.722656 13.109375 -8.359375 C 11.585938 -10.003906 10.007812 -11.566406 8.375 -13.046875 C 7.632812 -14.441406 7.035156 -15.628906 6.578125 -16.609375 C 6.128906 -17.597656 5.703125 -18.503906 5.296875 -19.328125 C 5.210938 -19.816406 5.109375 -20.242188 4.984375 -20.609375 C 4.859375 -20.984375 4.796875 -21.375 4.796875 -21.78125 C 4.796875 -24.414062 4.796875 -27.023438 4.796875 -29.609375 C 4.796875 -32.191406 4.796875 -34.753906 4.796875 -37.296875 C 5.617188 -39.753906 6.457031 -42.234375 7.3125 -44.734375 C 8.175781 -47.242188 9.429688 -49.726562 11.078125 -52.1875 C 12.222656 -53.007812 13.535156 -53.953125 15.015625 -55.015625 C 16.492188 -56.085938 18.09375 -57.28125 19.8125 -58.59375 C 21.125 -59 22.582031 -59.445312 24.1875 -59.9375 C 25.789062 -60.4375 27.328125 -60.890625 28.796875 -61.296875 C 31.429688 -60.554688 33.734375 -59.445312 35.703125 -57.96875 C 37.671875 -56.5 39.800781 -55.066406 42.09375 -53.671875 C 42.507812 -52.847656 42.984375 -51.921875 43.515625 -50.890625 C 44.046875 -49.867188 44.597656 -48.867188 45.171875 -47.890625 C 45.171875 -46.816406 45.171875 -45.785156 45.171875 -44.796875 C 45.171875 -43.816406 45.171875 -42.796875 45.171875 -41.734375 C 44.679688 -40.910156 44.1875 -40.046875 43.6875 -39.140625 C 43.195312 -38.242188 42.664062 -37.300781 42.09375 -36.3125 C 40.375 -35.488281 38.609375 -34.601562 36.796875 -33.65625 C 34.992188 -32.71875 33.023438 -31.757812 30.890625 -30.78125 C 29.003906 -30.613281 26.992188 -30.488281 24.859375 -30.40625 C 22.734375 -30.320312 20.4375 -30.195312 17.96875 -30.03125 C 17.226562 -29.707031 16.53125 -29.195312 15.875 -28.5 C 15.21875 -27.800781 14.847656 -26.710938 14.765625 -25.234375 C 15.015625 -24.410156 15.320312 -23.484375 15.6875 -22.453125 C 16.0625 -21.429688 16.410156 -20.390625 16.734375 -19.328125 C 17.640625 -18.097656 18.664062 -17.050781 19.8125 -16.1875 C 20.96875 -15.320312 22.160156 -14.519531 23.390625 -13.78125 C 26.585938 -13.207031 29.742188 -13.039062 32.859375 -13.28125 C 35.984375 -13.53125 39.101562 -14.234375 42.21875 -15.390625 C 42.632812 -14.972656 43.085938 -14.578125 43.578125 -14.203125 C 44.066406 -13.835938 44.4375 -13.410156 44.6875 -12.921875 Z M 16.859375 -41.109375 C 16.703125 -40.785156 16.722656 -40.4375 16.921875 -40.0625 C 17.128906 -39.695312 17.316406 -39.304688 17.484375 -38.890625 C 18.546875 -39.054688 19.628906 -39.257812 20.734375 -39.5 C 21.847656 -39.75 22.976562 -39.914062 24.125 -40 C 25.601562 -40.164062 26.9375 -40.578125 28.125 -41.234375 C 29.3125 -41.890625 30.5625 -42.460938 31.875 -42.953125 C 32.613281 -43.285156 33.144531 -44.046875 33.46875 -45.234375 C 33.800781 -46.421875 33.765625 -47.425781 33.359375 -48.25 C 32.453125 -49.8125 31.363281 -50.941406 30.09375 -51.640625 C 28.820312 -52.335938 27.285156 -52.476562 25.484375 -52.0625 C 23.265625 -50.832031 21.5 -49.253906 20.1875 -47.328125 C 18.875 -45.398438 17.765625 -43.328125 16.859375 -41.109375 Z M 16.859375 -41.109375 "/></g></g></g><g fill="#ffffff" fill-opacity="1"><g transform="translate(194.408717, 95.682397)"><g><path d="M 49.109375 -6.640625 C 49.191406 -5.660156 49.109375 -4.882812 48.859375 -4.3125 C 48.617188 -3.738281 47.882812 -2.585938 46.65625 -0.859375 C 44.601562 -0.203125 42.550781 0.0820312 40.5 0 C 38.445312 -0.0820312 36.394531 -0.164062 34.34375 -0.25 C 32.289062 -1.394531 30.6875 -2.359375 29.53125 -3.140625 C 28.382812 -3.921875 27.421875 -4.78125 26.640625 -5.71875 C 25.867188 -6.664062 25.113281 -7.9375 24.375 -9.53125 C 23.632812 -11.132812 22.691406 -13.332031 21.546875 -16.125 C 21.546875 -17.769531 21.523438 -19.515625 21.484375 -21.359375 C 21.441406 -23.203125 21.421875 -25.066406 21.421875 -26.953125 C 21.421875 -28.109375 21.398438 -29.238281 21.359375 -30.34375 C 21.316406 -31.445312 21.296875 -32.535156 21.296875 -33.609375 C 21.378906 -34.671875 21.421875 -35.773438 21.421875 -36.921875 C 21.421875 -38.078125 21.175781 -39.144531 20.6875 -40.125 C 20.1875 -41.195312 19.585938 -41.753906 18.890625 -41.796875 C 18.191406 -41.835938 17.351562 -41.859375 16.375 -41.859375 C 15.550781 -41.859375 14.726562 -42 13.90625 -42.28125 C 13.082031 -42.570312 12.265625 -42.757812 11.453125 -42.84375 C 10.378906 -42.914062 9.289062 -42.890625 8.1875 -42.765625 C 7.082031 -42.648438 5.910156 -42.960938 4.671875 -43.703125 C 4.265625 -43.941406 3.832031 -44.390625 3.375 -45.046875 C 2.925781 -45.703125 2.5 -46.28125 2.09375 -46.78125 C 1.84375 -48.25 2.023438 -49.394531 2.640625 -50.21875 C 3.253906 -51.039062 4.097656 -51.78125 5.171875 -52.4375 C 7.054688 -53.257812 9.066406 -53.503906 11.203125 -53.171875 C 13.335938 -52.847656 15.429688 -53.015625 17.484375 -53.671875 C 17.722656 -53.992188 18.003906 -54.316406 18.328125 -54.640625 C 18.660156 -54.972656 18.867188 -55.304688 18.953125 -55.640625 C 19.117188 -56.953125 19.179688 -58.222656 19.140625 -59.453125 C 19.097656 -60.679688 18.789062 -61.910156 18.21875 -63.140625 C 17.476562 -64.953125 17.066406 -66.800781 16.984375 -68.6875 C 16.898438 -70.570312 16.898438 -72.414062 16.984375 -74.21875 C 18.296875 -75.613281 19.671875 -76.289062 21.109375 -76.25 C 22.546875 -76.207031 24.003906 -76.109375 25.484375 -75.953125 C 26.546875 -75.128906 27.28125 -74.101562 27.6875 -72.875 C 28.101562 -71.644531 28.640625 -70.410156 29.296875 -69.171875 C 29.378906 -67.367188 29.441406 -65.523438 29.484375 -63.640625 C 29.523438 -61.753906 29.585938 -59.945312 29.671875 -58.21875 C 30.078125 -56.90625 30.691406 -55.921875 31.515625 -55.265625 C 32.335938 -54.609375 33.320312 -54.160156 34.46875 -53.921875 C 35.363281 -54.078125 36.320312 -54.296875 37.34375 -54.578125 C 38.375 -54.867188 39.425781 -55.140625 40.5 -55.390625 C 41.40625 -54.984375 42.328125 -54.550781 43.265625 -54.09375 C 44.210938 -53.644531 45.132812 -53.257812 46.03125 -52.9375 C 46.613281 -52.195312 46.738281 -51.535156 46.40625 -50.953125 C 46.070312 -50.378906 45.90625 -49.765625 45.90625 -49.109375 C 46.070312 -48.867188 46.21875 -48.539062 46.34375 -48.125 C 46.46875 -47.71875 46.65625 -47.269531 46.90625 -46.78125 C 46.570312 -46.363281 46.21875 -45.929688 45.84375 -45.484375 C 45.476562 -45.035156 45.132812 -44.601562 44.8125 -44.1875 C 42.84375 -43.445312 40.929688 -43.203125 39.078125 -43.453125 C 37.234375 -43.703125 35.613281 -43.578125 34.21875 -43.078125 C 33.238281 -42.835938 32.664062 -42.328125 32.5 -41.546875 C 32.332031 -40.765625 32.289062 -39.960938 32.375 -39.140625 C 32.457031 -37.910156 32.597656 -36.597656 32.796875 -35.203125 C 33.003906 -33.804688 33.023438 -32.453125 32.859375 -31.140625 C 32.785156 -29.660156 32.625 -28.222656 32.375 -26.828125 C 32.125 -25.429688 32.039062 -24 32.125 -22.53125 C 32.207031 -20.5625 32.535156 -18.753906 33.109375 -17.109375 C 33.597656 -15.710938 34.191406 -14.476562 34.890625 -13.40625 C 35.585938 -12.34375 36.675781 -11.566406 38.15625 -11.078125 C 38.894531 -10.828125 39.65625 -10.660156 40.4375 -10.578125 C 41.21875 -10.503906 42.019531 -10.425781 42.84375 -10.34375 C 43.25 -10.34375 43.941406 -10.363281 44.921875 -10.40625 C 45.910156 -10.445312 46.570312 -10.34375 46.90625 -10.09375 C 48.375 -9.03125 49.109375 -7.878906 49.109375 -6.640625 Z M 49.109375 -6.640625 "/></g></g></g><g fill="#ffffff" fill-opacity="1"><g transform="translate(246.848554, 95.682397)"><g/></g></g><g fill="#ffffff" fill-opacity="1"><g transform="translate(284.024217, 95.682397)"><g><path d="M 49.109375 -6.640625 C 49.191406 -5.660156 49.109375 -4.882812 48.859375 -4.3125 C 48.617188 -3.738281 47.882812 -2.585938 46.65625 -0.859375 C 44.601562 -0.203125 42.550781 0.0820312 40.5 0 C 38.445312 -0.0820312 36.394531 -0.164062 34.34375 -0.25 C 32.289062 -1.394531 30.6875 -2.359375 29.53125 -3.140625 C 28.382812 -3.921875 27.421875 -4.78125 26.640625 -5.71875 C 25.867188 -6.664062 25.113281 -7.9375 24.375 -9.53125 C 23.632812 -11.132812 22.691406 -13.332031 21.546875 -16.125 C 21.546875 -17.769531 21.523438 -19.515625 21.484375 -21.359375 C 21.441406 -23.203125 21.421875 -25.066406 21.421875 -26.953125 C 21.421875 -28.109375 21.398438 -29.238281 21.359375 -30.34375 C 21.316406 -31.445312 21.296875 -32.535156 21.296875 -33.609375 C 21.378906 -34.671875 21.421875 -35.773438 21.421875 -36.921875 C 21.421875 -38.078125 21.175781 -39.144531 20.6875 -40.125 C 20.1875 -41.195312 19.585938 -41.753906 18.890625 -41.796875 C 18.191406 -41.835938 17.351562 -41.859375 16.375 -41.859375 C 15.550781 -41.859375 14.726562 -42 13.90625 -42.28125 C 13.082031 -42.570312 12.265625 -42.757812 11.453125 -42.84375 C 10.378906 -42.914062 9.289062 -42.890625 8.1875 -42.765625 C 7.082031 -42.648438 5.910156 -42.960938 4.671875 -43.703125 C 4.265625 -43.941406 3.832031 -44.390625 3.375 -45.046875 C 2.925781 -45.703125 2.5 -46.28125 2.09375 -46.78125 C 1.84375 -48.25 2.023438 -49.394531 2.640625 -50.21875 C 3.253906 -51.039062 4.097656 -51.78125 5.171875 -52.4375 C 7.054688 -53.257812 9.066406 -53.503906 11.203125 -53.171875 C 13.335938 -52.847656 15.429688 -53.015625 17.484375 -53.671875 C 17.722656 -53.992188 18.003906 -54.316406 18.328125 -54.640625 C 18.660156 -54.972656 18.867188 -55.304688 18.953125 -55.640625 C 19.117188 -56.953125 19.179688 -58.222656 19.140625 -59.453125 C 19.097656 -60.679688 18.789062 -61.910156 18.21875 -63.140625 C 17.476562 -64.953125 17.066406 -66.800781 16.984375 -68.6875 C 16.898438 -70.570312 16.898438 -72.414062 16.984375 -74.21875 C 18.296875 -75.613281 19.671875 -76.289062 21.109375 -76.25 C 22.546875 -76.207031 24.003906 -76.109375 25.484375 -75.953125 C 26.546875 -75.128906 27.28125 -74.101562 27.6875 -72.875 C 28.101562 -71.644531 28.640625 -70.410156 29.296875 -69.171875 C 29.378906 -67.367188 29.441406 -65.523438 29.484375 -63.640625 C 29.523438 -61.753906 29.585938 -59.945312 29.671875 -58.21875 C 30.078125 -56.90625 30.691406 -55.921875 31.515625 -55.265625 C 32.335938 -54.609375 33.320312 -54.160156 34.46875 -53.921875 C 35.363281 -54.078125 36.320312 -54.296875 37.34375 -54.578125 C 38.375 -54.867188 39.425781 -55.140625 40.5 -55.390625 C 41.40625 -54.984375 42.328125 -54.550781 43.265625 -54.09375 C 44.210938 -53.644531 45.132812 -53.257812 46.03125 -52.9375 C 46.613281 -52.195312 46.738281 -51.535156 46.40625 -50.953125 C 46.070312 -50.378906 45.90625 -49.765625 45.90625 -49.109375 C 46.070312 -48.867188 46.21875 -48.539062 46.34375 -48.125 C 46.46875 -47.71875 46.65625 -47.269531 46.90625 -46.78125 C 46.570312 -46.363281 46.21875 -45.929688 45.84375 -45.484375 C 45.476562 -45.035156 45.132812 -44.601562 44.8125 -44.1875 C 42.84375 -43.445312 40.929688 -43.203125 39.078125 -43.453125 C 37.234375 -43.703125 35.613281 -43.578125 34.21875 -43.078125 C 33.238281 -42.835938 32.664062 -42.328125 32.5 -41.546875 C 32.332031 -40.765625 32.289062 -39.960938 32.375 -39.140625 C 32.457031 -37.910156 32.597656 -36.597656 32.796875 -35.203125 C 33.003906 -33.804688 33.023438 -32.453125 32.859375 -31.140625 C 32.785156 -29.660156 32.625 -28.222656 32.375 -26.828125 C 32.125 -25.429688 32.039062 -24 32.125 -22.53125 C 32.207031 -20.5625 32.535156 -18.753906 33.109375 -17.109375 C 33.597656 -15.710938 34.191406 -14.476562 34.890625 -13.40625 C 35.585938 -12.34375 36.675781 -11.566406 38.15625 -11.078125 C 38.894531 -10.828125 39.65625 -10.660156 40.4375 -10.578125 C 41.21875 -10.503906 42.019531 -10.425781 42.84375 -10.34375 C 43.25 -10.34375 43.941406 -10.363281 44.921875 -10.40625 C 45.910156 -10.445312 46.570312 -10.34375 46.90625 -10.09375 C 48.375 -9.03125 49.109375 -7.878906 49.109375 -6.640625 Z M 49.109375 -6.640625 "/></g></g></g><g clip-path="url(#98808a1433)"><g fill="#ffffff" fill-opacity="1"><g transform="translate(336.464055, 95.682397)"><g><path d="M 47.765625 -44.3125 C 48.171875 -38.238281 48.164062 -31.941406 47.75 -25.421875 C 47.34375 -18.898438 47.304688 -12.4375 47.640625 -6.03125 C 45.828125 -2.414062 43.035156 -1.019531 39.265625 -1.84375 C 38.285156 -2.75 37.546875 -3.796875 37.046875 -4.984375 C 36.554688 -6.171875 36.066406 -7.421875 35.578125 -8.734375 C 35.578125 -10.546875 35.578125 -12.394531 35.578125 -14.28125 C 35.578125 -16.164062 35.578125 -18.09375 35.578125 -20.0625 C 35.578125 -22.769531 35.613281 -25.476562 35.6875 -28.1875 C 35.769531 -30.894531 36.429688 -33.398438 37.671875 -35.703125 C 37.097656 -37.828125 36.539062 -39.832031 36 -41.71875 C 35.46875 -43.613281 34.957031 -45.378906 34.46875 -47.015625 C 33.976562 -47.429688 33.546875 -47.757812 33.171875 -48 C 32.804688 -48.25 32.457031 -48.5 32.125 -48.75 C 31.71875 -48.664062 31.304688 -48.625 30.890625 -48.625 C 30.484375 -48.625 30.113281 -48.539062 29.78125 -48.375 C 27.570312 -46.894531 25.726562 -45.128906 24.25 -43.078125 C 22.769531 -41.023438 21.617188 -38.769531 20.796875 -36.3125 C 20.222656 -34.34375 19.484375 -32.375 18.578125 -30.40625 C 17.679688 -28.4375 17.234375 -26.382812 17.234375 -24.25 C 17.234375 -22.28125 16.800781 -20.429688 15.9375 -18.703125 C 15.070312 -16.984375 14.640625 -15.140625 14.640625 -13.171875 C 14.722656 -11.453125 14.703125 -9.769531 14.578125 -8.125 C 14.460938 -6.476562 14.363281 -4.878906 14.28125 -3.328125 C 13.375 -2.171875 12.425781 -1.550781 11.4375 -1.46875 C 10.457031 -1.394531 9.476562 -1.5625 8.5 -1.96875 C 8.25 -2.375 7.976562 -2.738281 7.6875 -3.0625 C 7.40625 -3.394531 7.265625 -3.726562 7.265625 -4.0625 C 7.179688 -7.09375 7.140625 -10.085938 7.140625 -13.046875 C 7.140625 -16.003906 7.140625 -18.957031 7.140625 -21.90625 C 7.054688 -25.769531 7.015625 -29.609375 7.015625 -33.421875 C 7.015625 -37.234375 6.972656 -41.066406 6.890625 -44.921875 C 6.890625 -46.816406 6.867188 -48.726562 6.828125 -50.65625 C 6.785156 -52.582031 6.804688 -54.488281 6.890625 -56.375 C 6.972656 -58.101562 6.953125 -59.804688 6.828125 -61.484375 C 6.703125 -63.171875 6.273438 -64.832031 5.546875 -66.46875 C 5.296875 -66.957031 5.128906 -67.53125 5.046875 -68.1875 C 4.960938 -68.84375 4.878906 -69.5 4.796875 -70.15625 C 4.472656 -73.769531 4.269531 -77.359375 4.1875 -80.921875 C 4.101562 -84.492188 4.265625 -88.003906 4.671875 -91.453125 C 5.660156 -92.765625 6.726562 -93.601562 7.875 -93.96875 C 9.019531 -94.34375 10.210938 -94.613281 11.453125 -94.78125 C 13.253906 -94.125 14.28125 -92.894531 14.53125 -91.09375 C 14.6875 -90.1875 14.765625 -89.320312 14.765625 -88.5 C 14.765625 -87.6875 14.765625 -86.828125 14.765625 -85.921875 C 14.847656 -83.378906 14.867188 -80.832031 14.828125 -78.28125 C 14.785156 -75.738281 15.421875 -73.28125 16.734375 -70.90625 C 16.898438 -68.769531 17.046875 -66.65625 17.171875 -64.5625 C 17.296875 -62.46875 17.398438 -60.351562 17.484375 -58.21875 C 17.484375 -57.15625 17.503906 -56.085938 17.546875 -55.015625 C 17.585938 -53.953125 17.609375 -52.890625 17.609375 -51.828125 C 17.609375 -51.328125 17.75 -51.015625 18.03125 -50.890625 C 18.320312 -50.773438 19.207031 -50.59375 20.6875 -50.34375 C 21.75 -51.820312 22.832031 -53.398438 23.9375 -55.078125 C 25.050781 -56.765625 26.753906 -58.347656 29.046875 -59.828125 C 30.035156 -59.828125 31.039062 -59.828125 32.0625 -59.828125 C 33.09375 -59.828125 34.140625 -59.828125 35.203125 -59.828125 C 36.765625 -59.171875 38.34375 -58.492188 39.9375 -57.796875 C 41.539062 -57.097656 43 -55.925781 44.3125 -54.28125 C 44.800781 -52.96875 45.3125 -51.488281 45.84375 -49.84375 C 46.382812 -48.207031 47.023438 -46.363281 47.765625 -44.3125 Z M 47.765625 -44.3125 "/></g></g></g></g><g fill="#ffffff" fill-opacity="1"><g transform="translate(390.627255, 95.682397)"><g><path d="M 44.6875 -12.921875 C 45.175781 -12.097656 45.601562 -11.234375 45.96875 -10.328125 C 46.34375 -9.429688 46.570312 -8.492188 46.65625 -7.515625 C 44.601562 -5.617188 42.320312 -4.382812 39.8125 -3.8125 C 37.3125 -3.238281 34.832031 -2.625 32.375 -1.96875 C 29.914062 -1.3125 27.554688 -1.453125 25.296875 -2.390625 C 23.035156 -3.335938 20.71875 -4.019531 18.34375 -4.4375 C 16.375 -5.414062 14.628906 -6.722656 13.109375 -8.359375 C 11.585938 -10.003906 10.007812 -11.566406 8.375 -13.046875 C 7.632812 -14.441406 7.035156 -15.628906 6.578125 -16.609375 C 6.128906 -17.597656 5.703125 -18.503906 5.296875 -19.328125 C 5.210938 -19.816406 5.109375 -20.242188 4.984375 -20.609375 C 4.859375 -20.984375 4.796875 -21.375 4.796875 -21.78125 C 4.796875 -24.414062 4.796875 -27.023438 4.796875 -29.609375 C 4.796875 -32.191406 4.796875 -34.753906 4.796875 -37.296875 C 5.617188 -39.753906 6.457031 -42.234375 7.3125 -44.734375 C 8.175781 -47.242188 9.429688 -49.726562 11.078125 -52.1875 C 12.222656 -53.007812 13.535156 -53.953125 15.015625 -55.015625 C 16.492188 -56.085938 18.09375 -57.28125 19.8125 -58.59375 C 21.125 -59 22.582031 -59.445312 24.1875 -59.9375 C 25.789062 -60.4375 27.328125 -60.890625 28.796875 -61.296875 C 31.429688 -60.554688 33.734375 -59.445312 35.703125 -57.96875 C 37.671875 -56.5 39.800781 -55.066406 42.09375 -53.671875 C 42.507812 -52.847656 42.984375 -51.921875 43.515625 -50.890625 C 44.046875 -49.867188 44.597656 -48.867188 45.171875 -47.890625 C 45.171875 -46.816406 45.171875 -45.785156 45.171875 -44.796875 C 45.171875 -43.816406 45.171875 -42.796875 45.171875 -41.734375 C 44.679688 -40.910156 44.1875 -40.046875 43.6875 -39.140625 C 43.195312 -38.242188 42.664062 -37.300781 42.09375 -36.3125 C 40.375 -35.488281 38.609375 -34.601562 36.796875 -33.65625 C 34.992188 -32.71875 33.023438 -31.757812 30.890625 -30.78125 C 29.003906 -30.613281 26.992188 -30.488281 24.859375 -30.40625 C 22.734375 -30.320312 20.4375 -30.195312 17.96875 -30.03125 C 17.226562 -29.707031 16.53125 -29.195312 15.875 -28.5 C 15.21875 -27.800781 14.847656 -26.710938 14.765625 -25.234375 C 15.015625 -24.410156 15.320312 -23.484375 15.6875 -22.453125 C 16.0625 -21.429688 16.410156 -20.390625 16.734375 -19.328125 C 17.640625 -18.097656 18.664062 -17.050781 19.8125 -16.1875 C 20.96875 -15.320312 22.160156 -14.519531 23.390625 -13.78125 C 26.585938 -13.207031 29.742188 -13.039062 32.859375 -13.28125 C 35.984375 -13.53125 39.101562 -14.234375 42.21875 -15.390625 C 42.632812 -14.972656 43.085938 -14.578125 43.578125 -14.203125 C 44.066406 -13.835938 44.4375 -13.410156 44.6875 -12.921875 Z M 16.859375 -41.109375 C 16.703125 -40.785156 16.722656 -40.4375 16.921875 -40.0625 C 17.128906 -39.695312 17.316406 -39.304688 17.484375 -38.890625 C 18.546875 -39.054688 19.628906 -39.257812 20.734375 -39.5 C 21.847656 -39.75 22.976562 -39.914062 24.125 -40 C 25.601562 -40.164062 26.9375 -40.578125 28.125 -41.234375 C 29.3125 -41.890625 30.5625 -42.460938 31.875 -42.953125 C 32.613281 -43.285156 33.144531 -44.046875 33.46875 -45.234375 C 33.800781 -46.421875 33.765625 -47.425781 33.359375 -48.25 C 32.453125 -49.8125 31.363281 -50.941406 30.09375 -51.640625 C 28.820312 -52.335938 27.285156 -52.476562 25.484375 -52.0625 C 23.265625 -50.832031 21.5 -49.253906 20.1875 -47.328125 C 18.875 -45.398438 17.765625 -43.328125 16.859375 -41.109375 Z M 16.859375 -41.109375 "/></g></g></g><g fill="#ffffff" fill-opacity="1"><g transform="translate(441.343729, 95.682397)"><g/></g></g><g fill="#ffffff" fill-opacity="1"><g transform="translate(478.519392, 95.682397)"><g><path d="M 64.015625 -22.28125 C 65.648438 -21.625 67 -20.660156 68.0625 -19.390625 C 69.132812 -18.117188 70.203125 -16.785156 71.265625 -15.390625 C 70.117188 -13.421875 68.703125 -11.78125 67.015625 -10.46875 C 65.335938 -9.15625 63.59375 -7.878906 61.78125 -6.640625 C 59.976562 -5.410156 58.34375 -4.054688 56.875 -2.578125 C 55.632812 -2.335938 54.421875 -2.132812 53.234375 -1.96875 C 52.046875 -1.800781 50.921875 -1.515625 49.859375 -1.109375 C 48.617188 -0.617188 47.425781 -0.3125 46.28125 -0.1875 C 45.132812 -0.0625 43.945312 0 42.71875 0 C 41.5625 0 40.410156 0 39.265625 0 C 38.117188 0 37.050781 0 36.0625 0 C 34.664062 -0.40625 33.375 -0.769531 32.1875 -1.09375 C 31 -1.425781 29.867188 -1.800781 28.796875 -2.21875 C 26.828125 -2.875 24.960938 -3.710938 23.203125 -4.734375 C 21.441406 -5.765625 19.863281 -7.054688 18.46875 -8.609375 C 17.15625 -10.003906 15.878906 -11.359375 14.640625 -12.671875 C 13.410156 -13.984375 12.304688 -15.175781 11.328125 -16.25 C 10.585938 -18.21875 9.867188 -20.019531 9.171875 -21.65625 C 8.472656 -23.300781 7.835938 -24.945312 7.265625 -26.59375 C 6.691406 -27.988281 6.132812 -29.398438 5.59375 -30.828125 C 5.0625 -32.265625 4.550781 -33.679688 4.0625 -35.078125 C 4.0625 -36.472656 4.0625 -37.867188 4.0625 -39.265625 C 4.0625 -40.660156 4.0625 -42.015625 4.0625 -43.328125 C 4.0625 -44.066406 4.082031 -44.785156 4.125 -45.484375 C 4.164062 -46.179688 4.304688 -46.816406 4.546875 -47.390625 C 5.046875 -48.703125 5.394531 -50.035156 5.59375 -51.390625 C 5.800781 -52.742188 6.03125 -54.078125 6.28125 -55.390625 C 6.445312 -56.378906 6.734375 -57.34375 7.140625 -58.28125 C 7.546875 -59.226562 7.914062 -60.191406 8.25 -61.171875 C 8.90625 -63.640625 9.96875 -65.914062 11.4375 -68 C 12.914062 -70.09375 14.4375 -72.164062 16 -74.21875 C 16.738281 -75.125 17.519531 -75.988281 18.34375 -76.8125 C 19.164062 -77.632812 19.945312 -78.414062 20.6875 -79.15625 C 21.582031 -79.644531 22.441406 -80.070312 23.265625 -80.4375 C 24.085938 -80.8125 24.828125 -81.203125 25.484375 -81.609375 C 27.453125 -82.753906 29.519531 -83.53125 31.6875 -83.9375 C 33.863281 -84.351562 36.019531 -84.929688 38.15625 -85.671875 C 39.550781 -86.242188 41.023438 -86.46875 42.578125 -86.34375 C 44.140625 -86.226562 45.703125 -86.171875 47.265625 -86.171875 C 47.597656 -86.171875 47.945312 -86.148438 48.3125 -86.109375 C 48.6875 -86.066406 49.117188 -86.046875 49.609375 -86.046875 C 52.554688 -84.972656 55.40625 -83.613281 58.15625 -81.96875 C 60.90625 -80.332031 63.71875 -78.773438 66.59375 -77.296875 C 67.5 -76.890625 68.300781 -76.273438 69 -75.453125 C 69.695312 -74.628906 70.410156 -73.890625 71.140625 -73.234375 C 70.734375 -72.003906 70.363281 -70.816406 70.03125 -69.671875 C 69.707031 -68.523438 69.34375 -67.414062 68.9375 -66.34375 C 68.6875 -65.601562 67.660156 -64.828125 65.859375 -64.015625 C 64.703125 -64.015625 63.753906 -64.378906 63.015625 -65.109375 C 62.285156 -65.847656 61.507812 -66.46875 60.6875 -66.96875 C 59.613281 -67.539062 58.546875 -68.09375 57.484375 -68.625 C 56.421875 -69.15625 55.351562 -69.707031 54.28125 -70.28125 C 53.457031 -70.78125 52.632812 -71.335938 51.8125 -71.953125 C 51 -72.566406 50.222656 -73.160156 49.484375 -73.734375 C 48.660156 -73.816406 47.898438 -73.898438 47.203125 -73.984375 C 46.503906 -74.066406 45.828125 -74.109375 45.171875 -74.109375 C 43.773438 -74.109375 42.398438 -74.066406 41.046875 -73.984375 C 39.691406 -73.898438 38.359375 -73.816406 37.046875 -73.734375 C 35.410156 -72.992188 33.8125 -72.253906 32.25 -71.515625 C 30.6875 -70.773438 29.003906 -69.992188 27.203125 -69.171875 C 22.523438 -64.492188 19.40625 -59.265625 17.84375 -53.484375 C 16.289062 -47.703125 15.800781 -41.773438 16.375 -35.703125 C 17.269531 -33.316406 18.128906 -31.140625 18.953125 -29.171875 C 19.773438 -27.203125 20.597656 -25.148438 21.421875 -23.015625 C 22.898438 -21.296875 24.085938 -19.921875 24.984375 -18.890625 C 25.890625 -17.867188 26.734375 -17.050781 27.515625 -16.4375 C 28.296875 -15.820312 29.21875 -15.222656 30.28125 -14.640625 C 31.34375 -14.066406 32.78125 -13.375 34.59375 -12.5625 C 39.507812 -11.976562 44.632812 -12.015625 49.96875 -12.671875 C 52.101562 -14.234375 54.257812 -15.8125 56.4375 -17.40625 C 58.613281 -19.007812 60.8125 -20.632812 63.03125 -22.28125 C 63.101562 -22.28125 63.242188 -22.300781 63.453125 -22.34375 C 63.660156 -22.382812 63.847656 -22.363281 64.015625 -22.28125 Z M 64.015625 -22.28125 "/></g></g></g><g fill="#ffffff" fill-opacity="1"><g transform="translate(552.993787, 95.682397)"><g><path d="M 44.0625 -55.640625 C 44.882812 -55.304688 45.582031 -54.832031 46.15625 -54.21875 C 46.726562 -53.601562 47.222656 -52.925781 47.640625 -52.1875 C 47.554688 -50.632812 47.125 -49.238281 46.34375 -48 C 45.5625 -46.769531 44.757812 -45.539062 43.9375 -44.3125 C 42.21875 -44.882812 40.882812 -45.289062 39.9375 -45.53125 C 39 -45.78125 37.953125 -45.863281 36.796875 -45.78125 C 35.648438 -45.707031 33.890625 -45.546875 31.515625 -45.296875 C 29.128906 -44.148438 27.15625 -42.570312 25.59375 -40.5625 C 24.039062 -38.550781 22.441406 -36.679688 20.796875 -34.953125 C 20.554688 -34.460938 20.351562 -34.007812 20.1875 -33.59375 C 20.019531 -33.1875 19.894531 -32.78125 19.8125 -32.375 C 17.519531 -25.8125 16.660156 -19.125 17.234375 -12.3125 C 17.398438 -10.425781 17.460938 -8.515625 17.421875 -6.578125 C 17.378906 -4.648438 17.316406 -2.742188 17.234375 -0.859375 C 17.234375 -0.285156 17.066406 0.265625 16.734375 0.796875 C 16.410156 1.328125 16.125 1.84375 15.875 2.34375 C 14.320312 2.582031 12.804688 2.765625 11.328125 2.890625 C 9.847656 3.015625 8.492188 2.296875 7.265625 0.734375 C 7.179688 -1.234375 7.078125 -3.265625 6.953125 -5.359375 C 6.828125 -7.453125 6.722656 -9.5625 6.640625 -11.6875 C 6.640625 -13 6.472656 -14.269531 6.140625 -15.5 C 5.816406 -16.738281 5.617188 -17.972656 5.546875 -19.203125 C 5.460938 -20.191406 5.644531 -21.195312 6.09375 -22.21875 C 6.539062 -23.238281 6.804688 -24.285156 6.890625 -25.359375 C 7.054688 -28.972656 7.203125 -32.582031 7.328125 -36.1875 C 7.453125 -39.800781 7.390625 -43.410156 7.140625 -47.015625 C 7.054688 -48.085938 7.054688 -49.15625 7.140625 -50.21875 C 7.222656 -51.289062 7.304688 -52.359375 7.390625 -53.421875 C 7.472656 -53.753906 7.65625 -54.082031 7.9375 -54.40625 C 8.226562 -54.738281 8.492188 -55.066406 8.734375 -55.390625 C 9.554688 -55.722656 10.378906 -55.90625 11.203125 -55.9375 C 12.023438 -55.976562 12.804688 -55.753906 13.546875 -55.265625 C 14.441406 -54.691406 15.300781 -54.054688 16.125 -53.359375 C 16.945312 -52.660156 17.804688 -51.984375 18.703125 -51.328125 C 20.597656 -51.492188 22.363281 -52.109375 24 -53.171875 C 25.644531 -54.242188 27.613281 -55.1875 29.90625 -56 C 31.875 -56.082031 34.085938 -56.269531 36.546875 -56.5625 C 39.015625 -56.851562 41.519531 -56.546875 44.0625 -55.640625 Z M 44.0625 -55.640625 "/></g></g></g><g fill="#ffffff" fill-opacity="1"><g transform="translate(602.356145, 95.682397)"><g><path d="M 44.6875 -12.921875 C 45.175781 -12.097656 45.601562 -11.234375 45.96875 -10.328125 C 46.34375 -9.429688 46.570312 -8.492188 46.65625 -7.515625 C 44.601562 -5.617188 42.320312 -4.382812 39.8125 -3.8125 C 37.3125 -3.238281 34.832031 -2.625 32.375 -1.96875 C 29.914062 -1.3125 27.554688 -1.453125 25.296875 -2.390625 C 23.035156 -3.335938 20.71875 -4.019531 18.34375 -4.4375 C 16.375 -5.414062 14.628906 -6.722656 13.109375 -8.359375 C 11.585938 -10.003906 10.007812 -11.566406 8.375 -13.046875 C 7.632812 -14.441406 7.035156 -15.628906 6.578125 -16.609375 C 6.128906 -17.597656 5.703125 -18.503906 5.296875 -19.328125 C 5.210938 -19.816406 5.109375 -20.242188 4.984375 -20.609375 C 4.859375 -20.984375 4.796875 -21.375 4.796875 -21.78125 C 4.796875 -24.414062 4.796875 -27.023438 4.796875 -29.609375 C 4.796875 -32.191406 4.796875 -34.753906 4.796875 -37.296875 C 5.617188 -39.753906 6.457031 -42.234375 7.3125 -44.734375 C 8.175781 -47.242188 9.429688 -49.726562 11.078125 -52.1875 C 12.222656 -53.007812 13.535156 -53.953125 15.015625 -55.015625 C 16.492188 -56.085938 18.09375 -57.28125 19.8125 -58.59375 C 21.125 -59 22.582031 -59.445312 24.1875 -59.9375 C 25.789062 -60.4375 27.328125 -60.890625 28.796875 -61.296875 C 31.429688 -60.554688 33.734375 -59.445312 35.703125 -57.96875 C 37.671875 -56.5 39.800781 -55.066406 42.09375 -53.671875 C 42.507812 -52.847656 42.984375 -51.921875 43.515625 -50.890625 C 44.046875 -49.867188 44.597656 -48.867188 45.171875 -47.890625 C 45.171875 -46.816406 45.171875 -45.785156 45.171875 -44.796875 C 45.171875 -43.816406 45.171875 -42.796875 45.171875 -41.734375 C 44.679688 -40.910156 44.1875 -40.046875 43.6875 -39.140625 C 43.195312 -38.242188 42.664062 -37.300781 42.09375 -36.3125 C 40.375 -35.488281 38.609375 -34.601562 36.796875 -33.65625 C 34.992188 -32.71875 33.023438 -31.757812 30.890625 -30.78125 C 29.003906 -30.613281 26.992188 -30.488281 24.859375 -30.40625 C 22.734375 -30.320312 20.4375 -30.195312 17.96875 -30.03125 C 17.226562 -29.707031 16.53125 -29.195312 15.875 -28.5 C 15.21875 -27.800781 14.847656 -26.710938 14.765625 -25.234375 C 15.015625 -24.410156 15.320312 -23.484375 15.6875 -22.453125 C 16.0625 -21.429688 16.410156 -20.390625 16.734375 -19.328125 C 17.640625 -18.097656 18.664062 -17.050781 19.8125 -16.1875 C 20.96875 -15.320312 22.160156 -14.519531 23.390625 -13.78125 C 26.585938 -13.207031 29.742188 -13.039062 32.859375 -13.28125 C 35.984375 -13.53125 39.101562 -14.234375 42.21875 -15.390625 C 42.632812 -14.972656 43.085938 -14.578125 43.578125 -14.203125 C 44.066406 -13.835938 44.4375 -13.410156 44.6875 -12.921875 Z M 16.859375 -41.109375 C 16.703125 -40.785156 16.722656 -40.4375 16.921875 -40.0625 C 17.128906 -39.695312 17.316406 -39.304688 17.484375 -38.890625 C 18.546875 -39.054688 19.628906 -39.257812 20.734375 -39.5 C 21.847656 -39.75 22.976562 -39.914062 24.125 -40 C 25.601562 -40.164062 26.9375 -40.578125 28.125 -41.234375 C 29.3125 -41.890625 30.5625 -42.460938 31.875 -42.953125 C 32.613281 -43.285156 33.144531 -44.046875 33.46875 -45.234375 C 33.800781 -46.421875 33.765625 -47.425781 33.359375 -48.25 C 32.453125 -49.8125 31.363281 -50.941406 30.09375 -51.640625 C 28.820312 -52.335938 27.285156 -52.476562 25.484375 -52.0625 C 23.265625 -50.832031 21.5 -49.253906 20.1875 -47.328125 C 18.875 -45.398438 17.765625 -43.328125 16.859375 -41.109375 Z M 16.859375 -41.109375 "/></g></g></g><g fill="#ffffff" fill-opacity="1"><g transform="translate(653.072618, 95.682397)"><g><path d="M 50.71875 -7.515625 C 50.800781 -6.859375 50.84375 -6.160156 50.84375 -5.421875 C 50.84375 -4.679688 50.84375 -3.941406 50.84375 -3.203125 C 50.1875 -2.210938 49.425781 -1.410156 48.5625 -0.796875 C 47.695312 -0.179688 46.609375 0 45.296875 -0.25 C 43.734375 -0.988281 42.378906 -1.992188 41.234375 -3.265625 C 40.085938 -4.535156 38.691406 -5.539062 37.046875 -6.28125 C 34.753906 -5.539062 32.5625 -4.472656 30.46875 -3.078125 C 28.375 -1.679688 25.769531 -0.53125 22.65625 0.375 C 22.570312 0.375 22.117188 0.394531 21.296875 0.4375 C 20.472656 0.476562 19.609375 0.457031 18.703125 0.375 C 17.972656 0.375 17.238281 0.3125 16.5 0.1875 C 15.757812 0.0625 15.101562 0 14.53125 0 C 11.820312 -1.476562 9.582031 -3.363281 7.8125 -5.65625 C 6.050781 -7.957031 4.675781 -11.035156 3.6875 -14.890625 C 3.6875 -14.972656 3.644531 -15.484375 3.5625 -16.421875 C 3.488281 -17.367188 3.410156 -18.378906 3.328125 -19.453125 C 4.472656 -21.828125 5.554688 -23.957031 6.578125 -25.84375 C 7.609375 -27.738281 9.109375 -29.175781 11.078125 -30.15625 C 11.566406 -30.070312 12.078125 -29.988281 12.609375 -29.90625 C 13.148438 -29.820312 13.664062 -29.742188 14.15625 -29.671875 C 15.144531 -30.484375 16.109375 -31.320312 17.046875 -32.1875 C 17.992188 -33.050781 18.914062 -33.894531 19.8125 -34.71875 C 22.195312 -35.039062 24.515625 -35.285156 26.765625 -35.453125 C 29.023438 -35.617188 31.347656 -35.578125 33.734375 -35.328125 C 34.628906 -36.148438 35.613281 -37.007812 36.6875 -37.90625 C 36.601562 -39.300781 36.109375 -40.367188 35.203125 -41.109375 C 34.296875 -41.847656 33.597656 -42.710938 33.109375 -43.703125 C 33.023438 -44.109375 32.941406 -44.472656 32.859375 -44.796875 C 32.785156 -45.128906 32.707031 -45.5 32.625 -45.90625 C 32.457031 -46.8125 32.085938 -47.507812 31.515625 -48 C 30.941406 -48.5 30.363281 -48.625 29.78125 -48.375 C 28.71875 -47.96875 27.648438 -47.597656 26.578125 -47.265625 C 25.515625 -46.941406 24.410156 -46.820312 23.265625 -46.90625 C 21.867188 -47.0625 20.578125 -46.914062 19.390625 -46.46875 C 18.203125 -46.019531 17.03125 -45.503906 15.875 -44.921875 C 15.632812 -44.765625 15.304688 -44.765625 14.890625 -44.921875 C 14.484375 -45.085938 14.035156 -45.171875 13.546875 -45.171875 C 13.128906 -45.910156 12.695312 -46.691406 12.25 -47.515625 C 11.800781 -48.335938 11.328125 -49.117188 10.828125 -49.859375 C 11.898438 -52.234375 13.441406 -53.867188 15.453125 -54.765625 C 17.460938 -55.671875 19.492188 -56.535156 21.546875 -57.359375 C 22.609375 -57.441406 23.691406 -57.484375 24.796875 -57.484375 C 25.910156 -57.484375 27.039062 -57.28125 28.1875 -56.875 C 29.007812 -56.539062 29.867188 -56.226562 30.765625 -55.9375 C 31.671875 -55.65625 32.660156 -55.3125 33.734375 -54.90625 C 35.617188 -53.914062 37.296875 -52.597656 38.765625 -50.953125 C 40.242188 -49.316406 41.640625 -47.632812 42.953125 -45.90625 C 43.609375 -44.519531 44.019531 -43.085938 44.1875 -41.609375 C 44.351562 -40.128906 44.394531 -38.609375 44.3125 -37.046875 C 44.0625 -33.359375 43.976562 -29.664062 44.0625 -25.96875 C 44.144531 -22.28125 44.226562 -18.671875 44.3125 -15.140625 C 44.800781 -13.660156 45.578125 -12.53125 46.640625 -11.75 C 47.710938 -10.976562 48.785156 -10.222656 49.859375 -9.484375 C 50.015625 -9.148438 50.195312 -8.835938 50.40625 -8.546875 C 50.613281 -8.265625 50.71875 -7.921875 50.71875 -7.515625 Z M 32.984375 -20.0625 C 33.066406 -21.050781 33.066406 -22.015625 32.984375 -22.953125 C 32.898438 -23.898438 32.53125 -24.90625 31.875 -25.96875 C 31.550781 -26.21875 31.117188 -26.566406 30.578125 -27.015625 C 30.046875 -27.472656 29.453125 -27.90625 28.796875 -28.3125 C 27.160156 -27.820312 25.5625 -27.347656 24 -26.890625 C 22.445312 -26.441406 20.847656 -26.015625 19.203125 -25.609375 C 18.460938 -24.703125 17.679688 -23.859375 16.859375 -23.078125 C 16.046875 -22.296875 15.304688 -21.5 14.640625 -20.6875 C 14.148438 -20.101562 13.738281 -19.484375 13.40625 -18.828125 C 13.082031 -18.171875 12.960938 -17.4375 13.046875 -16.625 C 13.785156 -15.226562 14.503906 -13.75 15.203125 -12.1875 C 15.898438 -10.625 17.394531 -9.554688 19.6875 -8.984375 C 21.582031 -9.640625 23.390625 -10.398438 25.109375 -11.265625 C 26.835938 -12.128906 28.519531 -13.21875 30.15625 -14.53125 C 30.40625 -15.425781 30.898438 -16.285156 31.640625 -17.109375 C 32.378906 -17.929688 32.828125 -18.914062 32.984375 -20.0625 Z M 32.984375 -20.0625 "/></g></g></g><g fill="#ffffff" fill-opacity="1"><g transform="translate(706.989603, 95.682397)"><g><path d="M 49.109375 -6.640625 C 49.191406 -5.660156 49.109375 -4.882812 48.859375 -4.3125 C 48.617188 -3.738281 47.882812 -2.585938 46.65625 -0.859375 C 44.601562 -0.203125 42.550781 0.0820312 40.5 0 C 38.445312 -0.0820312 36.394531 -0.164062 34.34375 -0.25 C 32.289062 -1.394531 30.6875 -2.359375 29.53125 -3.140625 C 28.382812 -3.921875 27.421875 -4.78125 26.640625 -5.71875 C 25.867188 -6.664062 25.113281 -7.9375 24.375 -9.53125 C 23.632812 -11.132812 22.691406 -13.332031 21.546875 -16.125 C 21.546875 -17.769531 21.523438 -19.515625 21.484375 -21.359375 C 21.441406 -23.203125 21.421875 -25.066406 21.421875 -26.953125 C 21.421875 -28.109375 21.398438 -29.238281 21.359375 -30.34375 C 21.316406 -31.445312 21.296875 -32.535156 21.296875 -33.609375 C 21.378906 -34.671875 21.421875 -35.773438 21.421875 -36.921875 C 21.421875 -38.078125 21.175781 -39.144531 20.6875 -40.125 C 20.1875 -41.195312 19.585938 -41.753906 18.890625 -41.796875 C 18.191406 -41.835938 17.351562 -41.859375 16.375 -41.859375 C 15.550781 -41.859375 14.726562 -42 13.90625 -42.28125 C 13.082031 -42.570312 12.265625 -42.757812 11.453125 -42.84375 C 10.378906 -42.914062 9.289062 -42.890625 8.1875 -42.765625 C 7.082031 -42.648438 5.910156 -42.960938 4.671875 -43.703125 C 4.265625 -43.941406 3.832031 -44.390625 3.375 -45.046875 C 2.925781 -45.703125 2.5 -46.28125 2.09375 -46.78125 C 1.84375 -48.25 2.023438 -49.394531 2.640625 -50.21875 C 3.253906 -51.039062 4.097656 -51.78125 5.171875 -52.4375 C 7.054688 -53.257812 9.066406 -53.503906 11.203125 -53.171875 C 13.335938 -52.847656 15.429688 -53.015625 17.484375 -53.671875 C 17.722656 -53.992188 18.003906 -54.316406 18.328125 -54.640625 C 18.660156 -54.972656 18.867188 -55.304688 18.953125 -55.640625 C 19.117188 -56.953125 19.179688 -58.222656 19.140625 -59.453125 C 19.097656 -60.679688 18.789062 -61.910156 18.21875 -63.140625 C 17.476562 -64.953125 17.066406 -66.800781 16.984375 -68.6875 C 16.898438 -70.570312 16.898438 -72.414062 16.984375 -74.21875 C 18.296875 -75.613281 19.671875 -76.289062 21.109375 -76.25 C 22.546875 -76.207031 24.003906 -76.109375 25.484375 -75.953125 C 26.546875 -75.128906 27.28125 -74.101562 27.6875 -72.875 C 28.101562 -71.644531 28.640625 -70.410156 29.296875 -69.171875 C 29.378906 -67.367188 29.441406 -65.523438 29.484375 -63.640625 C 29.523438 -61.753906 29.585938 -59.945312 29.671875 -58.21875 C 30.078125 -56.90625 30.691406 -55.921875 31.515625 -55.265625 C 32.335938 -54.609375 33.320312 -54.160156 34.46875 -53.921875 C 35.363281 -54.078125 36.320312 -54.296875 37.34375 -54.578125 C 38.375 -54.867188 39.425781 -55.140625 40.5 -55.390625 C 41.40625 -54.984375 42.328125 -54.550781 43.265625 -54.09375 C 44.210938 -53.644531 45.132812 -53.257812 46.03125 -52.9375 C 46.613281 -52.195312 46.738281 -51.535156 46.40625 -50.953125 C 46.070312 -50.378906 45.90625 -49.765625 45.90625 -49.109375 C 46.070312 -48.867188 46.21875 -48.539062 46.34375 -48.125 C 46.46875 -47.71875 46.65625 -47.269531 46.90625 -46.78125 C 46.570312 -46.363281 46.21875 -45.929688 45.84375 -45.484375 C 45.476562 -45.035156 45.132812 -44.601562 44.8125 -44.1875 C 42.84375 -43.445312 40.929688 -43.203125 39.078125 -43.453125 C 37.234375 -43.703125 35.613281 -43.578125 34.21875 -43.078125 C 33.238281 -42.835938 32.664062 -42.328125 32.5 -41.546875 C 32.332031 -40.765625 32.289062 -39.960938 32.375 -39.140625 C 32.457031 -37.910156 32.597656 -36.597656 32.796875 -35.203125 C 33.003906 -33.804688 33.023438 -32.453125 32.859375 -31.140625 C 32.785156 -29.660156 32.625 -28.222656 32.375 -26.828125 C 32.125 -25.429688 32.039062 -24 32.125 -22.53125 C 32.207031 -20.5625 32.535156 -18.753906 33.109375 -17.109375 C 33.597656 -15.710938 34.191406 -14.476562 34.890625 -13.40625 C 35.585938 -12.34375 36.675781 -11.566406 38.15625 -11.078125 C 38.894531 -10.828125 39.65625 -10.660156 40.4375 -10.578125 C 41.21875 -10.503906 42.019531 -10.425781 42.84375 -10.34375 C 43.25 -10.34375 43.941406 -10.363281 44.921875 -10.40625 C 45.910156 -10.445312 46.570312 -10.34375 46.90625 -10.09375 C 48.375 -9.03125 49.109375 -7.878906 49.109375 -6.640625 Z M 49.109375 -6.640625 "/></g></g></g><g fill="#ffffff" fill-opacity="1"><g transform="translate(759.429478, 95.682397)"><g><path d="M 46.40625 -38.40625 C 46.894531 -37.257812 47.222656 -36.085938 47.390625 -34.890625 C 47.554688 -33.703125 47.640625 -32.492188 47.640625 -31.265625 C 47.640625 -29.867188 47.617188 -28.492188 47.578125 -27.140625 C 47.535156 -25.785156 47.515625 -24.535156 47.515625 -23.390625 C 46.035156 -19.773438 44.390625 -16.347656 42.578125 -13.109375 C 40.773438 -9.867188 38.15625 -6.9375 34.71875 -4.3125 C 34.0625 -3.976562 33.238281 -3.585938 32.25 -3.140625 C 31.269531 -2.691406 30.285156 -2.21875 29.296875 -1.71875 C 27.648438 -1.5625 26.007812 -1.769531 24.375 -2.34375 C 20.757812 -3.65625 17.722656 -5.582031 15.265625 -8.125 C 12.804688 -10.664062 10.835938 -13.660156 9.359375 -17.109375 C 8.535156 -19.160156 7.753906 -21.234375 7.015625 -23.328125 C 6.273438 -25.421875 5.578125 -27.535156 4.921875 -29.671875 C 4.429688 -31.066406 4.1875 -32.664062 4.1875 -34.46875 C 4.1875 -35.863281 4.226562 -37.238281 4.3125 -38.59375 C 4.394531 -39.945312 4.472656 -41.238281 4.546875 -42.46875 C 5.210938 -44.601562 5.992188 -46.550781 6.890625 -48.3125 C 7.796875 -50.070312 8.738281 -51.648438 9.71875 -53.046875 C 10.875 -54.035156 11.941406 -54.921875 12.921875 -55.703125 C 13.910156 -56.484375 14.851562 -57.242188 15.75 -57.984375 C 16.488281 -58.640625 17.25 -59.296875 18.03125 -59.953125 C 18.8125 -60.609375 19.695312 -61.097656 20.6875 -61.421875 C 25.6875 -60.597656 30.195312 -58.992188 34.21875 -56.609375 C 38.238281 -54.234375 41.6875 -50.75 44.5625 -46.15625 C 44.800781 -45.007812 45.046875 -43.757812 45.296875 -42.40625 C 45.546875 -41.050781 45.914062 -39.71875 46.40625 -38.40625 Z M 35.453125 -21.171875 C 35.941406 -22.484375 36.390625 -23.796875 36.796875 -25.109375 C 37.210938 -26.421875 37.582031 -27.691406 37.90625 -28.921875 C 37.988281 -31.304688 37.578125 -33.523438 36.671875 -35.578125 C 35.773438 -37.628906 35.242188 -39.679688 35.078125 -41.734375 C 32.785156 -45.015625 30.035156 -47.515625 26.828125 -49.234375 C 26.421875 -49.316406 26.03125 -49.398438 25.65625 -49.484375 C 25.289062 -49.566406 24.90625 -49.648438 24.5 -49.734375 C 20.800781 -50.304688 18.132812 -49.03125 16.5 -45.90625 C 16.164062 -44.019531 15.832031 -42.195312 15.5 -40.4375 C 15.175781 -38.675781 14.8125 -36.929688 14.40625 -35.203125 C 14.976562 -33.066406 15.734375 -30.992188 16.671875 -28.984375 C 17.617188 -26.972656 18.335938 -24.898438 18.828125 -22.765625 C 19.078125 -21.617188 19.53125 -20.507812 20.1875 -19.4375 C 20.84375 -18.375 21.5 -17.351562 22.15625 -16.375 C 22.488281 -15.882812 22.898438 -15.453125 23.390625 -15.078125 C 23.878906 -14.710938 24.367188 -14.363281 24.859375 -14.03125 C 25.679688 -13.539062 26.664062 -13.335938 27.8125 -13.421875 C 28.96875 -13.503906 29.875 -13.832031 30.53125 -14.40625 C 31.59375 -15.382812 32.570312 -16.40625 33.46875 -17.46875 C 34.375 -18.539062 35.035156 -19.773438 35.453125 -21.171875 Z M 35.453125 -21.171875 "/></g></g></g><g fill="#ffffff" fill-opacity="1"><g transform="translate(811.376919, 95.682397)"><g><path d="M 44.0625 -55.640625 C 44.882812 -55.304688 45.582031 -54.832031 46.15625 -54.21875 C 46.726562 -53.601562 47.222656 -52.925781 47.640625 -52.1875 C 47.554688 -50.632812 47.125 -49.238281 46.34375 -48 C 45.5625 -46.769531 44.757812 -45.539062 43.9375 -44.3125 C 42.21875 -44.882812 40.882812 -45.289062 39.9375 -45.53125 C 39 -45.78125 37.953125 -45.863281 36.796875 -45.78125 C 35.648438 -45.707031 33.890625 -45.546875 31.515625 -45.296875 C 29.128906 -44.148438 27.15625 -42.570312 25.59375 -40.5625 C 24.039062 -38.550781 22.441406 -36.679688 20.796875 -34.953125 C 20.554688 -34.460938 20.351562 -34.007812 20.1875 -33.59375 C 20.019531 -33.1875 19.894531 -32.78125 19.8125 -32.375 C 17.519531 -25.8125 16.660156 -19.125 17.234375 -12.3125 C 17.398438 -10.425781 17.460938 -8.515625 17.421875 -6.578125 C 17.378906 -4.648438 17.316406 -2.742188 17.234375 -0.859375 C 17.234375 -0.285156 17.066406 0.265625 16.734375 0.796875 C 16.410156 1.328125 16.125 1.84375 15.875 2.34375 C 14.320312 2.582031 12.804688 2.765625 11.328125 2.890625 C 9.847656 3.015625 8.492188 2.296875 7.265625 0.734375 C 7.179688 -1.234375 7.078125 -3.265625 6.953125 -5.359375 C 6.828125 -7.453125 6.722656 -9.5625 6.640625 -11.6875 C 6.640625 -13 6.472656 -14.269531 6.140625 -15.5 C 5.816406 -16.738281 5.617188 -17.972656 5.546875 -19.203125 C 5.460938 -20.191406 5.644531 -21.195312 6.09375 -22.21875 C 6.539062 -23.238281 6.804688 -24.285156 6.890625 -25.359375 C 7.054688 -28.972656 7.203125 -32.582031 7.328125 -36.1875 C 7.453125 -39.800781 7.390625 -43.410156 7.140625 -47.015625 C 7.054688 -48.085938 7.054688 -49.15625 7.140625 -50.21875 C 7.222656 -51.289062 7.304688 -52.359375 7.390625 -53.421875 C 7.472656 -53.753906 7.65625 -54.082031 7.9375 -54.40625 C 8.226562 -54.738281 8.492188 -55.066406 8.734375 -55.390625 C 9.554688 -55.722656 10.378906 -55.90625 11.203125 -55.9375 C 12.023438 -55.976562 12.804688 -55.753906 13.546875 -55.265625 C 14.441406 -54.691406 15.300781 -54.054688 16.125 -53.359375 C 16.945312 -52.660156 17.804688 -51.984375 18.703125 -51.328125 C 20.597656 -51.492188 22.363281 -52.109375 24 -53.171875 C 25.644531 -54.242188 27.613281 -55.1875 29.90625 -56 C 31.875 -56.082031 34.085938 -56.269531 36.546875 -56.5625 C 39.015625 -56.851562 41.519531 -56.546875 44.0625 -55.640625 Z M 44.0625 -55.640625 "/></g></g></g></g></g></svg>