<svg xmlns="http://www.w3.org/2000/svg" xmlns:xlink="http://www.w3.org/1999/xlink" width="1920" zoomAndPan="magnify" viewBox="0 0 1440 809.999993" height="1080" preserveAspectRatio="xMidYMid meet" version="1.0"><defs><g/><clipPath id="9505cd7ee9"><path d="M 270.046875 271.621094 L 1339 271.621094 L 1339 493.066406 L 270.046875 493.066406 Z M 270.046875 271.621094 " clip-rule="nonzero"/></clipPath><clipPath id="4fe6e3290a"><path d="M 345.046875 271.621094 L 1263.6875 271.621094 C 1305.109375 271.621094 1338.6875 305.199219 1338.6875 346.621094 L 1338.6875 418.066406 C 1338.6875 459.488281 1305.109375 493.066406 1263.6875 493.066406 L 345.046875 493.066406 C 303.625 493.066406 270.046875 459.488281 270.046875 418.066406 L 270.046875 346.621094 C 270.046875 305.199219 303.625 271.621094 345.046875 271.621094 Z M 345.046875 271.621094 " clip-rule="nonzero"/></clipPath><clipPath id="71f49de146"><path d="M 0.046875 0.621094 L 1068.71875 0.621094 L 1068.71875 222.066406 L 0.046875 222.066406 Z M 0.046875 0.621094 " clip-rule="nonzero"/></clipPath><clipPath id="0f962c0ef6"><path d="M 75.046875 0.621094 L 993.6875 0.621094 C 1035.109375 0.621094 1068.6875 34.199219 1068.6875 75.621094 L 1068.6875 147.066406 C 1068.6875 188.488281 1035.109375 222.066406 993.6875 222.066406 L 75.046875 222.066406 C 33.625 222.066406 0.046875 188.488281 0.046875 147.066406 L 0.046875 75.621094 C 0.046875 34.199219 33.625 0.621094 75.046875 0.621094 Z M 75.046875 0.621094 " clip-rule="nonzero"/></clipPath><clipPath id="3b11e726d2"><rect x="0" width="1069" y="0" height="223"/></clipPath><clipPath id="01f9d17a34"><path d="M 81 289 L 331.5 289 L 331.5 507 L 81 507 Z M 81 289 " clip-rule="nonzero"/></clipPath><clipPath id="85e1fa9375"><path d="M 185 257.105469 L 226 257.105469 L 226 300 L 185 300 Z M 185 257.105469 " clip-rule="nonzero"/></clipPath><clipPath id="764d15a58d"><rect x="0" width="791" y="0" height="129"/></clipPath></defs><g clip-path="url(#9505cd7ee9)"><g clip-path="url(#4fe6e3290a)"><g transform="matrix(1, 0, 0, 1, 270, 271)"><g clip-path="url(#3b11e726d2)"><g clip-path="url(#71f49de146)"><g clip-path="url(#0f962c0ef6)"><path fill="#1b353e" d="M 0.046875 0.621094 L 1068.359375 0.621094 L 1068.359375 222.066406 L 0.046875 222.066406 Z M 0.046875 0.621094 " fill-opacity="1" fill-rule="nonzero"/></g></g></g></g></g></g><g clip-path="url(#01f9d17a34)"><path fill="#f4900c" d="M 308.253906 315.679688 C 285.296875 292.128906 243.941406 289.457031 206.230469 289.457031 C 168.523438 289.457031 127.167969 292.128906 104.210938 315.679688 C 85.050781 335.335938 81 365.996094 81 394.105469 C 81 430.722656 94.789062 472.800781 125.226562 493.203125 C 146.148438 507.230469 178.054688 505.980469 206.230469 505.980469 C 234.410156 505.980469 266.316406 507.230469 287.238281 493.203125 C 317.675781 472.792969 331.464844 430.722656 331.464844 394.105469 C 331.464844 365.996094 327.414062 335.335938 308.253906 315.679688 Z M 308.253906 315.679688 " fill-opacity="1" fill-rule="nonzero"/></g><g clip-path="url(#85e1fa9375)"><path fill="#d7d26d" d="M 225.59375 294.289062 C 226.074219 297.210938 224.050781 299.601562 221.09375 299.601562 L 190.125 299.601562 C 187.164062 299.601562 185.136719 297.210938 185.625 294.289062 L 190.808594 263.175781 C 191.296875 260.246094 194.121094 257.859375 197.082031 257.859375 L 214.136719 257.859375 C 217.101562 257.859375 219.925781 260.25 220.40625 263.175781 Z M 225.59375 294.289062 " fill-opacity="1" fill-rule="nonzero"/></g><path fill="#642116" d="M 224.695312 403.621094 L 213.578125 385.5625 C 211.554688 381.789062 208.898438 379.90625 206.226562 379.875 C 203.5625 379.90625 200.894531 381.789062 198.871094 385.5625 L 187.753906 403.621094 C 183.667969 411.226562 193.828125 415.5625 206.21875 415.5625 C 218.609375 415.5625 228.78125 411.21875 224.695312 403.621094 Z M 290.847656 425.828125 C 290.535156 425.308594 289.972656 424.988281 289.359375 424.988281 L 283.507812 424.988281 C 283.035156 424.988281 282.574219 425.183594 282.25 425.523438 L 266.726562 441.761719 L 247.957031 426.671875 C 247.601562 426.386719 247.140625 426.269531 246.667969 426.304688 C 246.210938 426.351562 245.785156 426.589844 245.5 426.957031 L 228.746094 448.261719 L 207.5 425.539062 C 207.410156 425.441406 207.269531 425.417969 207.164062 425.34375 C 207.058594 425.273438 206.992188 425.15625 206.867188 425.105469 C 206.824219 425.09375 206.773438 425.105469 206.734375 425.09375 C 206.566406 425.042969 206.40625 425.058594 206.230469 425.058594 C 206.058594 425.058594 205.898438 425.042969 205.730469 425.097656 C 205.691406 425.113281 205.640625 425.09375 205.59375 425.113281 C 205.46875 425.160156 205.40625 425.28125 205.292969 425.351562 C 205.183594 425.417969 205.050781 425.441406 204.960938 425.539062 L 183.71875 448.261719 L 166.957031 426.957031 C 166.671875 426.589844 166.25 426.351562 165.789062 426.304688 C 165.332031 426.261719 164.863281 426.386719 164.503906 426.671875 L 145.730469 441.761719 L 130.214844 425.523438 C 129.890625 425.183594 129.4375 424.988281 128.957031 424.988281 L 123.105469 424.988281 C 122.5 424.988281 121.929688 425.308594 121.617188 425.828125 C 121.304688 426.351562 121.28125 427 121.566406 427.535156 L 140.730469 463.84375 C 140.964844 464.289062 141.375 464.609375 141.871094 464.726562 C 142.363281 464.847656 142.878906 464.742188 143.28125 464.449219 L 157.433594 454.304688 L 178.332031 479.582031 C 178.632812 479.953125 179.070312 480.171875 179.542969 480.207031 L 179.675781 480.214844 C 180.109375 480.214844 180.519531 480.0625 180.839844 479.777344 L 206.230469 457.035156 L 231.625 479.769531 C 231.945312 480.054688 232.355469 480.207031 232.789062 480.207031 L 232.921875 480.203125 C 233.394531 480.167969 233.832031 479.945312 234.132812 479.574219 L 255.039062 454.300781 L 269.191406 464.441406 C 269.605469 464.742188 270.113281 464.859375 270.601562 464.722656 C 271.089844 464.601562 271.507812 464.289062 271.734375 463.84375 L 290.902344 427.535156 C 291.183594 427 291.167969 426.351562 290.847656 425.828125 Z M 275.640625 363.699219 C 276.535156 378.5 270.183594 390.179688 253.339844 391.203125 C 236.503906 392.21875 228.789062 381.386719 227.890625 366.59375 C 226.992188 351.804688 236.460938 330.972656 249.644531 330.179688 C 262.835938 329.375 274.75 348.902344 275.640625 363.699219 Z M 136.824219 363.699219 C 135.929688 378.5 142.28125 390.179688 159.125 391.203125 C 175.960938 392.21875 183.675781 381.386719 184.574219 366.59375 C 185.472656 351.804688 176.003906 330.972656 162.820312 330.179688 C 149.632812 329.386719 137.714844 348.902344 136.824219 363.699219 Z M 136.824219 363.699219 " fill-opacity="1" fill-rule="nonzero"/><g transform="matrix(1, 0, 0, 1, 392, 323)"><g clip-path="url(#764d15a58d)"><g fill="#ffffff" fill-opacity="1"><g transform="translate(1.021402, 92.682397)"><g><path d="M 47.765625 -46.15625 C 50.222656 -43.125 52.109375 -40.804688 53.421875 -39.203125 C 54.734375 -37.609375 55.738281 -36.234375 56.4375 -35.078125 C 57.132812 -33.929688 57.769531 -32.535156 58.34375 -30.890625 C 58.914062 -29.253906 59.65625 -26.914062 60.5625 -23.875 C 60.15625 -22.320312 59.765625 -20.703125 59.390625 -19.015625 C 59.023438 -17.335938 58.59375 -15.472656 58.09375 -13.421875 C 57.9375 -13.253906 57.671875 -12.90625 57.296875 -12.375 C 56.929688 -11.84375 56.539062 -11.328125 56.125 -10.828125 C 55.550781 -10.171875 54.976562 -9.535156 54.40625 -8.921875 C 53.832031 -8.304688 53.300781 -7.710938 52.8125 -7.140625 C 51.90625 -6.734375 51.0625 -6.363281 50.28125 -6.03125 C 49.5 -5.707031 48.78125 -5.296875 48.125 -4.796875 C 46.320312 -3.648438 44.4375 -2.828125 42.46875 -2.328125 C 40.5 -1.835938 38.570312 -1.1875 36.6875 -0.375 C 36.269531 -0.125 35.773438 0 35.203125 0 C 34.628906 0 34.140625 -0.0820312 33.734375 -0.25 C 32.335938 -1.070312 30.859375 -1.519531 29.296875 -1.59375 C 27.734375 -1.675781 26.253906 -2.003906 24.859375 -2.578125 C 22.804688 -3.316406 20.734375 -4.015625 18.640625 -4.671875 C 16.554688 -5.328125 14.566406 -6.273438 12.671875 -7.515625 C 11.523438 -8.242188 10.316406 -8.875 9.046875 -9.40625 C 7.773438 -9.945312 6.523438 -10.546875 5.296875 -11.203125 C 4.960938 -11.523438 4.648438 -11.890625 4.359375 -12.296875 C 4.078125 -12.710938 3.8125 -13.128906 3.5625 -13.546875 C 3.5625 -14.117188 3.5625 -14.648438 3.5625 -15.140625 C 3.5625 -15.628906 3.5625 -16.125 3.5625 -16.625 C 3.894531 -17.601562 4.285156 -18.5625 4.734375 -19.5 C 5.191406 -20.445312 5.75 -21.289062 6.40625 -22.03125 C 6.726562 -22.113281 7.070312 -22.195312 7.4375 -22.28125 C 7.8125 -22.363281 8.203125 -22.445312 8.609375 -22.53125 C 9.429688 -22.195312 10.332031 -21.84375 11.3125 -21.46875 C 12.300781 -21.101562 13.164062 -20.632812 13.90625 -20.0625 C 15.632812 -18.5 17.5625 -17.410156 19.6875 -16.796875 C 21.820312 -16.179688 23.875 -15.425781 25.84375 -14.53125 C 26.914062 -14.03125 28.046875 -13.59375 29.234375 -13.21875 C 30.421875 -12.851562 31.59375 -12.46875 32.75 -12.0625 C 33.726562 -12.0625 34.707031 -12.0625 35.6875 -12.0625 C 36.675781 -12.0625 37.664062 -12.0625 38.65625 -12.0625 C 40.207031 -13.125 41.863281 -14.003906 43.625 -14.703125 C 45.394531 -15.398438 46.976562 -16.445312 48.375 -17.84375 C 48.457031 -18.914062 48.519531 -19.960938 48.5625 -20.984375 C 48.601562 -22.015625 48.664062 -23.0625 48.75 -24.125 C 47.925781 -25.769531 47.082031 -27.429688 46.21875 -29.109375 C 45.351562 -30.796875 44.472656 -32.582031 43.578125 -34.46875 C 41.847656 -35.945312 39.9375 -37.175781 37.84375 -38.15625 C 35.757812 -39.144531 33.566406 -40.007812 31.265625 -40.75 C 29.617188 -41.238281 28.015625 -41.789062 26.453125 -42.40625 C 24.898438 -43.019531 23.304688 -43.65625 21.671875 -44.3125 C 19.617188 -45.132812 17.75 -46.222656 16.0625 -47.578125 C 14.382812 -48.929688 12.925781 -50.632812 11.6875 -52.6875 C 11.113281 -53.664062 10.5 -54.664062 9.84375 -55.6875 C 9.1875 -56.71875 8.488281 -57.8125 7.75 -58.96875 C 7.34375 -60.6875 7.160156 -62.445312 7.203125 -64.25 C 7.242188 -66.0625 7.347656 -67.867188 7.515625 -69.671875 C 7.835938 -70.492188 8.179688 -71.3125 8.546875 -72.125 C 8.921875 -72.945312 9.3125 -73.851562 9.71875 -74.84375 C 10.050781 -75.164062 10.421875 -75.570312 10.828125 -76.0625 C 11.242188 -76.5625 11.695312 -77.097656 12.1875 -77.671875 C 14.320312 -80.046875 16.863281 -81.644531 19.8125 -82.46875 C 20.800781 -82.71875 21.765625 -83.046875 22.703125 -83.453125 C 23.648438 -83.867188 24.617188 -84.195312 25.609375 -84.4375 C 26.421875 -84.601562 27.238281 -84.847656 28.0625 -85.171875 C 28.882812 -85.503906 29.75 -85.835938 30.65625 -86.171875 C 33.9375 -86.003906 37.132812 -85.878906 40.25 -85.796875 C 41.15625 -85.390625 41.832031 -84.835938 42.28125 -84.140625 C 42.726562 -83.441406 43.15625 -82.742188 43.5625 -82.046875 C 43.976562 -81.347656 44.597656 -80.914062 45.421875 -80.75 C 45.910156 -81 46.359375 -81.242188 46.765625 -81.484375 C 47.179688 -81.734375 47.59375 -81.941406 48 -82.109375 C 49.070312 -81.941406 50.222656 -81.773438 51.453125 -81.609375 C 51.859375 -81.203125 52.285156 -80.769531 52.734375 -80.3125 C 53.191406 -79.863281 53.625 -79.351562 54.03125 -78.78125 C 54.195312 -78.53125 54.320312 -78.203125 54.40625 -77.796875 C 54.488281 -77.390625 54.445312 -77.101562 54.28125 -76.9375 C 53.457031 -75.945312 52.800781 -74.773438 52.3125 -73.421875 C 51.820312 -72.066406 50.878906 -71.019531 49.484375 -70.28125 C 48.335938 -70.851562 47.1875 -71.425781 46.03125 -72 C 44.882812 -72.582031 43.695312 -73.160156 42.46875 -73.734375 C 40.988281 -73.898438 39.445312 -74.082031 37.84375 -74.28125 C 36.25 -74.488281 34.46875 -74.675781 32.5 -74.84375 C 31.269531 -74.59375 29.894531 -74.203125 28.375 -73.671875 C 26.851562 -73.140625 25.351562 -72.503906 23.875 -71.765625 C 23.21875 -71.429688 22.601562 -71.097656 22.03125 -70.765625 C 21.457031 -70.441406 20.925781 -70.035156 20.4375 -69.546875 C 19.445312 -68.566406 18.707031 -67.457031 18.21875 -66.21875 C 18.050781 -65.8125 17.988281 -65.320312 18.03125 -64.75 C 18.070312 -64.175781 18.09375 -63.519531 18.09375 -62.78125 C 18.914062 -61.707031 19.796875 -60.578125 20.734375 -59.390625 C 21.679688 -58.203125 22.648438 -56.953125 23.640625 -55.640625 C 23.472656 -55.222656 23.328125 -54.789062 23.203125 -54.34375 C 23.078125 -53.894531 22.894531 -53.460938 22.65625 -53.046875 C 21.832031 -51.734375 21.539062 -50.460938 21.78125 -49.234375 C 21.945312 -48.492188 22.359375 -48.082031 23.015625 -48 C 24.242188 -48.582031 25.164062 -49.054688 25.78125 -49.421875 C 26.40625 -49.785156 26.921875 -50.210938 27.328125 -50.703125 C 27.734375 -51.203125 28.347656 -51.984375 29.171875 -53.046875 C 29.503906 -53.046875 29.832031 -53.066406 30.15625 -53.109375 C 30.488281 -53.148438 30.816406 -53.128906 31.140625 -53.046875 C 32.128906 -52.722656 33.09375 -52.394531 34.03125 -52.0625 C 34.976562 -51.738281 35.941406 -51.367188 36.921875 -50.953125 C 37.828125 -50.460938 38.726562 -50.007812 39.625 -49.59375 C 40.53125 -49.1875 41.519531 -48.863281 42.59375 -48.625 C 43.488281 -48.375 44.390625 -48.003906 45.296875 -47.515625 C 46.203125 -47.023438 47.023438 -46.570312 47.765625 -46.15625 Z M 39.390625 -79.15625 L 38.890625 -79.15625 L 39.015625 -78.53125 Z M 31.265625 -47.890625 L 31.265625 -48.5 L 30.53125 -48.25 Z M 54.90625 -21.421875 C 55.3125 -20.347656 55.757812 -20.347656 56.25 -21.421875 C 56.25 -21.421875 56.164062 -21.5 56 -21.65625 C 55.84375 -21.820312 55.722656 -21.988281 55.640625 -22.15625 C 55.554688 -21.988281 55.410156 -21.84375 55.203125 -21.71875 C 55.003906 -21.601562 54.90625 -21.503906 54.90625 -21.421875 Z M 54.90625 -21.421875 "/></g></g></g><g fill="#ffffff" fill-opacity="1"><g transform="translate(64.909359, 92.682397)"><g><path d="M 46.15625 -35.703125 C 46.238281 -34.628906 46.484375 -33.554688 46.890625 -32.484375 C 47.304688 -31.421875 47.59375 -30.335938 47.75 -29.234375 C 47.914062 -28.128906 47.632812 -27.039062 46.90625 -25.96875 C 47.5625 -24.414062 47.554688 -22.960938 46.890625 -21.609375 C 46.234375 -20.253906 45.90625 -18.878906 45.90625 -17.484375 C 45.90625 -16.828125 45.84375 -16.171875 45.71875 -15.515625 C 45.601562 -14.859375 45.503906 -14.203125 45.421875 -13.546875 C 44.109375 -11.078125 42.488281 -8.859375 40.5625 -6.890625 C 38.632812 -4.921875 36.316406 -3.195312 33.609375 -1.71875 C 32.378906 -1.632812 31.066406 -1.570312 29.671875 -1.53125 C 28.273438 -1.5 26.878906 -1.441406 25.484375 -1.359375 C 24.742188 -1.597656 24.085938 -1.859375 23.515625 -2.140625 C 22.941406 -2.429688 22.363281 -2.703125 21.78125 -2.953125 C 20.3125 -3.609375 18.859375 -4.328125 17.421875 -5.109375 C 15.984375 -5.890625 14.441406 -6.363281 12.796875 -6.53125 C 12.640625 -7.101562 12.539062 -7.695312 12.5 -8.3125 C 12.457031 -8.925781 12.269531 -9.4375 11.9375 -9.84375 C 10.789062 -11.40625 9.910156 -13.085938 9.296875 -14.890625 C 8.679688 -16.703125 7.960938 -18.425781 7.140625 -20.0625 C 6.316406 -21.625 5.757812 -23.203125 5.46875 -24.796875 C 5.1875 -26.398438 5.5 -28.0625 6.40625 -29.78125 C 6.15625 -32.082031 6.359375 -34.503906 7.015625 -37.046875 C 7.421875 -38.441406 7.519531 -39.878906 7.3125 -41.359375 C 7.113281 -42.835938 6.6875 -44.273438 6.03125 -45.671875 C 5.625 -46.492188 5.421875 -47.3125 5.421875 -48.125 C 5.421875 -48.945312 5.539062 -49.851562 5.78125 -50.84375 C 8.90625 -53.46875 12.3125 -53.503906 16 -50.953125 C 17.800781 -51.367188 19.234375 -52.234375 20.296875 -53.546875 C 21.367188 -54.859375 22.644531 -55.96875 24.125 -56.875 C 25.03125 -57.28125 25.972656 -57.707031 26.953125 -58.15625 C 27.941406 -58.613281 28.96875 -59.085938 30.03125 -59.578125 C 31.34375 -59.171875 32.695312 -58.78125 34.09375 -58.40625 C 35.488281 -58.039062 36.882812 -57.570312 38.28125 -57 C 39.019531 -56.75 39.695312 -56.351562 40.3125 -55.8125 C 40.925781 -55.28125 41.519531 -54.8125 42.09375 -54.40625 C 42.75 -52.6875 43.382812 -51.003906 44 -49.359375 C 44.613281 -47.722656 45.085938 -46.125 45.421875 -44.5625 C 45.742188 -43.082031 45.925781 -41.601562 45.96875 -40.125 C 46.007812 -38.644531 46.070312 -37.171875 46.15625 -35.703125 Z M 34.953125 -17.609375 C 35.941406 -21.460938 36.289062 -25.210938 36 -28.859375 C 35.71875 -32.515625 35.492188 -36.226562 35.328125 -40 C 34.921875 -41.070312 34.46875 -42.160156 33.96875 -43.265625 C 33.476562 -44.367188 33.070312 -45.375 32.75 -46.28125 C 31.1875 -47.269531 29.832031 -47.4375 28.6875 -46.78125 C 27.945312 -46.28125 27.328125 -45.742188 26.828125 -45.171875 C 24.773438 -42.710938 23.03125 -40.046875 21.59375 -37.171875 C 20.164062 -34.296875 18.957031 -31.382812 17.96875 -28.4375 C 17.726562 -27.613281 17.644531 -26.769531 17.71875 -25.90625 C 17.800781 -25.050781 17.84375 -24.210938 17.84375 -23.390625 C 18.5 -22.242188 19.113281 -21.113281 19.6875 -20 C 20.269531 -18.894531 20.804688 -17.847656 21.296875 -16.859375 C 22.523438 -15.710938 23.671875 -14.625 24.734375 -13.59375 C 25.804688 -12.570312 27.242188 -12.0625 29.046875 -12.0625 C 29.535156 -12.394531 30.066406 -12.703125 30.640625 -12.984375 C 31.222656 -13.273438 31.71875 -13.625 32.125 -14.03125 C 32.695312 -14.601562 33.226562 -15.21875 33.71875 -15.875 C 34.21875 -16.53125 34.628906 -17.109375 34.953125 -17.609375 Z M 12.4375 -6.15625 C 12.4375 -6.40625 12.4375 -6.566406 12.4375 -6.640625 C 12.519531 -6.640625 12.578125 -6.617188 12.609375 -6.578125 C 12.648438 -6.546875 12.710938 -6.53125 12.796875 -6.53125 C 12.796875 -6.28125 12.796875 -6.195312 12.796875 -6.28125 C 12.710938 -6.28125 12.648438 -6.257812 12.609375 -6.21875 C 12.578125 -6.175781 12.519531 -6.15625 12.4375 -6.15625 Z M 7.015625 -2.828125 C 7.265625 -3.316406 7.59375 -3.804688 8 -4.296875 C 8.40625 -4.796875 8.773438 -5.332031 9.109375 -5.90625 C 9.679688 -5.90625 10.234375 -5.945312 10.765625 -6.03125 C 11.304688 -6.113281 11.863281 -6.15625 12.4375 -6.15625 C 12.4375 -5.988281 12.4375 -5.78125 12.4375 -5.53125 C 12.4375 -5.289062 12.4375 -5.085938 12.4375 -4.921875 C 12.757812 -4.597656 13.082031 -4.269531 13.40625 -3.9375 C 13.738281 -3.613281 14.113281 -3.285156 14.53125 -2.953125 C 14.601562 -2.046875 14.742188 -1.140625 14.953125 -0.234375 C 15.160156 0.660156 15.265625 1.5625 15.265625 2.46875 C 15.347656 7.144531 15.488281 11.820312 15.6875 16.5 C 15.894531 21.175781 15.710938 25.851562 15.140625 30.53125 C 15.054688 31.757812 14.6875 32.78125 14.03125 33.59375 C 13.375 34.414062 12.554688 34.75 11.578125 34.59375 C 10.753906 34.507812 9.890625 34.363281 8.984375 34.15625 C 8.078125 33.945312 7.050781 33.722656 5.90625 33.484375 C 5.582031 30.035156 5.359375 27.117188 5.234375 24.734375 C 5.109375 22.359375 5.046875 20.019531 5.046875 17.71875 C 5.046875 15.425781 5.109375 12.757812 5.234375 9.71875 C 5.359375 6.6875 5.539062 2.789062 5.78125 -1.96875 C 5.945312 -2.132812 6.128906 -2.273438 6.328125 -2.390625 C 6.535156 -2.515625 6.765625 -2.660156 7.015625 -2.828125 Z M 7.015625 -2.828125 "/></g></g></g><g fill="#ffffff" fill-opacity="1"><g transform="translate(117.472304, 92.682397)"><g><path d="M 44.6875 -12.921875 C 45.175781 -12.097656 45.601562 -11.234375 45.96875 -10.328125 C 46.34375 -9.429688 46.570312 -8.492188 46.65625 -7.515625 C 44.601562 -5.617188 42.320312 -4.382812 39.8125 -3.8125 C 37.3125 -3.238281 34.832031 -2.625 32.375 -1.96875 C 29.914062 -1.3125 27.554688 -1.453125 25.296875 -2.390625 C 23.035156 -3.335938 20.71875 -4.019531 18.34375 -4.4375 C 16.375 -5.414062 14.628906 -6.722656 13.109375 -8.359375 C 11.585938 -10.003906 10.007812 -11.566406 8.375 -13.046875 C 7.632812 -14.441406 7.035156 -15.628906 6.578125 -16.609375 C 6.128906 -17.597656 5.703125 -18.503906 5.296875 -19.328125 C 5.210938 -19.816406 5.109375 -20.242188 4.984375 -20.609375 C 4.859375 -20.984375 4.796875 -21.375 4.796875 -21.78125 C 4.796875 -24.414062 4.796875 -27.023438 4.796875 -29.609375 C 4.796875 -32.191406 4.796875 -34.753906 4.796875 -37.296875 C 5.617188 -39.753906 6.457031 -42.234375 7.3125 -44.734375 C 8.175781 -47.242188 9.429688 -49.726562 11.078125 -52.1875 C 12.222656 -53.007812 13.535156 -53.953125 15.015625 -55.015625 C 16.492188 -56.085938 18.09375 -57.28125 19.8125 -58.59375 C 21.125 -59 22.582031 -59.445312 24.1875 -59.9375 C 25.789062 -60.4375 27.328125 -60.890625 28.796875 -61.296875 C 31.429688 -60.554688 33.734375 -59.445312 35.703125 -57.96875 C 37.671875 -56.5 39.800781 -55.066406 42.09375 -53.671875 C 42.507812 -52.847656 42.984375 -51.921875 43.515625 -50.890625 C 44.046875 -49.867188 44.597656 -48.867188 45.171875 -47.890625 C 45.171875 -46.816406 45.171875 -45.785156 45.171875 -44.796875 C 45.171875 -43.816406 45.171875 -42.796875 45.171875 -41.734375 C 44.679688 -40.910156 44.1875 -40.046875 43.6875 -39.140625 C 43.195312 -38.242188 42.664062 -37.300781 42.09375 -36.3125 C 40.375 -35.488281 38.609375 -34.601562 36.796875 -33.65625 C 34.992188 -32.71875 33.023438 -31.757812 30.890625 -30.78125 C 29.003906 -30.613281 26.992188 -30.488281 24.859375 -30.40625 C 22.734375 -30.320312 20.4375 -30.195312 17.96875 -30.03125 C 17.226562 -29.707031 16.53125 -29.195312 15.875 -28.5 C 15.21875 -27.800781 14.847656 -26.710938 14.765625 -25.234375 C 15.015625 -24.410156 15.320312 -23.484375 15.6875 -22.453125 C 16.0625 -21.429688 16.410156 -20.390625 16.734375 -19.328125 C 17.640625 -18.097656 18.664062 -17.050781 19.8125 -16.1875 C 20.96875 -15.320312 22.160156 -14.519531 23.390625 -13.78125 C 26.585938 -13.207031 29.742188 -13.039062 32.859375 -13.28125 C 35.984375 -13.53125 39.101562 -14.234375 42.21875 -15.390625 C 42.632812 -14.972656 43.085938 -14.578125 43.578125 -14.203125 C 44.066406 -13.835938 44.4375 -13.410156 44.6875 -12.921875 Z M 16.859375 -41.109375 C 16.703125 -40.785156 16.722656 -40.4375 16.921875 -40.0625 C 17.128906 -39.695312 17.316406 -39.304688 17.484375 -38.890625 C 18.546875 -39.054688 19.628906 -39.257812 20.734375 -39.5 C 21.847656 -39.75 22.976562 -39.914062 24.125 -40 C 25.601562 -40.164062 26.9375 -40.578125 28.125 -41.234375 C 29.3125 -41.890625 30.5625 -42.460938 31.875 -42.953125 C 32.613281 -43.285156 33.144531 -44.046875 33.46875 -45.234375 C 33.800781 -46.421875 33.765625 -47.425781 33.359375 -48.25 C 32.453125 -49.8125 31.363281 -50.941406 30.09375 -51.640625 C 28.820312 -52.335938 27.285156 -52.476562 25.484375 -52.0625 C 23.265625 -50.832031 21.5 -49.253906 20.1875 -47.328125 C 18.875 -45.398438 17.765625 -43.328125 16.859375 -41.109375 Z M 16.859375 -41.109375 "/></g></g></g><g fill="#ffffff" fill-opacity="1"><g transform="translate(168.188778, 92.682397)"><g><path d="M 37.171875 -21.546875 C 38.734375 -21.378906 40.046875 -20.945312 41.109375 -20.25 C 42.179688 -19.550781 43.289062 -18.914062 44.4375 -18.34375 C 44.4375 -17.4375 44.4375 -16.65625 44.4375 -16 C 44.4375 -15.34375 44.4375 -14.6875 44.4375 -14.03125 C 43.207031 -11.320312 41.628906 -8.816406 39.703125 -6.515625 C 37.773438 -4.222656 34.632812 -2.503906 30.28125 -1.359375 C 30.53125 -1.359375 30.203125 -1.316406 29.296875 -1.234375 C 28.390625 -1.148438 27.40625 -1.109375 26.34375 -1.109375 C 25.195312 -1.109375 24.085938 -1.148438 23.015625 -1.234375 C 21.953125 -1.316406 21.007812 -1.359375 20.1875 -1.359375 C 17.644531 -2.421875 15.390625 -3.671875 13.421875 -5.109375 C 11.453125 -6.546875 9.6875 -8.375 8.125 -10.59375 C 7.632812 -12.144531 7.117188 -13.738281 6.578125 -15.375 C 6.046875 -17.019531 5.492188 -18.75 4.921875 -20.5625 C 4.921875 -23.507812 4.921875 -26.519531 4.921875 -29.59375 C 4.921875 -32.675781 4.921875 -35.613281 4.921875 -38.40625 C 5.578125 -39.882812 6.148438 -41.257812 6.640625 -42.53125 C 7.140625 -43.800781 7.675781 -45.050781 8.25 -46.28125 C 8.65625 -47.019531 9.101562 -47.757812 9.59375 -48.5 C 10.09375 -49.238281 10.546875 -49.976562 10.953125 -50.71875 C 12.515625 -51.695312 14.03125 -52.695312 15.5 -53.71875 C 16.976562 -54.75 18.5 -55.800781 20.0625 -56.875 C 21.945312 -56.875 23.914062 -56.875 25.96875 -56.875 C 28.019531 -56.875 30.195312 -56.875 32.5 -56.875 C 33.5625 -56.21875 34.726562 -55.519531 36 -54.78125 C 37.269531 -54.039062 38.5625 -53.257812 39.875 -52.4375 C 41.4375 -51.375 42.097656 -49.816406 41.859375 -47.765625 C 41.859375 -47.191406 41.671875 -46.632812 41.296875 -46.09375 C 40.929688 -45.5625 40.625 -45.09375 40.375 -44.6875 C 38.894531 -44.269531 37.5 -44 36.1875 -43.875 C 34.875 -43.757812 33.5625 -44.109375 32.25 -44.921875 C 30.28125 -46.160156 28.390625 -46.632812 26.578125 -46.34375 C 24.773438 -46.050781 22.972656 -45.289062 21.171875 -44.0625 C 20.847656 -43.820312 20.5 -43.578125 20.125 -43.328125 C 19.757812 -43.078125 19.410156 -42.832031 19.078125 -42.59375 C 17.929688 -39.882812 16.945312 -37.070312 16.125 -34.15625 C 15.300781 -31.238281 15.34375 -27.566406 16.25 -23.140625 C 16.332031 -22.816406 16.617188 -21.9375 17.109375 -20.5 C 17.597656 -19.0625 18.171875 -17.441406 18.828125 -15.640625 C 19.398438 -15.140625 19.992188 -14.601562 20.609375 -14.03125 C 21.234375 -13.457031 21.789062 -12.96875 22.28125 -12.5625 C 25.476562 -11.65625 28.0625 -12.144531 30.03125 -14.03125 C 30.6875 -14.6875 31.300781 -15.34375 31.875 -16 C 32.457031 -16.65625 33.078125 -17.3125 33.734375 -17.96875 C 34.304688 -18.625 34.878906 -19.257812 35.453125 -19.875 C 36.023438 -20.488281 36.597656 -21.046875 37.171875 -21.546875 Z M 37.171875 -21.546875 "/></g></g></g><g fill="#ffffff" fill-opacity="1"><g transform="translate(216.197058, 92.682397)"><g><path d="M 15.640625 -45.046875 C 15.878906 -42.097656 15.9375 -39.125 15.8125 -36.125 C 15.695312 -33.132812 16.171875 -30.242188 17.234375 -27.453125 C 17.316406 -24.253906 17.414062 -21.03125 17.53125 -17.78125 C 17.65625 -14.539062 17.757812 -11.363281 17.84375 -8.25 C 17.1875 -5.125 16.054688 -3.273438 14.453125 -2.703125 C 12.859375 -2.128906 10.910156 -2.085938 8.609375 -2.578125 C 8.285156 -4.140625 8 -5.515625 7.75 -6.703125 C 7.507812 -7.898438 7.265625 -9.070312 7.015625 -10.21875 C 6.847656 -11.039062 6.640625 -11.878906 6.390625 -12.734375 C 6.148438 -13.597656 5.867188 -14.566406 5.546875 -15.640625 C 5.546875 -19.578125 5.546875 -23.613281 5.546875 -27.75 C 5.546875 -31.894531 5.546875 -36.144531 5.546875 -40.5 C 6.359375 -42.632812 6.925781 -44.992188 7.25 -47.578125 C 7.582031 -50.160156 8.285156 -52.5625 9.359375 -54.78125 C 10.503906 -54.78125 11.609375 -54.78125 12.671875 -54.78125 C 13.742188 -54.78125 14.894531 -54.78125 16.125 -54.78125 C 16.289062 -53.957031 16.492188 -53.132812 16.734375 -52.3125 C 16.984375 -51.488281 17.066406 -50.707031 16.984375 -49.96875 C 16.984375 -49.070312 16.816406 -48.234375 16.484375 -47.453125 C 16.160156 -46.671875 15.878906 -45.867188 15.640625 -45.046875 Z M 8.734375 -30.890625 L 9.234375 -32 L 8.5 -32.125 Z M 11.078125 -49.359375 L 12.0625 -49.109375 L 11.6875 -50.46875 Z M 9.359375 -63.765625 C 9.109375 -64.171875 8.859375 -64.535156 8.609375 -64.859375 C 8.367188 -65.191406 8.164062 -65.566406 8 -65.984375 C 7.34375 -68.035156 7.257812 -70.085938 7.75 -72.140625 C 8.25 -74.179688 9.359375 -75.285156 11.078125 -75.453125 C 11.898438 -75.453125 12.738281 -75.453125 13.59375 -75.453125 C 14.457031 -75.453125 15.382812 -75.453125 16.375 -75.453125 C 17.269531 -73.648438 17.78125 -72.09375 17.90625 -70.78125 C 18.03125 -69.46875 17.890625 -68.15625 17.484375 -66.84375 C 16.492188 -65.363281 15.363281 -64.253906 14.09375 -63.515625 C 12.820312 -62.773438 11.242188 -62.859375 9.359375 -63.765625 Z M 9.359375 -63.765625 "/></g></g></g><g fill="#ffffff" fill-opacity="1"><g transform="translate(239.585733, 92.682397)"><g><path d="M 50.71875 -7.515625 C 50.800781 -6.859375 50.84375 -6.160156 50.84375 -5.421875 C 50.84375 -4.679688 50.84375 -3.941406 50.84375 -3.203125 C 50.1875 -2.210938 49.425781 -1.410156 48.5625 -0.796875 C 47.695312 -0.179688 46.609375 0 45.296875 -0.25 C 43.734375 -0.988281 42.378906 -1.992188 41.234375 -3.265625 C 40.085938 -4.535156 38.691406 -5.539062 37.046875 -6.28125 C 34.753906 -5.539062 32.5625 -4.472656 30.46875 -3.078125 C 28.375 -1.679688 25.769531 -0.53125 22.65625 0.375 C 22.570312 0.375 22.117188 0.394531 21.296875 0.4375 C 20.472656 0.476562 19.609375 0.457031 18.703125 0.375 C 17.972656 0.375 17.238281 0.3125 16.5 0.1875 C 15.757812 0.0625 15.101562 0 14.53125 0 C 11.820312 -1.476562 9.582031 -3.363281 7.8125 -5.65625 C 6.050781 -7.957031 4.675781 -11.035156 3.6875 -14.890625 C 3.6875 -14.972656 3.644531 -15.484375 3.5625 -16.421875 C 3.488281 -17.367188 3.410156 -18.378906 3.328125 -19.453125 C 4.472656 -21.828125 5.554688 -23.957031 6.578125 -25.84375 C 7.609375 -27.738281 9.109375 -29.175781 11.078125 -30.15625 C 11.566406 -30.070312 12.078125 -29.988281 12.609375 -29.90625 C 13.148438 -29.820312 13.664062 -29.742188 14.15625 -29.671875 C 15.144531 -30.484375 16.109375 -31.320312 17.046875 -32.1875 C 17.992188 -33.050781 18.914062 -33.894531 19.8125 -34.71875 C 22.195312 -35.039062 24.515625 -35.285156 26.765625 -35.453125 C 29.023438 -35.617188 31.347656 -35.578125 33.734375 -35.328125 C 34.628906 -36.148438 35.613281 -37.007812 36.6875 -37.90625 C 36.601562 -39.300781 36.109375 -40.367188 35.203125 -41.109375 C 34.296875 -41.847656 33.597656 -42.710938 33.109375 -43.703125 C 33.023438 -44.109375 32.941406 -44.472656 32.859375 -44.796875 C 32.785156 -45.128906 32.707031 -45.5 32.625 -45.90625 C 32.457031 -46.8125 32.085938 -47.507812 31.515625 -48 C 30.941406 -48.5 30.363281 -48.625 29.78125 -48.375 C 28.71875 -47.96875 27.648438 -47.597656 26.578125 -47.265625 C 25.515625 -46.941406 24.410156 -46.820312 23.265625 -46.90625 C 21.867188 -47.0625 20.578125 -46.914062 19.390625 -46.46875 C 18.203125 -46.019531 17.03125 -45.503906 15.875 -44.921875 C 15.632812 -44.765625 15.304688 -44.765625 14.890625 -44.921875 C 14.484375 -45.085938 14.035156 -45.171875 13.546875 -45.171875 C 13.128906 -45.910156 12.695312 -46.691406 12.25 -47.515625 C 11.800781 -48.335938 11.328125 -49.117188 10.828125 -49.859375 C 11.898438 -52.234375 13.441406 -53.867188 15.453125 -54.765625 C 17.460938 -55.671875 19.492188 -56.535156 21.546875 -57.359375 C 22.609375 -57.441406 23.691406 -57.484375 24.796875 -57.484375 C 25.910156 -57.484375 27.039062 -57.28125 28.1875 -56.875 C 29.007812 -56.539062 29.867188 -56.226562 30.765625 -55.9375 C 31.671875 -55.65625 32.660156 -55.3125 33.734375 -54.90625 C 35.617188 -53.914062 37.296875 -52.597656 38.765625 -50.953125 C 40.242188 -49.316406 41.640625 -47.632812 42.953125 -45.90625 C 43.609375 -44.519531 44.019531 -43.085938 44.1875 -41.609375 C 44.351562 -40.128906 44.394531 -38.609375 44.3125 -37.046875 C 44.0625 -33.359375 43.976562 -29.664062 44.0625 -25.96875 C 44.144531 -22.28125 44.226562 -18.671875 44.3125 -15.140625 C 44.800781 -13.660156 45.578125 -12.53125 46.640625 -11.75 C 47.710938 -10.976562 48.785156 -10.222656 49.859375 -9.484375 C 50.015625 -9.148438 50.195312 -8.835938 50.40625 -8.546875 C 50.613281 -8.265625 50.71875 -7.921875 50.71875 -7.515625 Z M 32.984375 -20.0625 C 33.066406 -21.050781 33.066406 -22.015625 32.984375 -22.953125 C 32.898438 -23.898438 32.53125 -24.90625 31.875 -25.96875 C 31.550781 -26.21875 31.117188 -26.566406 30.578125 -27.015625 C 30.046875 -27.472656 29.453125 -27.90625 28.796875 -28.3125 C 27.160156 -27.820312 25.5625 -27.347656 24 -26.890625 C 22.445312 -26.441406 20.847656 -26.015625 19.203125 -25.609375 C 18.460938 -24.703125 17.679688 -23.859375 16.859375 -23.078125 C 16.046875 -22.296875 15.304688 -21.5 14.640625 -20.6875 C 14.148438 -20.101562 13.738281 -19.484375 13.40625 -18.828125 C 13.082031 -18.171875 12.960938 -17.4375 13.046875 -16.625 C 13.785156 -15.226562 14.503906 -13.75 15.203125 -12.1875 C 15.898438 -10.625 17.394531 -9.554688 19.6875 -8.984375 C 21.582031 -9.640625 23.390625 -10.398438 25.109375 -11.265625 C 26.835938 -12.128906 28.519531 -13.21875 30.15625 -14.53125 C 30.40625 -15.425781 30.898438 -16.285156 31.640625 -17.109375 C 32.378906 -17.929688 32.828125 -18.914062 32.984375 -20.0625 Z M 32.984375 -20.0625 "/></g></g></g><g fill="#ffffff" fill-opacity="1"><g transform="translate(293.502756, 92.682397)"><g><path d="M 18.34375 -72.625 C 18.34375 -71.800781 18.484375 -70.976562 18.765625 -70.15625 C 19.054688 -69.34375 19.285156 -68.523438 19.453125 -67.703125 C 19.609375 -66.222656 19.519531 -64.785156 19.1875 -63.390625 C 18.863281 -61.992188 18.414062 -60.679688 17.84375 -59.453125 C 17.6875 -55.679688 17.523438 -51.988281 17.359375 -48.375 C 17.191406 -44.757812 17.023438 -41.148438 16.859375 -37.546875 C 15.878906 -36.390625 15.570312 -35.195312 15.9375 -33.96875 C 16.3125 -32.738281 16.617188 -31.507812 16.859375 -30.28125 C 16.535156 -29.375 16.164062 -28.425781 15.75 -27.4375 C 15.34375 -26.457031 14.9375 -25.4375 14.53125 -24.375 C 14.9375 -23.300781 15.382812 -22.171875 15.875 -20.984375 C 16.375 -19.796875 16.910156 -18.460938 17.484375 -16.984375 C 17.398438 -15.835938 17.316406 -14.546875 17.234375 -13.109375 C 17.148438 -11.671875 17.066406 -10.210938 16.984375 -8.734375 C 16.898438 -7.503906 16.835938 -6.253906 16.796875 -4.984375 C 16.753906 -3.710938 16.695312 -2.503906 16.625 -1.359375 C 14.894531 0.859375 13.414062 2.085938 12.1875 2.328125 C 10.957031 2.578125 9.234375 1.96875 7.015625 0.5 C 7.097656 -3.03125 7.179688 -6.601562 7.265625 -10.21875 C 7.347656 -13.832031 7.390625 -17.398438 7.390625 -20.921875 C 7.390625 -24.285156 7.265625 -27.671875 7.015625 -31.078125 C 6.765625 -34.484375 6.765625 -37.828125 7.015625 -41.109375 C 7.347656 -41.765625 7.65625 -42.378906 7.9375 -42.953125 C 8.226562 -43.535156 8.535156 -44.113281 8.859375 -44.6875 C 8.535156 -45.175781 8.25 -45.707031 8 -46.28125 C 7.75 -46.851562 7.460938 -47.390625 7.140625 -47.890625 C 7.222656 -53.222656 7.304688 -58.515625 7.390625 -63.765625 C 7.472656 -69.015625 7.550781 -74.222656 7.625 -79.390625 C 8.125 -80.546875 8.578125 -81.613281 8.984375 -82.59375 C 9.390625 -83.582031 9.84375 -84.609375 10.34375 -85.671875 C 11.488281 -86.742188 12.738281 -87.238281 14.09375 -87.15625 C 15.445312 -87.070312 16.820312 -86.660156 18.21875 -85.921875 C 18.46875 -85.585938 18.691406 -85.234375 18.890625 -84.859375 C 19.097656 -84.492188 19.242188 -84.109375 19.328125 -83.703125 C 19.410156 -82.878906 19.472656 -82.035156 19.515625 -81.171875 C 19.554688 -80.316406 19.535156 -79.476562 19.453125 -78.65625 C 19.367188 -77.675781 19.160156 -76.671875 18.828125 -75.640625 C 18.503906 -74.617188 18.34375 -73.613281 18.34375 -72.625 Z M 18.34375 -72.625 "/></g></g></g><g fill="#ffffff" fill-opacity="1"><g transform="translate(317.876183, 92.682397)"><g/></g></g><g fill="#ffffff" fill-opacity="1"><g transform="translate(355.051846, 92.682397)"><g><path d="M 85.0625 -73 C 84.8125 -69.300781 84.726562 -65.644531 84.8125 -62.03125 C 84.894531 -58.425781 84.894531 -54.773438 84.8125 -51.078125 C 84.726562 -46.734375 84.5625 -42.382812 84.3125 -38.03125 C 84.3125 -37.289062 84.1875 -36.570312 83.9375 -35.875 C 83.695312 -35.175781 83.492188 -34.421875 83.328125 -33.609375 C 83.660156 -32.535156 83.988281 -31.40625 84.3125 -30.21875 C 84.644531 -29.03125 84.523438 -27.820312 83.953125 -26.59375 C 83.296875 -25.195312 82.925781 -23.78125 82.84375 -22.34375 C 82.757812 -20.90625 82.675781 -19.445312 82.59375 -17.96875 C 82.507812 -15.75 82.46875 -13.550781 82.46875 -11.375 C 82.46875 -9.207031 82.425781 -7.054688 82.34375 -4.921875 C 82.34375 -4.515625 82.257812 -4.144531 82.09375 -3.8125 C 81.9375 -3.488281 81.816406 -3.160156 81.734375 -2.828125 C 81.398438 -2.910156 81.085938 -2.992188 80.796875 -3.078125 C 80.515625 -3.160156 80.210938 -3.242188 79.890625 -3.328125 C 78.816406 -3.648438 78.097656 -3.769531 77.734375 -3.6875 C 77.367188 -3.601562 76.894531 -3.15625 76.3125 -2.34375 C 76.226562 -2.175781 76.164062 -2.007812 76.125 -1.84375 C 76.09375 -1.675781 76.035156 -1.515625 75.953125 -1.359375 C 75.296875 -0.203125 74.390625 0.207031 73.234375 -0.125 C 72.910156 -0.125 72.625 -0.265625 72.375 -0.546875 C 72.132812 -0.835938 71.890625 -1.109375 71.640625 -1.359375 C 71.554688 -2.015625 71.515625 -2.707031 71.515625 -3.4375 C 71.515625 -4.175781 71.722656 -4.878906 72.140625 -5.546875 C 72.953125 -6.691406 73.664062 -7.921875 74.28125 -9.234375 C 74.894531 -10.546875 75.328125 -11.898438 75.578125 -13.296875 C 75.660156 -13.460938 75.617188 -13.601562 75.453125 -13.71875 C 75.285156 -13.84375 75.164062 -13.988281 75.09375 -14.15625 C 74.757812 -14.070312 74.40625 -13.988281 74.03125 -13.90625 C 73.664062 -13.820312 73.320312 -13.738281 73 -13.65625 C 72.914062 -13.738281 72.789062 -13.820312 72.625 -13.90625 C 72.457031 -13.988281 72.332031 -14.070312 72.25 -14.15625 C 71.675781 -16.125 71.453125 -18.03125 71.578125 -19.875 C 71.703125 -21.726562 71.804688 -23.1875 71.890625 -24.25 C 71.972656 -25.644531 72.363281 -26.628906 73.0625 -27.203125 C 73.757812 -27.773438 74.394531 -28.304688 74.96875 -28.796875 C 75.539062 -29.296875 75.742188 -30.035156 75.578125 -31.015625 C 75.085938 -31.429688 74.554688 -31.863281 73.984375 -32.3125 C 73.410156 -32.757812 72.796875 -33.234375 72.140625 -33.734375 C 71.890625 -36.359375 71.804688 -39.023438 71.890625 -41.734375 C 71.972656 -44.441406 72.015625 -47.148438 72.015625 -49.859375 C 72.015625 -50.921875 71.992188 -52.003906 71.953125 -53.109375 C 71.910156 -54.222656 71.847656 -55.3125 71.765625 -56.375 C 71.765625 -56.625 71.617188 -56.890625 71.328125 -57.171875 C 71.046875 -57.460938 70.820312 -57.769531 70.65625 -58.09375 C 70.164062 -57.519531 69.734375 -56.925781 69.359375 -56.3125 C 68.992188 -55.695312 68.566406 -55.101562 68.078125 -54.53125 C 66.023438 -52.476562 64.28125 -50.179688 62.84375 -47.640625 C 61.40625 -45.097656 60.070312 -42.507812 58.84375 -39.875 C 57.851562 -37.988281 56.863281 -36.0625 55.875 -34.09375 C 54.894531 -32.125 53.914062 -30.195312 52.9375 -28.3125 C 52.113281 -26.664062 51.375 -25 50.71875 -23.3125 C 50.0625 -21.632812 49.566406 -19.894531 49.234375 -18.09375 C 48.578125 -17.4375 47.816406 -16.960938 46.953125 -16.671875 C 46.097656 -16.390625 45.21875 -16.125 44.3125 -15.875 C 42.257812 -15.050781 40.695312 -14.925781 39.625 -15.5 C 38.5625 -16.082031 37.828125 -17.148438 37.421875 -18.703125 C 36.597656 -21.253906 35.570312 -23.738281 34.34375 -26.15625 C 33.113281 -28.570312 32.375 -31.21875 32.125 -34.09375 C 32.039062 -34.914062 31.796875 -35.753906 31.390625 -36.609375 C 30.984375 -37.472656 30.570312 -38.273438 30.15625 -39.015625 C 28.757812 -41.804688 27.40625 -44.578125 26.09375 -47.328125 C 24.78125 -50.078125 23.632812 -52.890625 22.65625 -55.765625 C 21.75 -55.109375 21.148438 -54.328125 20.859375 -53.421875 C 20.578125 -52.515625 20.1875 -51.613281 19.6875 -50.71875 C 19.363281 -45.539062 19.265625 -40.328125 19.390625 -35.078125 C 19.515625 -29.828125 19.578125 -24.578125 19.578125 -19.328125 C 19.492188 -16.785156 19.429688 -14.238281 19.390625 -11.6875 C 19.347656 -9.144531 19.328125 -6.601562 19.328125 -4.0625 C 19.242188 -3.570312 18.972656 -3.222656 18.515625 -3.015625 C 18.066406 -2.804688 17.515625 -2.785156 16.859375 -2.953125 C 16.703125 -2.953125 16.539062 -2.992188 16.375 -3.078125 C 16.207031 -3.160156 16.125 -3.242188 16.125 -3.328125 C 15.300781 -3.078125 14.5625 -2.867188 13.90625 -2.703125 C 13.25 -2.546875 12.675781 -2.425781 12.1875 -2.34375 C 9.5625 -3.238281 8.207031 -4.960938 8.125 -7.515625 C 8.039062 -10.628906 8 -13.722656 8 -16.796875 C 8 -19.878906 7.957031 -22.976562 7.875 -26.09375 C 7.875 -27.320312 7.832031 -28.570312 7.75 -29.84375 C 7.664062 -31.125 7.378906 -32.378906 6.890625 -33.609375 C 6.722656 -34.265625 6.617188 -34.976562 6.578125 -35.75 C 6.546875 -36.53125 6.609375 -37.210938 6.765625 -37.796875 C 7.335938 -39.179688 7.664062 -40.59375 7.75 -42.03125 C 7.832031 -43.46875 7.914062 -44.925781 8 -46.40625 C 8.082031 -51.90625 8.1875 -57.382812 8.3125 -62.84375 C 8.4375 -68.300781 8.414062 -73.738281 8.25 -79.15625 C 8.164062 -79.882812 8.164062 -80.597656 8.25 -81.296875 C 8.332031 -81.992188 8.414062 -82.632812 8.5 -83.21875 C 9.226562 -84.195312 10.046875 -84.707031 10.953125 -84.75 C 11.859375 -84.789062 12.722656 -84.9375 13.546875 -85.1875 C 14.441406 -85.34375 15.300781 -85.523438 16.125 -85.734375 C 16.945312 -85.941406 17.726562 -86.164062 18.46875 -86.40625 C 19.863281 -85.75 20.910156 -84.890625 21.609375 -83.828125 C 22.304688 -82.765625 22.859375 -81.613281 23.265625 -80.375 C 23.585938 -79.71875 23.832031 -79.039062 24 -78.34375 C 24.164062 -77.644531 24.453125 -77.007812 24.859375 -76.4375 C 26.335938 -74.300781 27.546875 -72.0625 28.484375 -69.71875 C 29.429688 -67.382812 30.644531 -65.15625 32.125 -63.03125 C 33.269531 -61.382812 34.046875 -59.578125 34.453125 -57.609375 C 34.867188 -55.640625 35.53125 -53.753906 36.4375 -51.953125 C 36.6875 -51.535156 36.847656 -51.039062 36.921875 -50.46875 C 37.003906 -49.894531 37.171875 -49.363281 37.421875 -48.875 C 37.828125 -48.132812 38.296875 -47.394531 38.828125 -46.65625 C 39.367188 -45.914062 39.882812 -45.132812 40.375 -44.3125 C 40.78125 -43.570312 41.046875 -42.726562 41.171875 -41.78125 C 41.296875 -40.84375 41.769531 -40.085938 42.59375 -39.515625 C 43.820312 -39.097656 44.765625 -39.382812 45.421875 -40.375 C 45.828125 -40.945312 46.210938 -41.539062 46.578125 -42.15625 C 46.953125 -42.769531 47.265625 -43.40625 47.515625 -44.0625 C 48.085938 -46.03125 48.882812 -47.851562 49.90625 -49.53125 C 50.9375 -51.21875 52.066406 -52.882812 53.296875 -54.53125 C 55.597656 -57.5625 57.851562 -60.613281 60.0625 -63.6875 C 62.28125 -66.769531 64.539062 -69.832031 66.84375 -72.875 C 67.5 -74.925781 68.5625 -76.628906 70.03125 -77.984375 C 71.507812 -79.335938 72.90625 -80.753906 74.21875 -82.234375 C 75.125 -81.898438 75.988281 -81.566406 76.8125 -81.234375 C 77.632812 -80.910156 78.453125 -80.664062 79.265625 -80.5 C 79.921875 -80.332031 80.597656 -80.269531 81.296875 -80.3125 C 81.992188 -80.351562 82.671875 -80.375 83.328125 -80.375 C 83.578125 -79.96875 83.84375 -79.597656 84.125 -79.265625 C 84.414062 -78.941406 84.5625 -78.65625 84.5625 -78.40625 C 84.726562 -77.507812 84.851562 -76.609375 84.9375 -75.703125 C 85.019531 -74.796875 85.0625 -73.894531 85.0625 -73 Z M 79.15625 -30.890625 L 79.640625 -31.515625 L 78.90625 -31.515625 Z M 79.15625 -30.890625 "/></g></g></g><g fill="#ffffff" fill-opacity="1"><g transform="translate(447.006213, 92.682397)"><g><path d="M 44.6875 -12.921875 C 45.175781 -12.097656 45.601562 -11.234375 45.96875 -10.328125 C 46.34375 -9.429688 46.570312 -8.492188 46.65625 -7.515625 C 44.601562 -5.617188 42.320312 -4.382812 39.8125 -3.8125 C 37.3125 -3.238281 34.832031 -2.625 32.375 -1.96875 C 29.914062 -1.3125 27.554688 -1.453125 25.296875 -2.390625 C 23.035156 -3.335938 20.71875 -4.019531 18.34375 -4.4375 C 16.375 -5.414062 14.628906 -6.722656 13.109375 -8.359375 C 11.585938 -10.003906 10.007812 -11.566406 8.375 -13.046875 C 7.632812 -14.441406 7.035156 -15.628906 6.578125 -16.609375 C 6.128906 -17.597656 5.703125 -18.503906 5.296875 -19.328125 C 5.210938 -19.816406 5.109375 -20.242188 4.984375 -20.609375 C 4.859375 -20.984375 4.796875 -21.375 4.796875 -21.78125 C 4.796875 -24.414062 4.796875 -27.023438 4.796875 -29.609375 C 4.796875 -32.191406 4.796875 -34.753906 4.796875 -37.296875 C 5.617188 -39.753906 6.457031 -42.234375 7.3125 -44.734375 C 8.175781 -47.242188 9.429688 -49.726562 11.078125 -52.1875 C 12.222656 -53.007812 13.535156 -53.953125 15.015625 -55.015625 C 16.492188 -56.085938 18.09375 -57.28125 19.8125 -58.59375 C 21.125 -59 22.582031 -59.445312 24.1875 -59.9375 C 25.789062 -60.4375 27.328125 -60.890625 28.796875 -61.296875 C 31.429688 -60.554688 33.734375 -59.445312 35.703125 -57.96875 C 37.671875 -56.5 39.800781 -55.066406 42.09375 -53.671875 C 42.507812 -52.847656 42.984375 -51.921875 43.515625 -50.890625 C 44.046875 -49.867188 44.597656 -48.867188 45.171875 -47.890625 C 45.171875 -46.816406 45.171875 -45.785156 45.171875 -44.796875 C 45.171875 -43.816406 45.171875 -42.796875 45.171875 -41.734375 C 44.679688 -40.910156 44.1875 -40.046875 43.6875 -39.140625 C 43.195312 -38.242188 42.664062 -37.300781 42.09375 -36.3125 C 40.375 -35.488281 38.609375 -34.601562 36.796875 -33.65625 C 34.992188 -32.71875 33.023438 -31.757812 30.890625 -30.78125 C 29.003906 -30.613281 26.992188 -30.488281 24.859375 -30.40625 C 22.734375 -30.320312 20.4375 -30.195312 17.96875 -30.03125 C 17.226562 -29.707031 16.53125 -29.195312 15.875 -28.5 C 15.21875 -27.800781 14.847656 -26.710938 14.765625 -25.234375 C 15.015625 -24.410156 15.320312 -23.484375 15.6875 -22.453125 C 16.0625 -21.429688 16.410156 -20.390625 16.734375 -19.328125 C 17.640625 -18.097656 18.664062 -17.050781 19.8125 -16.1875 C 20.96875 -15.320312 22.160156 -14.519531 23.390625 -13.78125 C 26.585938 -13.207031 29.742188 -13.039062 32.859375 -13.28125 C 35.984375 -13.53125 39.101562 -14.234375 42.21875 -15.390625 C 42.632812 -14.972656 43.085938 -14.578125 43.578125 -14.203125 C 44.066406 -13.835938 44.4375 -13.410156 44.6875 -12.921875 Z M 16.859375 -41.109375 C 16.703125 -40.785156 16.722656 -40.4375 16.921875 -40.0625 C 17.128906 -39.695312 17.316406 -39.304688 17.484375 -38.890625 C 18.546875 -39.054688 19.628906 -39.257812 20.734375 -39.5 C 21.847656 -39.75 22.976562 -39.914062 24.125 -40 C 25.601562 -40.164062 26.9375 -40.578125 28.125 -41.234375 C 29.3125 -41.890625 30.5625 -42.460938 31.875 -42.953125 C 32.613281 -43.285156 33.144531 -44.046875 33.46875 -45.234375 C 33.800781 -46.421875 33.765625 -47.425781 33.359375 -48.25 C 32.453125 -49.8125 31.363281 -50.941406 30.09375 -51.640625 C 28.820312 -52.335938 27.285156 -52.476562 25.484375 -52.0625 C 23.265625 -50.832031 21.5 -49.253906 20.1875 -47.328125 C 18.875 -45.398438 17.765625 -43.328125 16.859375 -41.109375 Z M 16.859375 -41.109375 "/></g></g></g><g fill="#ffffff" fill-opacity="1"><g transform="translate(497.722687, 92.682397)"><g><path d="M 48.125 -12.5625 C 49.03125 -11.570312 49.972656 -10.5625 50.953125 -9.53125 C 51.941406 -8.507812 52.929688 -7.507812 53.921875 -6.53125 C 53.097656 -5.050781 52.359375 -3.59375 51.703125 -2.15625 C 51.046875 -0.71875 49.9375 0.410156 48.375 1.234375 C 47.96875 0.984375 47.578125 0.773438 47.203125 0.609375 C 46.835938 0.453125 46.488281 0.289062 46.15625 0.125 C 43.207031 -0.945312 41.15625 -2.753906 40 -5.296875 C 39.507812 -6.441406 38.976562 -7.523438 38.40625 -8.546875 C 37.832031 -9.578125 37.460938 -10.707031 37.296875 -11.9375 C 37.210938 -12.757812 36.984375 -13.539062 36.609375 -14.28125 C 36.242188 -15.019531 35.941406 -15.800781 35.703125 -16.625 C 35.285156 -19.820312 35.140625 -23 35.265625 -26.15625 C 35.390625 -29.3125 35.492188 -32.46875 35.578125 -35.625 C 35.660156 -38.789062 35.453125 -41.929688 34.953125 -45.046875 C 33.640625 -46.359375 32.304688 -46.972656 30.953125 -46.890625 C 29.597656 -46.816406 28.101562 -46.488281 26.46875 -45.90625 C 26.132812 -45.5 25.679688 -45.03125 25.109375 -44.5 C 24.535156 -43.96875 24.082031 -43.375 23.75 -42.71875 C 22.113281 -39.925781 20.597656 -37.050781 19.203125 -34.09375 C 18.867188 -33.4375 18.617188 -32.71875 18.453125 -31.9375 C 18.296875 -31.164062 18.132812 -30.367188 17.96875 -29.546875 C 17.726562 -28.390625 17.484375 -27.21875 17.234375 -26.03125 C 16.984375 -24.84375 16.898438 -23.675781 16.984375 -22.53125 C 17.066406 -21.625 17.226562 -20.675781 17.46875 -19.6875 C 17.71875 -18.707031 17.800781 -17.6875 17.71875 -16.625 C 17.71875 -15.632812 17.71875 -14.625 17.71875 -13.59375 C 17.71875 -12.570312 17.71875 -11.488281 17.71875 -10.34375 C 17.3125 -8.945312 16.878906 -7.507812 16.421875 -6.03125 C 15.972656 -4.550781 15.503906 -3.15625 15.015625 -1.84375 C 13.453125 -0.945312 12.015625 -0.617188 10.703125 -0.859375 C 9.390625 -1.109375 8.203125 -1.765625 7.140625 -2.828125 C 6.972656 -3.242188 6.804688 -3.632812 6.640625 -4 C 6.484375 -4.363281 6.40625 -4.753906 6.40625 -5.171875 C 6.320312 -8.785156 6.300781 -12.394531 6.34375 -16 C 6.382812 -19.613281 6.363281 -23.222656 6.28125 -26.828125 C 6.28125 -28.722656 6.484375 -30.53125 6.890625 -32.25 C 7.304688 -33.96875 7.675781 -35.691406 8 -37.421875 C 8.164062 -38.648438 8.0625 -39.835938 7.6875 -40.984375 C 7.320312 -42.140625 6.972656 -43.289062 6.640625 -44.4375 C 6.316406 -45.582031 6.28125 -46.8125 6.53125 -48.125 C 6.601562 -48.289062 6.617188 -48.472656 6.578125 -48.671875 C 6.546875 -48.878906 6.53125 -49.109375 6.53125 -49.359375 C 6.9375 -50.265625 7.320312 -51.1875 7.6875 -52.125 C 8.0625 -53.070312 8.492188 -54.078125 8.984375 -55.140625 C 9.804688 -55.554688 10.644531 -55.96875 11.5 -56.375 C 12.363281 -56.789062 13.207031 -57.160156 14.03125 -57.484375 C 14.851562 -57.160156 15.363281 -56.707031 15.5625 -56.125 C 15.769531 -55.550781 15.894531 -54.914062 15.9375 -54.21875 C 15.976562 -53.519531 16.242188 -52.925781 16.734375 -52.4375 C 17.972656 -52.4375 18.976562 -52.90625 19.75 -53.84375 C 20.53125 -54.789062 21.457031 -55.472656 22.53125 -55.890625 C 23.425781 -56.210938 24.347656 -56.578125 25.296875 -56.984375 C 26.242188 -57.398438 27.164062 -57.8125 28.0625 -58.21875 C 29.289062 -58.21875 30.476562 -58.21875 31.625 -58.21875 C 32.78125 -58.21875 33.929688 -58.21875 35.078125 -58.21875 C 36.640625 -57.5625 38.175781 -56.90625 39.6875 -56.25 C 41.207031 -55.59375 42.625 -54.523438 43.9375 -53.046875 C 44.351562 -52.234375 44.804688 -51.269531 45.296875 -50.15625 C 45.785156 -49.050781 46.320312 -47.84375 46.90625 -46.53125 C 46.90625 -45.132812 46.90625 -43.65625 46.90625 -42.09375 C 46.90625 -40.539062 46.90625 -38.941406 46.90625 -37.296875 C 46.90625 -36.304688 46.800781 -35.316406 46.59375 -34.328125 C 46.382812 -33.347656 46.195312 -32.367188 46.03125 -31.390625 C 45.707031 -29.992188 45.484375 -28.617188 45.359375 -27.265625 C 45.234375 -25.910156 45.085938 -24.617188 44.921875 -23.390625 C 45.578125 -21.085938 46.148438 -19.09375 46.640625 -17.40625 C 47.140625 -15.726562 47.632812 -14.113281 48.125 -12.5625 Z M 48.125 -12.5625 "/></g></g></g><g fill="#ffffff" fill-opacity="1"><g transform="translate(554.347864, 92.682397)"><g><path d="M 49.109375 -6.640625 C 49.191406 -5.660156 49.109375 -4.882812 48.859375 -4.3125 C 48.617188 -3.738281 47.882812 -2.585938 46.65625 -0.859375 C 44.601562 -0.203125 42.550781 0.0820312 40.5 0 C 38.445312 -0.0820312 36.394531 -0.164062 34.34375 -0.25 C 32.289062 -1.394531 30.6875 -2.359375 29.53125 -3.140625 C 28.382812 -3.921875 27.421875 -4.78125 26.640625 -5.71875 C 25.867188 -6.664062 25.113281 -7.9375 24.375 -9.53125 C 23.632812 -11.132812 22.691406 -13.332031 21.546875 -16.125 C 21.546875 -17.769531 21.523438 -19.515625 21.484375 -21.359375 C 21.441406 -23.203125 21.421875 -25.066406 21.421875 -26.953125 C 21.421875 -28.109375 21.398438 -29.238281 21.359375 -30.34375 C 21.316406 -31.445312 21.296875 -32.535156 21.296875 -33.609375 C 21.378906 -34.671875 21.421875 -35.773438 21.421875 -36.921875 C 21.421875 -38.078125 21.175781 -39.144531 20.6875 -40.125 C 20.1875 -41.195312 19.585938 -41.753906 18.890625 -41.796875 C 18.191406 -41.835938 17.351562 -41.859375 16.375 -41.859375 C 15.550781 -41.859375 14.726562 -42 13.90625 -42.28125 C 13.082031 -42.570312 12.265625 -42.757812 11.453125 -42.84375 C 10.378906 -42.914062 9.289062 -42.890625 8.1875 -42.765625 C 7.082031 -42.648438 5.910156 -42.960938 4.671875 -43.703125 C 4.265625 -43.941406 3.832031 -44.390625 3.375 -45.046875 C 2.925781 -45.703125 2.5 -46.28125 2.09375 -46.78125 C 1.84375 -48.25 2.023438 -49.394531 2.640625 -50.21875 C 3.253906 -51.039062 4.097656 -51.78125 5.171875 -52.4375 C 7.054688 -53.257812 9.066406 -53.503906 11.203125 -53.171875 C 13.335938 -52.847656 15.429688 -53.015625 17.484375 -53.671875 C 17.722656 -53.992188 18.003906 -54.316406 18.328125 -54.640625 C 18.660156 -54.972656 18.867188 -55.304688 18.953125 -55.640625 C 19.117188 -56.953125 19.179688 -58.222656 19.140625 -59.453125 C 19.097656 -60.679688 18.789062 -61.910156 18.21875 -63.140625 C 17.476562 -64.953125 17.066406 -66.800781 16.984375 -68.6875 C 16.898438 -70.570312 16.898438 -72.414062 16.984375 -74.21875 C 18.296875 -75.613281 19.671875 -76.289062 21.109375 -76.25 C 22.546875 -76.207031 24.003906 -76.109375 25.484375 -75.953125 C 26.546875 -75.128906 27.28125 -74.101562 27.6875 -72.875 C 28.101562 -71.644531 28.640625 -70.410156 29.296875 -69.171875 C 29.378906 -67.367188 29.441406 -65.523438 29.484375 -63.640625 C 29.523438 -61.753906 29.585938 -59.945312 29.671875 -58.21875 C 30.078125 -56.90625 30.691406 -55.921875 31.515625 -55.265625 C 32.335938 -54.609375 33.320312 -54.160156 34.46875 -53.921875 C 35.363281 -54.078125 36.320312 -54.296875 37.34375 -54.578125 C 38.375 -54.867188 39.425781 -55.140625 40.5 -55.390625 C 41.40625 -54.984375 42.328125 -54.550781 43.265625 -54.09375 C 44.210938 -53.644531 45.132812 -53.257812 46.03125 -52.9375 C 46.613281 -52.195312 46.738281 -51.535156 46.40625 -50.953125 C 46.070312 -50.378906 45.90625 -49.765625 45.90625 -49.109375 C 46.070312 -48.867188 46.21875 -48.539062 46.34375 -48.125 C 46.46875 -47.71875 46.65625 -47.269531 46.90625 -46.78125 C 46.570312 -46.363281 46.21875 -45.929688 45.84375 -45.484375 C 45.476562 -45.035156 45.132812 -44.601562 44.8125 -44.1875 C 42.84375 -43.445312 40.929688 -43.203125 39.078125 -43.453125 C 37.234375 -43.703125 35.613281 -43.578125 34.21875 -43.078125 C 33.238281 -42.835938 32.664062 -42.328125 32.5 -41.546875 C 32.332031 -40.765625 32.289062 -39.960938 32.375 -39.140625 C 32.457031 -37.910156 32.597656 -36.597656 32.796875 -35.203125 C 33.003906 -33.804688 33.023438 -32.453125 32.859375 -31.140625 C 32.785156 -29.660156 32.625 -28.222656 32.375 -26.828125 C 32.125 -25.429688 32.039062 -24 32.125 -22.53125 C 32.207031 -20.5625 32.535156 -18.753906 33.109375 -17.109375 C 33.597656 -15.710938 34.191406 -14.476562 34.890625 -13.40625 C 35.585938 -12.34375 36.675781 -11.566406 38.15625 -11.078125 C 38.894531 -10.828125 39.65625 -10.660156 40.4375 -10.578125 C 41.21875 -10.503906 42.019531 -10.425781 42.84375 -10.34375 C 43.25 -10.34375 43.941406 -10.363281 44.921875 -10.40625 C 45.910156 -10.445312 46.570312 -10.34375 46.90625 -10.09375 C 48.375 -9.03125 49.109375 -7.878906 49.109375 -6.640625 Z M 49.109375 -6.640625 "/></g></g></g><g fill="#ffffff" fill-opacity="1"><g transform="translate(606.787702, 92.682397)"><g><path d="M 15.640625 -45.046875 C 15.878906 -42.097656 15.9375 -39.125 15.8125 -36.125 C 15.695312 -33.132812 16.171875 -30.242188 17.234375 -27.453125 C 17.316406 -24.253906 17.414062 -21.03125 17.53125 -17.78125 C 17.65625 -14.539062 17.757812 -11.363281 17.84375 -8.25 C 17.1875 -5.125 16.054688 -3.273438 14.453125 -2.703125 C 12.859375 -2.128906 10.910156 -2.085938 8.609375 -2.578125 C 8.285156 -4.140625 8 -5.515625 7.75 -6.703125 C 7.507812 -7.898438 7.265625 -9.070312 7.015625 -10.21875 C 6.847656 -11.039062 6.640625 -11.878906 6.390625 -12.734375 C 6.148438 -13.597656 5.867188 -14.566406 5.546875 -15.640625 C 5.546875 -19.578125 5.546875 -23.613281 5.546875 -27.75 C 5.546875 -31.894531 5.546875 -36.144531 5.546875 -40.5 C 6.359375 -42.632812 6.925781 -44.992188 7.25 -47.578125 C 7.582031 -50.160156 8.285156 -52.5625 9.359375 -54.78125 C 10.503906 -54.78125 11.609375 -54.78125 12.671875 -54.78125 C 13.742188 -54.78125 14.894531 -54.78125 16.125 -54.78125 C 16.289062 -53.957031 16.492188 -53.132812 16.734375 -52.3125 C 16.984375 -51.488281 17.066406 -50.707031 16.984375 -49.96875 C 16.984375 -49.070312 16.816406 -48.234375 16.484375 -47.453125 C 16.160156 -46.671875 15.878906 -45.867188 15.640625 -45.046875 Z M 8.734375 -30.890625 L 9.234375 -32 L 8.5 -32.125 Z M 11.078125 -49.359375 L 12.0625 -49.109375 L 11.6875 -50.46875 Z M 9.359375 -63.765625 C 9.109375 -64.171875 8.859375 -64.535156 8.609375 -64.859375 C 8.367188 -65.191406 8.164062 -65.566406 8 -65.984375 C 7.34375 -68.035156 7.257812 -70.085938 7.75 -72.140625 C 8.25 -74.179688 9.359375 -75.285156 11.078125 -75.453125 C 11.898438 -75.453125 12.738281 -75.453125 13.59375 -75.453125 C 14.457031 -75.453125 15.382812 -75.453125 16.375 -75.453125 C 17.269531 -73.648438 17.78125 -72.09375 17.90625 -70.78125 C 18.03125 -69.46875 17.890625 -68.15625 17.484375 -66.84375 C 16.492188 -65.363281 15.363281 -64.253906 14.09375 -63.515625 C 12.820312 -62.773438 11.242188 -62.859375 9.359375 -63.765625 Z M 9.359375 -63.765625 "/></g></g></g><g fill="#ffffff" fill-opacity="1"><g transform="translate(630.176377, 92.682397)"><g><path d="M 46.40625 -38.40625 C 46.894531 -37.257812 47.222656 -36.085938 47.390625 -34.890625 C 47.554688 -33.703125 47.640625 -32.492188 47.640625 -31.265625 C 47.640625 -29.867188 47.617188 -28.492188 47.578125 -27.140625 C 47.535156 -25.785156 47.515625 -24.535156 47.515625 -23.390625 C 46.035156 -19.773438 44.390625 -16.347656 42.578125 -13.109375 C 40.773438 -9.867188 38.15625 -6.9375 34.71875 -4.3125 C 34.0625 -3.976562 33.238281 -3.585938 32.25 -3.140625 C 31.269531 -2.691406 30.285156 -2.21875 29.296875 -1.71875 C 27.648438 -1.5625 26.007812 -1.769531 24.375 -2.34375 C 20.757812 -3.65625 17.722656 -5.582031 15.265625 -8.125 C 12.804688 -10.664062 10.835938 -13.660156 9.359375 -17.109375 C 8.535156 -19.160156 7.753906 -21.234375 7.015625 -23.328125 C 6.273438 -25.421875 5.578125 -27.535156 4.921875 -29.671875 C 4.429688 -31.066406 4.1875 -32.664062 4.1875 -34.46875 C 4.1875 -35.863281 4.226562 -37.238281 4.3125 -38.59375 C 4.394531 -39.945312 4.472656 -41.238281 4.546875 -42.46875 C 5.210938 -44.601562 5.992188 -46.550781 6.890625 -48.3125 C 7.796875 -50.070312 8.738281 -51.648438 9.71875 -53.046875 C 10.875 -54.035156 11.941406 -54.921875 12.921875 -55.703125 C 13.910156 -56.484375 14.851562 -57.242188 15.75 -57.984375 C 16.488281 -58.640625 17.25 -59.296875 18.03125 -59.953125 C 18.8125 -60.609375 19.695312 -61.097656 20.6875 -61.421875 C 25.6875 -60.597656 30.195312 -58.992188 34.21875 -56.609375 C 38.238281 -54.234375 41.6875 -50.75 44.5625 -46.15625 C 44.800781 -45.007812 45.046875 -43.757812 45.296875 -42.40625 C 45.546875 -41.050781 45.914062 -39.71875 46.40625 -38.40625 Z M 35.453125 -21.171875 C 35.941406 -22.484375 36.390625 -23.796875 36.796875 -25.109375 C 37.210938 -26.421875 37.582031 -27.691406 37.90625 -28.921875 C 37.988281 -31.304688 37.578125 -33.523438 36.671875 -35.578125 C 35.773438 -37.628906 35.242188 -39.679688 35.078125 -41.734375 C 32.785156 -45.015625 30.035156 -47.515625 26.828125 -49.234375 C 26.421875 -49.316406 26.03125 -49.398438 25.65625 -49.484375 C 25.289062 -49.566406 24.90625 -49.648438 24.5 -49.734375 C 20.800781 -50.304688 18.132812 -49.03125 16.5 -45.90625 C 16.164062 -44.019531 15.832031 -42.195312 15.5 -40.4375 C 15.175781 -38.675781 14.8125 -36.929688 14.40625 -35.203125 C 14.976562 -33.066406 15.734375 -30.992188 16.671875 -28.984375 C 17.617188 -26.972656 18.335938 -24.898438 18.828125 -22.765625 C 19.078125 -21.617188 19.53125 -20.507812 20.1875 -19.4375 C 20.84375 -18.375 21.5 -17.351562 22.15625 -16.375 C 22.488281 -15.882812 22.898438 -15.453125 23.390625 -15.078125 C 23.878906 -14.710938 24.367188 -14.363281 24.859375 -14.03125 C 25.679688 -13.539062 26.664062 -13.335938 27.8125 -13.421875 C 28.96875 -13.503906 29.875 -13.832031 30.53125 -14.40625 C 31.59375 -15.382812 32.570312 -16.40625 33.46875 -17.46875 C 34.375 -18.539062 35.035156 -19.773438 35.453125 -21.171875 Z M 35.453125 -21.171875 "/></g></g></g><g fill="#ffffff" fill-opacity="1"><g transform="translate(682.123858, 92.682397)"><g><path d="M 48.125 -12.5625 C 49.03125 -11.570312 49.972656 -10.5625 50.953125 -9.53125 C 51.941406 -8.507812 52.929688 -7.507812 53.921875 -6.53125 C 53.097656 -5.050781 52.359375 -3.59375 51.703125 -2.15625 C 51.046875 -0.71875 49.9375 0.410156 48.375 1.234375 C 47.96875 0.984375 47.578125 0.773438 47.203125 0.609375 C 46.835938 0.453125 46.488281 0.289062 46.15625 0.125 C 43.207031 -0.945312 41.15625 -2.753906 40 -5.296875 C 39.507812 -6.441406 38.976562 -7.523438 38.40625 -8.546875 C 37.832031 -9.578125 37.460938 -10.707031 37.296875 -11.9375 C 37.210938 -12.757812 36.984375 -13.539062 36.609375 -14.28125 C 36.242188 -15.019531 35.941406 -15.800781 35.703125 -16.625 C 35.285156 -19.820312 35.140625 -23 35.265625 -26.15625 C 35.390625 -29.3125 35.492188 -32.46875 35.578125 -35.625 C 35.660156 -38.789062 35.453125 -41.929688 34.953125 -45.046875 C 33.640625 -46.359375 32.304688 -46.972656 30.953125 -46.890625 C 29.597656 -46.816406 28.101562 -46.488281 26.46875 -45.90625 C 26.132812 -45.5 25.679688 -45.03125 25.109375 -44.5 C 24.535156 -43.96875 24.082031 -43.375 23.75 -42.71875 C 22.113281 -39.925781 20.597656 -37.050781 19.203125 -34.09375 C 18.867188 -33.4375 18.617188 -32.71875 18.453125 -31.9375 C 18.296875 -31.164062 18.132812 -30.367188 17.96875 -29.546875 C 17.726562 -28.390625 17.484375 -27.21875 17.234375 -26.03125 C 16.984375 -24.84375 16.898438 -23.675781 16.984375 -22.53125 C 17.066406 -21.625 17.226562 -20.675781 17.46875 -19.6875 C 17.71875 -18.707031 17.800781 -17.6875 17.71875 -16.625 C 17.71875 -15.632812 17.71875 -14.625 17.71875 -13.59375 C 17.71875 -12.570312 17.71875 -11.488281 17.71875 -10.34375 C 17.3125 -8.945312 16.878906 -7.507812 16.421875 -6.03125 C 15.972656 -4.550781 15.503906 -3.15625 15.015625 -1.84375 C 13.453125 -0.945312 12.015625 -0.617188 10.703125 -0.859375 C 9.390625 -1.109375 8.203125 -1.765625 7.140625 -2.828125 C 6.972656 -3.242188 6.804688 -3.632812 6.640625 -4 C 6.484375 -4.363281 6.40625 -4.753906 6.40625 -5.171875 C 6.320312 -8.785156 6.300781 -12.394531 6.34375 -16 C 6.382812 -19.613281 6.363281 -23.222656 6.28125 -26.828125 C 6.28125 -28.722656 6.484375 -30.53125 6.890625 -32.25 C 7.304688 -33.96875 7.675781 -35.691406 8 -37.421875 C 8.164062 -38.648438 8.0625 -39.835938 7.6875 -40.984375 C 7.320312 -42.140625 6.972656 -43.289062 6.640625 -44.4375 C 6.316406 -45.582031 6.28125 -46.8125 6.53125 -48.125 C 6.601562 -48.289062 6.617188 -48.472656 6.578125 -48.671875 C 6.546875 -48.878906 6.53125 -49.109375 6.53125 -49.359375 C 6.9375 -50.265625 7.320312 -51.1875 7.6875 -52.125 C 8.0625 -53.070312 8.492188 -54.078125 8.984375 -55.140625 C 9.804688 -55.554688 10.644531 -55.96875 11.5 -56.375 C 12.363281 -56.789062 13.207031 -57.160156 14.03125 -57.484375 C 14.851562 -57.160156 15.363281 -56.707031 15.5625 -56.125 C 15.769531 -55.550781 15.894531 -54.914062 15.9375 -54.21875 C 15.976562 -53.519531 16.242188 -52.925781 16.734375 -52.4375 C 17.972656 -52.4375 18.976562 -52.90625 19.75 -53.84375 C 20.53125 -54.789062 21.457031 -55.472656 22.53125 -55.890625 C 23.425781 -56.210938 24.347656 -56.578125 25.296875 -56.984375 C 26.242188 -57.398438 27.164062 -57.8125 28.0625 -58.21875 C 29.289062 -58.21875 30.476562 -58.21875 31.625 -58.21875 C 32.78125 -58.21875 33.929688 -58.21875 35.078125 -58.21875 C 36.640625 -57.5625 38.175781 -56.90625 39.6875 -56.25 C 41.207031 -55.59375 42.625 -54.523438 43.9375 -53.046875 C 44.351562 -52.234375 44.804688 -51.269531 45.296875 -50.15625 C 45.785156 -49.050781 46.320312 -47.84375 46.90625 -46.53125 C 46.90625 -45.132812 46.90625 -43.65625 46.90625 -42.09375 C 46.90625 -40.539062 46.90625 -38.941406 46.90625 -37.296875 C 46.90625 -36.304688 46.800781 -35.316406 46.59375 -34.328125 C 46.382812 -33.347656 46.195312 -32.367188 46.03125 -31.390625 C 45.707031 -29.992188 45.484375 -28.617188 45.359375 -27.265625 C 45.234375 -25.910156 45.085938 -24.617188 44.921875 -23.390625 C 45.578125 -21.085938 46.148438 -19.09375 46.640625 -17.40625 C 47.140625 -15.726562 47.632812 -14.113281 48.125 -12.5625 Z M 48.125 -12.5625 "/></g></g></g><g fill="#ffffff" fill-opacity="1"><g transform="translate(738.748956, 92.682397)"><g><path d="M 46.78125 -25.84375 C 47.1875 -23.550781 47.453125 -21.070312 47.578125 -18.40625 C 47.703125 -15.738281 47.4375 -12.925781 46.78125 -9.96875 C 45.625 -8.820312 44.492188 -7.613281 43.390625 -6.34375 C 42.285156 -5.070312 41.195312 -3.859375 40.125 -2.703125 C 38.726562 -2.296875 37.457031 -1.925781 36.3125 -1.59375 C 35.164062 -1.269531 34.054688 -0.90625 32.984375 -0.5 C 31.429688 0 29.894531 0.226562 28.375 0.1875 C 26.851562 0.144531 25.3125 -0.117188 23.75 -0.609375 C 21.125 -1.429688 18.539062 -2.3125 16 -3.25 C 13.457031 -4.195312 11.035156 -5.410156 8.734375 -6.890625 C 8.242188 -7.222656 7.769531 -7.570312 7.3125 -7.9375 C 6.863281 -8.3125 6.476562 -8.660156 6.15625 -8.984375 C 5.332031 -10.210938 4.675781 -11.460938 4.1875 -12.734375 C 3.695312 -14.003906 3.203125 -15.132812 2.703125 -16.125 C 3.609375 -18.09375 4.695312 -19.382812 5.96875 -20 C 7.238281 -20.613281 8.65625 -20.84375 10.21875 -20.6875 C 11.53125 -19.945312 12.472656 -19.019531 13.046875 -17.90625 C 13.617188 -16.800781 14.316406 -15.710938 15.140625 -14.640625 C 15.796875 -14.234375 16.535156 -13.785156 17.359375 -13.296875 C 18.179688 -12.804688 19.039062 -12.3125 19.9375 -11.8125 C 22.5625 -11.320312 25.226562 -11.015625 27.9375 -10.890625 C 30.644531 -10.765625 33.269531 -10.992188 35.8125 -11.578125 C 37.207031 -13.046875 37.925781 -14.539062 37.96875 -16.0625 C 38.007812 -17.582031 37.910156 -19.125 37.671875 -20.6875 C 37.335938 -22.488281 36.472656 -23.757812 35.078125 -24.5 C 33.679688 -25.238281 32.328125 -25.976562 31.015625 -26.71875 C 30.859375 -27.039062 30.695312 -27.382812 30.53125 -27.75 C 30.363281 -28.125 30.195312 -28.472656 30.03125 -28.796875 C 27.894531 -28.390625 26.296875 -28.101562 25.234375 -27.9375 C 24.171875 -27.78125 23.144531 -27.71875 22.15625 -27.75 C 21.175781 -27.789062 19.738281 -27.9375 17.84375 -28.1875 C 16.695312 -28.675781 15.734375 -29.351562 14.953125 -30.21875 C 14.171875 -31.082031 13.375 -32.003906 12.5625 -32.984375 C 12.144531 -34.628906 11.710938 -36.25 11.265625 -37.84375 C 10.816406 -39.445312 10.425781 -40.945312 10.09375 -42.34375 C 9.925781 -44.144531 10.210938 -45.660156 10.953125 -46.890625 C 11.691406 -48.128906 12.226562 -49.40625 12.5625 -50.71875 C 13.539062 -52.269531 14.6875 -53.597656 16 -54.703125 C 17.3125 -55.816406 18.664062 -56.828125 20.0625 -57.734375 C 21.863281 -58.304688 23.644531 -58.613281 25.40625 -58.65625 C 27.175781 -58.695312 28.925781 -58.632812 30.65625 -58.46875 C 35.082031 -56.988281 38.566406 -54.523438 41.109375 -51.078125 C 41.765625 -50.179688 42.175781 -49.28125 42.34375 -48.375 C 42.507812 -47.46875 42.304688 -46.523438 41.734375 -45.546875 C 40.828125 -44.554688 39.78125 -44.101562 38.59375 -44.1875 C 37.40625 -44.269531 36.273438 -44.148438 35.203125 -43.828125 C 34.296875 -44.484375 33.472656 -45.140625 32.734375 -45.796875 C 32.003906 -46.453125 31.269531 -47.066406 30.53125 -47.640625 C 28.144531 -49.441406 25.640625 -49.316406 23.015625 -47.265625 C 22.773438 -47.023438 22.53125 -46.738281 22.28125 -46.40625 C 22.03125 -46.070312 21.785156 -45.742188 21.546875 -45.421875 C 20.890625 -43.285156 20.847656 -40.820312 21.421875 -38.03125 C 22.398438 -37.132812 23.46875 -36.191406 24.625 -35.203125 C 26.59375 -35.035156 28.539062 -34.890625 30.46875 -34.765625 C 32.394531 -34.648438 34.21875 -34.507812 35.9375 -34.34375 C 38.238281 -33.601562 40.289062 -32.597656 42.09375 -31.328125 C 43.90625 -30.054688 45.46875 -28.226562 46.78125 -25.84375 Z M 46.78125 -25.84375 "/></g></g></g></g></g></svg>