<svg xmlns="http://www.w3.org/2000/svg" xmlns:xlink="http://www.w3.org/1999/xlink" width="1920" zoomAndPan="magnify" viewBox="0 0 1440 809.999993" height="1080" preserveAspectRatio="xMidYMid meet" version="1.0"><defs><clipPath id="da682dd80c"><path d="M 660.984375 797 L 892.734375 797 L 892.734375 810 L 660.984375 810 Z M 660.984375 797 " clip-rule="nonzero"/></clipPath><clipPath id="5d9017a000"><path d="M 660.984375 774 L 701 774 L 701 804 L 660.984375 804 Z M 660.984375 774 " clip-rule="nonzero"/></clipPath></defs><path fill="#9aaab4" d="M 693.171875 629.78125 L 860.546875 629.78125 L 860.546875 803.777344 L 693.171875 803.777344 Z M 693.171875 629.78125 " fill-opacity="1" fill-rule="nonzero"/><path fill="#9aaab4" d="M 860.546875 629.78125 C 860.546875 630.625 860.511719 631.46875 860.445312 632.3125 C 860.378906 633.15625 860.277344 633.996094 860.144531 634.835938 C 860.011719 635.675781 859.84375 636.511719 859.640625 637.347656 C 859.441406 638.183594 859.207031 639.011719 858.9375 639.839844 C 858.671875 640.667969 858.371094 641.492188 858.039062 642.308594 C 857.707031 643.128906 857.339844 643.941406 856.945312 644.746094 C 856.546875 645.554688 856.117188 646.355469 855.65625 647.152344 C 855.195312 647.945312 854.699219 648.730469 854.175781 649.511719 C 853.652344 650.289062 853.097656 651.0625 852.511719 651.824219 C 851.925781 652.585938 851.3125 653.339844 850.664062 654.085938 C 850.019531 654.828125 849.34375 655.5625 848.640625 656.285156 C 847.9375 657.011719 847.203125 657.722656 846.441406 658.425781 C 845.683594 659.125 844.894531 659.816406 844.078125 660.492188 C 843.261719 661.171875 842.417969 661.835938 841.550781 662.488281 C 840.683594 663.140625 839.789062 663.777344 838.867188 664.402344 C 837.949219 665.027344 837.003906 665.640625 836.035156 666.238281 C 835.066406 666.832031 834.074219 667.414062 833.0625 667.980469 C 832.046875 668.546875 831.007812 669.097656 829.949219 669.632812 C 828.890625 670.167969 827.8125 670.6875 826.710938 671.191406 C 825.613281 671.695312 824.492188 672.179688 823.355469 672.648438 C 822.214844 673.117188 821.058594 673.566406 819.882812 674 C 818.707031 674.4375 817.515625 674.851562 816.308594 675.25 C 815.101562 675.648438 813.878906 676.027344 812.640625 676.386719 C 811.402344 676.746094 810.152344 677.089844 808.886719 677.414062 C 807.621094 677.734375 806.34375 678.039062 805.054688 678.324219 C 803.761719 678.605469 802.464844 678.871094 801.152344 679.117188 C 799.84375 679.363281 798.523438 679.585938 797.195312 679.792969 C 795.867188 679.996094 794.53125 680.179688 793.1875 680.347656 C 791.84375 680.511719 790.492188 680.65625 789.140625 680.777344 C 787.785156 680.902344 786.425781 681.003906 785.0625 681.089844 C 783.699219 681.171875 782.332031 681.234375 780.964844 681.273438 C 779.597656 681.316406 778.230469 681.335938 776.859375 681.335938 C 775.488281 681.335938 774.121094 681.316406 772.753906 681.273438 C 771.386719 681.234375 770.019531 681.171875 768.65625 681.089844 C 767.292969 681.003906 765.933594 680.902344 764.578125 680.777344 C 763.226562 680.65625 761.875 680.511719 760.53125 680.347656 C 759.191406 680.179688 757.855469 679.996094 756.523438 679.792969 C 755.195312 679.585938 753.878906 679.363281 752.566406 679.117188 C 751.253906 678.871094 749.957031 678.605469 748.667969 678.324219 C 747.375 678.039062 746.097656 677.734375 744.832031 677.414062 C 743.570312 677.089844 742.316406 676.746094 741.078125 676.386719 C 739.839844 676.027344 738.617188 675.648438 737.410156 675.25 C 736.203125 674.851562 735.011719 674.4375 733.835938 674 C 732.660156 673.566406 731.503906 673.117188 730.367188 672.648438 C 729.226562 672.179688 728.105469 671.695312 727.007812 671.191406 C 725.90625 670.6875 724.828125 670.167969 723.769531 669.632812 C 722.710938 669.097656 721.671875 668.546875 720.660156 667.980469 C 719.644531 667.414062 718.652344 666.832031 717.683594 666.238281 C 716.714844 665.640625 715.769531 665.027344 714.851562 664.402344 C 713.929688 663.777344 713.039062 663.140625 712.167969 662.488281 C 711.300781 661.835938 710.457031 661.171875 709.640625 660.492188 C 708.824219 659.816406 708.035156 659.125 707.277344 658.425781 C 706.515625 657.722656 705.78125 657.011719 705.078125 656.285156 C 704.375 655.5625 703.699219 654.828125 703.054688 654.085938 C 702.40625 653.339844 701.792969 652.585938 701.207031 651.824219 C 700.621094 651.0625 700.066406 650.289062 699.542969 649.511719 C 699.019531 648.730469 698.527344 647.945312 698.0625 647.152344 C 697.601562 646.355469 697.171875 645.554688 696.777344 644.746094 C 696.378906 643.941406 696.011719 643.128906 695.679688 642.308594 C 695.347656 641.492188 695.046875 640.667969 694.78125 639.839844 C 694.511719 639.011719 694.277344 638.183594 694.078125 637.347656 C 693.875 636.511719 693.710938 635.675781 693.574219 634.835938 C 693.441406 633.996094 693.339844 633.15625 693.273438 632.3125 C 693.207031 631.46875 693.171875 630.625 693.171875 629.78125 C 693.171875 628.9375 693.207031 628.09375 693.273438 627.253906 C 693.339844 626.410156 693.441406 625.570312 693.574219 624.730469 C 693.710938 623.890625 693.875 623.050781 694.078125 622.21875 C 694.277344 621.382812 694.511719 620.550781 694.78125 619.726562 C 695.046875 618.898438 695.347656 618.074219 695.679688 617.257812 C 696.011719 616.4375 696.378906 615.625 696.777344 614.816406 C 697.171875 614.011719 697.601562 613.210938 698.0625 612.414062 C 698.527344 611.621094 699.019531 610.832031 699.542969 610.054688 C 700.066406 609.273438 700.621094 608.503906 701.207031 607.742188 C 701.792969 606.976562 702.40625 606.222656 703.054688 605.480469 C 703.699219 604.734375 704.375 604.003906 705.078125 603.277344 C 705.78125 602.554688 706.515625 601.84375 707.277344 601.140625 C 708.035156 600.4375 708.824219 599.75 709.640625 599.070312 C 710.457031 598.394531 711.300781 597.730469 712.167969 597.078125 C 713.039062 596.425781 713.929688 595.785156 714.851562 595.160156 C 715.769531 594.535156 716.714844 593.925781 717.683594 593.328125 C 718.652344 592.730469 719.644531 592.148438 720.660156 591.582031 C 721.671875 591.015625 722.710938 590.464844 723.769531 589.929688 C 724.828125 589.394531 725.90625 588.875 727.007812 588.375 C 728.105469 587.871094 729.226562 587.386719 730.367188 586.917969 C 731.503906 586.449219 732.660156 585.996094 733.835938 585.5625 C 735.011719 585.128906 736.203125 584.714844 737.410156 584.316406 C 738.617188 583.917969 739.839844 583.539062 741.078125 583.179688 C 742.316406 582.816406 743.570312 582.476562 744.832031 582.152344 C 746.097656 581.832031 747.375 581.527344 748.667969 581.242188 C 749.957031 580.957031 751.253906 580.695312 752.566406 580.449219 C 753.878906 580.203125 755.195312 579.980469 756.523438 579.773438 C 757.855469 579.570312 759.191406 579.382812 760.53125 579.21875 C 761.875 579.054688 763.226562 578.910156 764.578125 578.785156 C 765.933594 578.664062 767.292969 578.558594 768.65625 578.476562 C 770.019531 578.394531 771.386719 578.332031 772.753906 578.289062 C 774.121094 578.25 775.488281 578.230469 776.859375 578.230469 C 778.230469 578.230469 779.597656 578.25 780.964844 578.289062 C 782.332031 578.332031 783.699219 578.394531 785.0625 578.476562 C 786.425781 578.558594 787.785156 578.664062 789.140625 578.785156 C 790.492188 578.910156 791.84375 579.054688 793.1875 579.21875 C 794.53125 579.382812 795.867188 579.570312 797.195312 579.773438 C 798.523438 579.980469 799.84375 580.203125 801.152344 580.449219 C 802.464844 580.695312 803.761719 580.957031 805.054688 581.242188 C 806.34375 581.527344 807.621094 581.832031 808.886719 582.152344 C 810.152344 582.476562 811.402344 582.816406 812.640625 583.179688 C 813.878906 583.539062 815.101562 583.917969 816.308594 584.316406 C 817.515625 584.714844 818.707031 585.128906 819.882812 585.5625 C 821.058594 585.996094 822.214844 586.449219 823.355469 586.917969 C 824.492188 587.386719 825.613281 587.871094 826.710938 588.375 C 827.8125 588.875 828.890625 589.394531 829.949219 589.929688 C 831.007812 590.464844 832.046875 591.015625 833.0625 591.582031 C 834.074219 592.148438 835.066406 592.730469 836.035156 593.328125 C 837.003906 593.925781 837.949219 594.535156 838.867188 595.160156 C 839.789062 595.785156 840.683594 596.425781 841.550781 597.078125 C 842.417969 597.730469 843.261719 598.394531 844.078125 599.070312 C 844.894531 599.75 845.683594 600.4375 846.441406 601.140625 C 847.203125 601.84375 847.9375 602.554688 848.640625 603.277344 C 849.34375 604.003906 850.019531 604.734375 850.664062 605.480469 C 851.3125 606.222656 851.925781 606.976562 852.511719 607.742188 C 853.097656 608.503906 853.652344 609.273438 854.175781 610.054688 C 854.699219 610.832031 855.195312 611.621094 855.65625 612.414062 C 856.117188 613.210938 856.546875 614.011719 856.945312 614.816406 C 857.339844 615.625 857.707031 616.4375 858.039062 617.257812 C 858.371094 618.074219 858.671875 618.898438 858.9375 619.726562 C 859.207031 620.550781 859.441406 621.382812 859.640625 622.21875 C 859.84375 623.050781 860.011719 623.890625 860.144531 624.730469 C 860.277344 625.570312 860.378906 626.410156 860.445312 627.253906 C 860.511719 628.09375 860.546875 628.9375 860.546875 629.78125 Z M 860.546875 629.78125 " fill-opacity="1" fill-rule="nonzero"/><path fill="#66757f" d="M 847.671875 629.78125 C 847.671875 631.050781 847.558594 632.3125 847.332031 633.574219 C 847.105469 634.832031 846.765625 636.082031 846.3125 637.324219 C 845.859375 638.566406 845.296875 639.792969 844.621094 641.007812 C 843.949219 642.21875 843.167969 643.410156 842.28125 644.578125 C 841.394531 645.75 840.402344 646.890625 839.3125 648.007812 C 838.21875 649.125 837.027344 650.210938 835.738281 651.265625 C 834.449219 652.316406 833.070312 653.332031 831.597656 654.3125 C 830.128906 655.289062 828.570312 656.226562 826.929688 657.125 C 825.292969 658.019531 823.574219 658.867188 821.78125 659.671875 C 819.988281 660.476562 818.128906 661.226562 816.199219 661.933594 C 814.273438 662.636719 812.285156 663.285156 810.242188 663.882812 C 808.195312 664.480469 806.101562 665.019531 803.957031 665.503906 C 801.816406 665.988281 799.632812 666.414062 797.414062 666.78125 C 795.195312 667.152344 792.949219 667.457031 790.675781 667.703125 C 788.398438 667.953125 786.109375 668.136719 783.800781 668.261719 C 781.492188 668.386719 779.179688 668.449219 776.859375 668.449219 C 774.539062 668.449219 772.226562 668.386719 769.917969 668.261719 C 767.609375 668.136719 765.320312 667.953125 763.042969 667.703125 C 760.769531 667.457031 758.523438 667.152344 756.304688 666.78125 C 754.085938 666.414062 751.902344 665.988281 749.761719 665.503906 C 747.617188 665.019531 745.523438 664.480469 743.480469 663.882812 C 741.433594 663.285156 739.445312 662.636719 737.519531 661.933594 C 735.589844 661.226562 733.730469 660.476562 731.9375 659.671875 C 730.144531 658.867188 728.425781 658.019531 726.789062 657.125 C 725.148438 656.226562 723.59375 655.289062 722.121094 654.3125 C 720.648438 653.332031 719.269531 652.316406 717.980469 651.265625 C 716.691406 650.210938 715.5 649.125 714.410156 648.007812 C 713.316406 646.890625 712.324219 645.75 711.4375 644.578125 C 710.550781 643.410156 709.769531 642.21875 709.097656 641.007812 C 708.421875 639.792969 707.859375 638.566406 707.40625 637.324219 C 706.957031 636.082031 706.617188 634.832031 706.386719 633.574219 C 706.160156 632.3125 706.046875 631.050781 706.046875 629.78125 C 706.046875 628.515625 706.160156 627.253906 706.386719 625.992188 C 706.617188 624.734375 706.957031 623.480469 707.40625 622.238281 C 707.859375 620.996094 708.421875 619.769531 709.097656 618.558594 C 709.769531 617.347656 710.550781 616.15625 711.4375 614.984375 C 712.324219 613.816406 713.316406 612.671875 714.410156 611.554688 C 715.5 610.4375 716.691406 609.355469 717.980469 608.300781 C 719.269531 607.25 720.648438 606.234375 722.121094 605.253906 C 723.59375 604.273438 725.148438 603.335938 726.789062 602.441406 C 728.425781 601.546875 730.144531 600.695312 731.9375 599.894531 C 733.730469 599.089844 735.589844 598.335938 737.519531 597.632812 C 739.445312 596.929688 741.433594 596.28125 743.480469 595.683594 C 745.523438 595.085938 747.617188 594.546875 749.761719 594.058594 C 751.902344 593.574219 754.085938 593.148438 756.304688 592.78125 C 758.523438 592.414062 760.769531 592.105469 763.042969 591.859375 C 765.320312 591.613281 767.609375 591.425781 769.917969 591.304688 C 772.226562 591.179688 774.539062 591.117188 776.859375 591.117188 C 779.179688 591.117188 781.492188 591.179688 783.800781 591.304688 C 786.109375 591.425781 788.398438 591.613281 790.675781 591.859375 C 792.949219 592.105469 795.195312 592.414062 797.414062 592.78125 C 799.632812 593.148438 801.816406 593.574219 803.957031 594.058594 C 806.101562 594.546875 808.195312 595.085938 810.242188 595.683594 C 812.285156 596.28125 814.273438 596.929688 816.199219 597.632812 C 818.128906 598.335938 819.988281 599.089844 821.78125 599.894531 C 823.574219 600.695312 825.292969 601.546875 826.929688 602.441406 C 828.570312 603.335938 830.128906 604.273438 831.597656 605.253906 C 833.070312 606.234375 834.449219 607.25 835.738281 608.300781 C 837.027344 609.355469 838.21875 610.4375 839.3125 611.554688 C 840.402344 612.671875 841.394531 613.816406 842.28125 614.984375 C 843.167969 616.15625 843.949219 617.347656 844.621094 618.558594 C 845.296875 619.769531 845.859375 620.996094 846.3125 622.238281 C 846.765625 623.480469 847.105469 624.734375 847.332031 625.992188 C 847.558594 627.253906 847.671875 628.515625 847.671875 629.78125 Z M 847.671875 629.78125 " fill-opacity="1" fill-rule="nonzero"/><path fill="#ccd6dd" d="M 706.046875 636.226562 L 847.671875 636.226562 L 847.671875 803.777344 L 706.046875 803.777344 Z M 706.046875 636.226562 " fill-opacity="1" fill-rule="nonzero"/><path fill="#ccd6dd" d="M 847.671875 636.226562 C 847.671875 637.492188 847.558594 638.757812 847.332031 640.015625 C 847.105469 641.277344 846.765625 642.527344 846.3125 643.769531 C 845.859375 645.011719 845.296875 646.238281 844.621094 647.449219 C 843.949219 648.664062 843.167969 649.851562 842.28125 651.023438 C 841.394531 652.195312 840.402344 653.335938 839.3125 654.453125 C 838.21875 655.570312 837.027344 656.65625 835.738281 657.707031 C 834.449219 658.761719 833.070312 659.777344 831.597656 660.757812 C 830.128906 661.734375 828.570312 662.671875 826.929688 663.566406 C 825.292969 664.460938 823.574219 665.3125 821.78125 666.117188 C 819.988281 666.917969 818.128906 667.671875 816.199219 668.375 C 814.273438 669.078125 812.285156 669.730469 810.242188 670.328125 C 808.195312 670.921875 806.101562 671.464844 803.957031 671.949219 C 801.816406 672.433594 799.632812 672.859375 797.414062 673.226562 C 795.195312 673.59375 792.949219 673.902344 790.675781 674.148438 C 788.398438 674.394531 786.109375 674.582031 783.800781 674.707031 C 781.492188 674.832031 779.179688 674.890625 776.859375 674.890625 C 774.539062 674.890625 772.226562 674.832031 769.917969 674.707031 C 767.609375 674.582031 765.320312 674.394531 763.042969 674.148438 C 760.769531 673.902344 758.523438 673.59375 756.304688 673.226562 C 754.085938 672.859375 751.902344 672.433594 749.761719 671.949219 C 747.617188 671.464844 745.523438 670.921875 743.480469 670.328125 C 741.433594 669.730469 739.445312 669.078125 737.519531 668.375 C 735.589844 667.671875 733.730469 666.917969 731.9375 666.117188 C 730.144531 665.3125 728.425781 664.460938 726.789062 663.566406 C 725.148438 662.671875 723.59375 661.734375 722.121094 660.757812 C 720.648438 659.777344 719.269531 658.761719 717.980469 657.707031 C 716.691406 656.65625 715.5 655.570312 714.410156 654.453125 C 713.316406 653.335938 712.324219 652.195312 711.4375 651.023438 C 710.550781 649.851562 709.769531 648.664062 709.097656 647.449219 C 708.421875 646.238281 707.859375 645.011719 707.40625 643.769531 C 706.957031 642.527344 706.617188 641.277344 706.386719 640.015625 C 706.160156 638.757812 706.046875 637.492188 706.046875 636.226562 C 706.046875 634.960938 706.160156 633.695312 706.386719 632.4375 C 706.617188 631.175781 706.957031 629.925781 707.40625 628.683594 C 707.859375 627.441406 708.421875 626.214844 709.097656 625.003906 C 709.769531 623.792969 710.550781 622.601562 711.4375 621.429688 C 712.324219 620.261719 713.316406 619.117188 714.410156 618 C 715.5 616.882812 716.691406 615.796875 717.980469 614.746094 C 719.269531 613.691406 720.648438 612.675781 722.121094 611.699219 C 723.59375 610.71875 725.148438 609.78125 726.789062 608.886719 C 728.425781 607.992188 730.144531 607.140625 731.9375 606.339844 C 733.730469 605.535156 735.589844 604.78125 737.519531 604.078125 C 739.445312 603.375 741.433594 602.722656 743.480469 602.128906 C 745.523438 601.53125 747.617188 600.988281 749.761719 600.503906 C 751.902344 600.019531 754.085938 599.59375 756.304688 599.226562 C 758.523438 598.859375 760.769531 598.550781 763.042969 598.304688 C 765.320312 598.058594 767.609375 597.871094 769.917969 597.746094 C 772.226562 597.625 774.539062 597.5625 776.859375 597.5625 C 779.179688 597.5625 781.492188 597.625 783.800781 597.746094 C 786.109375 597.871094 788.398438 598.058594 790.675781 598.304688 C 792.949219 598.550781 795.195312 598.859375 797.414062 599.226562 C 799.632812 599.59375 801.816406 600.019531 803.957031 600.503906 C 806.101562 600.988281 808.195312 601.53125 810.242188 602.128906 C 812.285156 602.722656 814.273438 603.375 816.199219 604.078125 C 818.128906 604.78125 819.988281 605.535156 821.78125 606.339844 C 823.574219 607.140625 825.292969 607.992188 826.929688 608.886719 C 828.570312 609.78125 830.128906 610.71875 831.597656 611.699219 C 833.070312 612.675781 834.449219 613.691406 835.738281 614.746094 C 837.027344 615.796875 838.21875 616.882812 839.3125 618 C 840.402344 619.117188 841.394531 620.261719 842.28125 621.429688 C 843.167969 622.601562 843.949219 623.792969 844.621094 625.003906 C 845.296875 626.214844 845.859375 627.441406 846.3125 628.683594 C 846.765625 629.925781 847.105469 631.175781 847.332031 632.4375 C 847.558594 633.695312 847.671875 634.960938 847.671875 636.226562 Z M 847.671875 636.226562 " fill-opacity="1" fill-rule="nonzero"/><path fill="#66757f" d="M 818.703125 726.445312 L 735.015625 726.445312 C 733.246094 726.445312 731.796875 724.996094 731.796875 723.222656 L 731.796875 710.335938 C 731.796875 708.5625 733.246094 707.113281 735.015625 707.113281 L 818.703125 707.113281 C 820.472656 707.113281 821.921875 708.5625 821.921875 710.335938 L 821.921875 723.222656 C 821.921875 724.996094 820.472656 726.445312 818.703125 726.445312 Z M 799.390625 752.222656 L 754.328125 752.222656 C 752.558594 752.222656 751.109375 750.773438 751.109375 749 L 751.109375 742.554688 C 751.109375 740.785156 752.558594 739.335938 754.328125 739.335938 L 799.390625 739.335938 C 801.160156 739.335938 802.609375 740.785156 802.609375 742.554688 L 802.609375 749 C 802.609375 750.773438 801.160156 752.222656 799.390625 752.222656 Z M 818.703125 778 L 735.015625 778 C 733.246094 778 731.796875 776.550781 731.796875 774.777344 L 731.796875 768.332031 C 731.796875 766.5625 733.246094 765.113281 735.015625 765.113281 L 818.703125 765.113281 C 820.472656 765.113281 821.921875 766.5625 821.921875 768.332031 L 821.921875 774.777344 C 821.921875 776.550781 820.472656 778 818.703125 778 Z M 818.703125 778 " fill-opacity="1" fill-rule="nonzero"/><path fill="#9aaab4" d="M 818.703125 726.445312 L 735.015625 726.445312 C 733.246094 726.445312 731.796875 724.996094 731.796875 723.222656 L 731.796875 716.78125 C 731.796875 715.007812 733.246094 713.558594 735.015625 713.558594 L 818.703125 713.558594 C 820.472656 713.558594 821.921875 715.007812 821.921875 716.78125 L 821.921875 723.222656 C 821.921875 724.996094 820.472656 726.445312 818.703125 726.445312 Z M 799.390625 752.222656 L 754.328125 752.222656 C 752.558594 752.222656 751.109375 750.773438 751.109375 749 C 751.109375 747.230469 752.558594 745.777344 754.328125 745.777344 L 799.390625 745.777344 C 801.160156 745.777344 802.609375 747.230469 802.609375 749 C 802.609375 750.773438 801.160156 752.222656 799.390625 752.222656 Z M 818.703125 778 L 735.015625 778 C 733.246094 778 731.796875 776.550781 731.796875 774.777344 C 731.796875 773.003906 733.246094 771.554688 735.015625 771.554688 L 818.703125 771.554688 C 820.472656 771.554688 821.921875 773.003906 821.921875 774.777344 C 821.921875 776.550781 820.472656 778 818.703125 778 Z M 818.703125 778 " fill-opacity="1" fill-rule="nonzero"/><path fill="#66757f" d="M 776.859375 629.78125 C 776.859375 629.78125 770.421875 616.894531 757.546875 616.894531 C 744.671875 616.894531 732.125 630.773438 738.234375 649.117188 C 744.671875 668.449219 776.859375 687.78125 776.859375 687.78125 C 776.859375 687.78125 809.046875 668.449219 815.484375 649.117188 C 821.59375 630.773438 809.046875 616.894531 796.171875 616.894531 C 783.296875 616.894531 776.859375 629.78125 776.859375 629.78125 Z M 776.859375 629.78125 " fill-opacity="1" fill-rule="nonzero"/><path fill="#9aaab4" d="M 776.859375 636.226562 C 776.859375 636.226562 770.421875 623.339844 757.546875 623.339844 C 744.671875 623.339844 734.261719 635.265625 738.234375 649.117188 C 740.421875 656.746094 747.3125 664.273438 754.046875 670.671875 C 764.738281 680.820312 776.859375 687.78125 776.859375 687.78125 C 776.859375 687.78125 785.957031 682.058594 796.925781 672.964844 C 804.160156 666.972656 812.246094 657.859375 815.484375 649.117188 C 820.488281 635.601562 809.046875 623.339844 796.171875 623.339844 C 783.296875 623.339844 776.859375 636.226562 776.859375 636.226562 Z M 776.859375 636.226562 " fill-opacity="1" fill-rule="nonzero"/><g clip-path="url(#da682dd80c)"><path fill="#d99e82" d="M 660.984375 810.222656 L 892.734375 810.222656 C 892.734375 810.222656 866.984375 797.332031 776.859375 797.332031 C 686.734375 797.332031 660.984375 810.222656 660.984375 810.222656 Z M 660.984375 810.222656 " fill-opacity="1" fill-rule="nonzero"/></g><g clip-path="url(#5d9017a000)"><path fill="#3f7123" d="M 699.898438 797.324219 C 705.9375 787.242188 680.445312 770.222656 660.984375 775.640625 C 662.175781 796.390625 690.171875 813.589844 699.898438 797.324219 Z M 699.898438 797.324219 " fill-opacity="1" fill-rule="nonzero"/></g><path fill="#5d9040" d="M 697.425781 802.789062 C 679.621094 806.722656 669.515625 771.238281 679.78125 745.777344 C 698.871094 748.828125 720.132812 797.769531 697.425781 802.789062 Z M 697.425781 802.789062 " fill-opacity="1" fill-rule="nonzero"/><path fill="#78b159" d="M 699.90625 802.152344 C 712.484375 803.777344 725.964844 781.910156 720.757812 761.671875 C 705.113281 761.671875 681.4375 799.761719 699.90625 802.152344 Z M 699.90625 802.152344 " fill-opacity="1" fill-rule="nonzero"/></svg>