<svg xmlns="http://www.w3.org/2000/svg" xmlns:xlink="http://www.w3.org/1999/xlink" width="1920" zoomAndPan="magnify" viewBox="0 0 1440 809.999993" height="1080" preserveAspectRatio="xMidYMid meet" version="1.0"><defs><clipPath id="2e798afe10"><path d="M 570 411.929688 L 620 411.929688 L 620 508 L 570 508 Z M 570 411.929688 " clip-rule="nonzero"/></clipPath><clipPath id="5de65deb37"><path d="M 453.425781 732 L 730.175781 732 L 730.175781 810 L 453.425781 810 Z M 453.425781 732 " clip-rule="nonzero"/></clipPath></defs><path fill="#4d4d4d" d="M 595.921875 499.289062 C 594.464844 499.210938 593 499.167969 591.519531 499.167969 C 556.886719 499.167969 527.808594 520.636719 519.703125 549.640625 L 528.511719 549.640625 C 536.273438 521.871094 563.25 501.019531 595.921875 499.289062 Z M 595.921875 499.289062 " fill-opacity="1" fill-rule="nonzero"/><path fill="#4d4d4d" d="M 570.71875 431.550781 L 583.425781 431.550781 L 583.425781 417.03125 C 583.425781 414.664062 585.363281 412.722656 587.730469 412.722656 L 597.132812 412.722656 C 599.503906 412.722656 601.441406 414.664062 601.441406 417.03125 L 601.441406 431.546875 L 614.144531 431.546875 C 615.855469 431.546875 617.253906 432.949219 617.253906 434.660156 L 617.253906 446.460938 C 617.253906 448.171875 615.855469 449.574219 614.144531 449.574219 L 601.441406 449.574219 L 601.441406 503.746094 C 601.441406 506.113281 599.503906 508.054688 597.132812 508.054688 L 587.730469 508.054688 C 585.363281 508.054688 583.425781 506.113281 583.425781 503.746094 L 583.425781 449.574219 L 570.71875 449.574219 C 569.011719 449.574219 567.609375 448.175781 567.609375 446.464844 L 567.609375 434.660156 C 567.609375 432.949219 569.011719 431.550781 570.71875 431.550781 Z M 570.71875 431.550781 " fill-opacity="1" fill-rule="nonzero"/><g clip-path="url(#2e798afe10)"><path fill="#999999" d="M 573.121094 430.75 L 585.824219 430.75 L 585.824219 416.230469 C 585.824219 413.859375 587.761719 411.921875 590.132812 411.921875 L 599.535156 411.921875 C 601.902344 411.921875 603.84375 413.859375 603.84375 416.230469 L 603.84375 430.75 L 616.546875 430.75 C 618.257812 430.75 619.65625 432.148438 619.65625 433.859375 L 619.65625 445.664062 C 619.65625 447.375 618.257812 448.773438 616.546875 448.773438 L 603.84375 448.773438 L 603.84375 502.945312 C 603.84375 505.316406 601.902344 507.257812 599.535156 507.257812 L 590.132812 507.257812 C 587.761719 507.257812 585.824219 505.316406 585.824219 502.945312 L 585.824219 448.773438 L 573.121094 448.773438 C 571.410156 448.773438 570.011719 447.375 570.011719 445.664062 L 570.011719 433.859375 C 570.011719 432.148438 571.410156 430.75 573.121094 430.75 Z M 573.121094 430.75 " fill-opacity="1" fill-rule="nonzero"/></g><path fill="#4d4d4d" d="M 527.378906 803.15625 C 517.917969 722.277344 508.457031 641.402344 499 560.527344 C 498.273438 554.304688 503.132812 548.839844 509.394531 548.839844 L 500.585938 548.839844 C 494.328125 548.839844 489.464844 554.304688 490.191406 560.527344 C 499.652344 641.402344 509.113281 722.28125 518.570312 803.15625 C 519.1875 808.429688 523.65625 812.40625 528.964844 812.40625 L 537.773438 812.40625 C 532.460938 812.40625 527.996094 808.433594 527.378906 803.15625 Z M 527.378906 803.15625 " fill-opacity="1" fill-rule="nonzero"/><path fill="#999999" d="M 663.667969 803.15625 C 673.125 722.277344 682.585938 641.402344 692.042969 560.527344 C 692.769531 554.304688 687.914062 548.839844 681.648438 548.839844 L 662.535156 548.839844 C 654.773438 521.078125 627.796875 500.222656 595.125 498.488281 C 562.453125 500.222656 535.472656 521.078125 527.714844 548.839844 L 508.597656 548.839844 C 502.339844 548.839844 497.476562 554.304688 498.203125 560.527344 C 507.664062 641.402344 517.125 722.28125 526.582031 803.15625 C 527.199219 808.429688 531.667969 812.40625 536.976562 812.40625 L 653.277344 812.40625 C 658.582031 812.40625 663.050781 808.433594 663.667969 803.15625 Z M 663.667969 803.15625 " fill-opacity="1" fill-rule="nonzero"/><path fill="#666666" d="M 672.03125 564.355469 L 656.125 564.355469 C 650.207031 535.578125 624.546875 514.949219 595.492188 515.363281 C 567.070312 515.769531 542.390625 536.214844 536.609375 564.355469 L 520.703125 564.355469 C 515.492188 564.355469 511.449219 568.902344 512.050781 574.078125 C 519.925781 641.378906 527.792969 708.675781 535.667969 775.976562 C 536.179688 780.363281 539.898438 783.675781 544.316406 783.675781 L 648.421875 783.675781 C 652.839844 783.675781 656.554688 780.363281 657.070312 775.976562 C 664.941406 708.675781 672.8125 641.378906 680.683594 574.078125 C 681.285156 568.902344 677.242188 564.355469 672.03125 564.355469 Z M 672.03125 564.355469 " fill-opacity="1" fill-rule="nonzero"/><path fill="#4d4d4d" d="M 672.03125 564.355469 L 656.125 564.355469 C 650.207031 535.578125 624.546875 514.949219 595.492188 515.363281 C 582.695312 515.550781 570.664062 519.792969 560.769531 526.96875 C 569.542969 521.882812 579.621094 518.945312 590.222656 518.792969 C 619.277344 518.375 644.941406 539.007812 650.855469 567.78125 L 666.761719 567.78125 C 671.972656 567.78125 676.015625 572.328125 675.410156 577.503906 C 667.539062 644.804688 659.667969 712.101562 651.796875 779.402344 C 651.617188 780.925781 651.054688 782.316406 650.210938 783.488281 C 653.808594 782.734375 656.625 779.753906 657.066406 775.976562 C 664.9375 708.675781 672.808594 641.378906 680.679688 574.078125 C 681.285156 568.902344 677.242188 564.355469 672.03125 564.355469 Z M 672.03125 564.355469 " fill-opacity="1" fill-rule="nonzero"/><g clip-path="url(#5de65deb37)"><path fill="#333333" d="M 708.242188 780.808594 C 713.03125 763.582031 720.382812 747.167969 730.070312 732.125 C 716.265625 745 705.652344 760.914062 699.074219 778.609375 C 698.75 779.484375 698.441406 780.363281 698.136719 781.246094 C 697.734375 779.363281 697.285156 777.492188 696.785156 775.632812 C 693.28125 762.53125 687.203125 750.257812 678.910156 739.527344 C 684.308594 754.539062 687.554688 770.246094 688.550781 786.167969 C 688.582031 786.714844 688.617188 787.261719 688.644531 787.8125 C 688.746094 789.773438 688.808594 791.734375 688.84375 793.699219 C 688.773438 793.421875 688.707031 793.144531 688.632812 792.867188 C 687.65625 789.097656 686.488281 785.378906 685.128906 781.726562 C 679.121094 765.558594 669.425781 751.019531 656.8125 739.257812 C 662.070312 747.417969 666.566406 756.023438 670.277344 764.960938 C 669.179688 766.574219 668.148438 768.234375 667.1875 769.925781 C 663.691406 765.285156 659.804688 760.949219 655.558594 756.960938 C 655.363281 753.777344 655.234375 750.589844 655.175781 747.390625 C 654.613281 749.996094 654.132812 752.628906 653.730469 755.277344 C 653.308594 754.902344 652.894531 754.527344 652.46875 754.160156 C 652.855469 754.796875 653.230469 755.4375 653.609375 756.082031 C 653.050781 759.878906 652.660156 763.710938 652.433594 767.5625 C 649.582031 770.414062 646.9375 773.46875 644.511719 776.6875 C 643.695312 775.246094 642.820312 773.84375 641.886719 772.472656 C 645.035156 764.886719 648.855469 757.582031 653.316406 750.652344 C 642.609375 760.632812 634.378906 772.980469 629.277344 786.703125 C 628.121094 789.804688 627.132812 792.960938 626.300781 796.160156 C 626.242188 796.394531 626.183594 796.628906 626.125 796.867188 C 626.15625 795.203125 626.210938 793.535156 626.296875 791.871094 C 626.320312 791.40625 626.351562 790.941406 626.375 790.476562 C 626.925781 781.699219 628.285156 773 630.421875 764.492188 C 630.65625 764.097656 630.886719 763.695312 631.125 763.304688 C 630.949219 763.457031 630.777344 763.613281 630.605469 763.769531 C 631.722656 759.417969 633.035156 755.121094 634.558594 750.886719 C 629.628906 757.269531 625.621094 764.296875 622.640625 771.753906 C 620.242188 774.492188 618.023438 777.378906 615.988281 780.394531 C 615.660156 779.605469 615.324219 778.816406 614.976562 778.035156 C 618.945312 766.289062 624.351562 755.054688 631.082031 744.605469 C 623.085938 752.0625 616.355469 760.722656 611.105469 770.246094 C 605.859375 760.722656 599.128906 752.0625 591.128906 744.605469 C 597.863281 755.054688 603.265625 766.289062 607.234375 778.035156 C 606.886719 778.820312 606.550781 779.605469 606.222656 780.394531 C 604.191406 777.378906 601.964844 774.492188 599.570312 771.753906 C 596.589844 764.296875 592.585938 757.269531 587.652344 750.886719 C 589.175781 755.121094 590.488281 759.417969 591.605469 763.769531 C 591.433594 763.613281 591.261719 763.457031 591.085938 763.304688 C 591.324219 763.699219 591.558594 764.097656 591.792969 764.492188 C 593.929688 773 595.289062 781.699219 595.835938 790.476562 C 595.863281 790.941406 595.890625 791.40625 595.914062 791.871094 C 596 793.539062 596.054688 795.203125 596.085938 796.867188 C 596.027344 796.632812 595.96875 796.394531 595.910156 796.160156 C 595.078125 792.957031 594.085938 789.804688 592.933594 786.703125 C 587.835938 772.980469 579.605469 760.636719 568.898438 750.652344 C 573.355469 757.582031 577.175781 764.886719 580.324219 772.472656 C 579.394531 773.84375 578.519531 775.246094 577.703125 776.6875 C 575.671875 773.992188 573.488281 771.417969 571.15625 768.972656 C 571.890625 766.417969 572.703125 763.882812 573.605469 761.375 C 572.136719 763.277344 570.761719 765.246094 569.492188 767.277344 C 568.945312 766.738281 568.394531 766.207031 567.832031 765.679688 C 567.667969 762.980469 567.554688 760.269531 567.507812 757.558594 C 567.027344 759.769531 566.621094 762.003906 566.277344 764.253906 C 565.921875 763.9375 565.570312 763.613281 565.210938 763.304688 C 565.539062 763.84375 565.855469 764.390625 566.179688 764.9375 C 565.675781 768.367188 565.332031 771.835938 565.144531 775.324219 C 564.113281 777.5625 563.191406 779.851562 562.390625 782.191406 C 562.113281 782.066406 561.832031 781.941406 561.554688 781.820312 C 561.589844 781.78125 561.632812 781.738281 561.671875 781.703125 C 561.605469 781.730469 561.542969 781.757812 561.476562 781.789062 C 561.410156 781.757812 561.347656 781.730469 561.28125 781.703125 C 561.316406 781.738281 561.359375 781.785156 561.394531 781.820312 C 560.722656 782.113281 560.058594 782.410156 559.402344 782.714844 C 558.324219 776.78125 557.492188 770.769531 556.90625 764.707031 C 557.183594 764.238281 557.457031 763.769531 557.738281 763.304688 C 557.4375 763.566406 557.148438 763.832031 556.851562 764.09375 C 556.332031 758.558594 556.015625 752.984375 555.910156 747.390625 C 554.484375 753.984375 553.574219 760.746094 553.171875 767.5625 C 550.316406 770.414062 547.671875 773.46875 545.246094 776.6875 C 544.429688 775.246094 543.554688 773.84375 542.621094 772.472656 C 545.769531 764.886719 549.589844 757.582031 554.050781 750.652344 C 543.347656 760.632812 535.117188 772.980469 530.011719 786.703125 C 528.859375 789.804688 527.867188 792.960938 527.039062 796.160156 C 526.976562 796.394531 526.917969 796.628906 526.863281 796.867188 C 526.890625 795.203125 526.945312 793.535156 527.03125 791.871094 C 527.058594 791.40625 527.085938 790.941406 527.113281 790.476562 C 527.660156 781.699219 529.019531 773 531.15625 764.492188 C 531.390625 764.097656 531.621094 763.695312 531.863281 763.304688 C 531.6875 763.457031 531.515625 763.613281 531.339844 763.769531 C 532.457031 759.417969 533.773438 755.121094 535.296875 750.886719 C 530.363281 757.269531 526.359375 764.296875 523.375 771.753906 C 520.980469 774.492188 518.757812 777.378906 516.722656 780.394531 C 516.394531 779.605469 516.058594 778.816406 515.710938 778.035156 C 519.683594 766.289062 525.089844 755.054688 531.816406 744.605469 C 523.820312 752.0625 517.089844 760.722656 511.84375 770.246094 C 506.597656 760.722656 499.863281 752.0625 491.867188 744.605469 C 498.597656 755.054688 504 766.289062 507.972656 778.035156 C 507.625 778.820312 507.285156 779.605469 506.960938 780.394531 C 504.925781 777.378906 502.703125 774.492188 500.308594 771.753906 C 497.324219 764.296875 493.320312 757.269531 488.386719 750.886719 C 489.910156 755.121094 491.230469 759.417969 492.34375 763.769531 C 492.167969 763.613281 491.996094 763.457031 491.820312 763.304688 C 492.0625 763.699219 492.292969 764.097656 492.527344 764.492188 C 494.664062 773 496.023438 781.699219 496.570312 790.476562 C 496.601562 790.941406 496.625 791.40625 496.652344 791.871094 C 496.738281 793.539062 496.792969 795.203125 496.820312 796.867188 C 496.765625 796.632812 496.707031 796.394531 496.644531 796.160156 C 495.816406 792.957031 494.820312 789.804688 493.671875 786.703125 C 488.570312 772.980469 480.339844 760.636719 469.632812 750.652344 C 474.09375 757.582031 477.914062 764.886719 481.0625 772.472656 C 480.128906 773.84375 479.253906 775.246094 478.4375 776.6875 C 475.472656 772.75 472.167969 769.066406 468.566406 765.679688 C 468.402344 762.980469 468.292969 760.269531 468.242188 757.558594 C 467.761719 759.769531 467.355469 762.003906 467.015625 764.253906 C 466.660156 763.9375 466.304688 763.613281 465.945312 763.304688 C 466.273438 763.84375 466.59375 764.390625 466.914062 764.9375 C 466.027344 771.015625 465.628906 777.210938 465.734375 783.410156 C 464.523438 782.808594 463.28125 782.242188 462.011719 781.703125 C 463.164062 782.859375 464.460938 784.253906 465.800781 785.882812 C 465.863281 787.453125 465.953125 789.019531 466.074219 790.585938 L 466.085938 790.730469 C 466.167969 791.757812 466.269531 792.785156 466.378906 793.808594 C 462.96875 787.953125 458.617188 782.6875 453.480469 778.242188 C 458.625 786.742188 462.496094 795.953125 464.96875 805.578125 C 465.742188 808.578125 466.375 811.609375 466.867188 814.664062 L 707.886719 814.664062 C 708.707031 809.589844 709.757812 804.550781 711.039062 799.570312 C 715.148438 783.582031 721.578125 768.285156 730.121094 754.164062 C 721.359375 761.746094 713.96875 770.761719 708.242188 780.808594 Z M 671.046875 766.855469 C 673.6875 773.4375 675.890625 780.199219 677.652344 787.09375 C 677.5 786.785156 677.359375 786.472656 677.207031 786.167969 L 677.128906 786.011719 C 674.867188 781.449219 672.269531 777.074219 669.367188 772.917969 C 669.875 770.882812 670.433594 768.859375 671.046875 766.855469 Z M 667.03125 784.804688 C 668.191406 788.054688 669.25 791.347656 670.207031 794.671875 C 670.207031 794.667969 670.207031 794.667969 670.207031 794.667969 C 669.171875 792.476562 667.929688 790.519531 666.527344 788.746094 C 666.675781 787.429688 666.84375 786.117188 667.03125 784.804688 Z M 663.84375 776.574219 C 662.859375 778.820312 661.984375 781.121094 661.230469 783.457031 C 660.851562 783.15625 660.472656 782.859375 660.082031 782.570312 C 660.371094 782.265625 660.65625 781.972656 660.933594 781.699219 C 660.503906 781.882812 660.074219 782.070312 659.652344 782.257812 C 659.25 781.96875 658.84375 781.6875 658.433594 781.410156 C 657.46875 775.898438 656.710938 770.320312 656.167969 764.703125 C 656.445312 764.234375 656.71875 763.765625 657 763.300781 C 656.699219 763.558594 656.40625 763.828125 656.113281 764.089844 C 655.980469 762.675781 655.859375 761.253906 655.753906 759.835938 C 658.757812 765.269531 661.457031 770.855469 663.84375 776.574219 Z M 652.25 771.804688 C 652.191406 773.816406 652.1875 775.828125 652.222656 777.84375 C 651.4375 777.453125 650.640625 777.078125 649.835938 776.710938 C 650.605469 775.058594 651.414062 773.425781 652.25 771.804688 Z M 649.460938 777.511719 C 650.371094 778.484375 651.324219 779.558594 652.300781 780.746094 C 652.335938 781.652344 652.378906 782.5625 652.433594 783.46875 C 652.273438 784.460938 652.109375 785.449219 651.9375 786.4375 C 651.652344 786.628906 651.371094 786.820312 651.089844 787.019531 C 649.964844 785.285156 648.765625 783.601562 647.492188 781.972656 C 648.121094 780.476562 648.78125 778.988281 649.460938 777.511719 Z M 644.640625 789.316406 C 644.800781 790.429688 644.941406 791.542969 645.066406 792.660156 C 643.875 794.164062 642.824219 795.828125 641.945312 797.683594 C 641.945312 797.6875 641.941406 797.6875 641.941406 797.691406 C 642.757812 794.871094 643.652344 792.078125 644.640625 789.316406 Z M 641.230469 774.078125 C 641.355469 774.484375 641.476562 774.890625 641.59375 775.296875 C 641.394531 775.097656 641.1875 774.898438 640.984375 774.699219 C 641.066406 774.492188 641.148438 774.285156 641.230469 774.078125 Z M 640.375 776.257812 C 641.023438 777.433594 641.648438 778.625 642.253906 779.824219 C 639.953125 783.175781 637.882812 786.6875 636.070312 790.34375 L 636.003906 790.476562 C 635.875 790.738281 635.753906 791 635.625 791.261719 C 636.929688 786.164062 638.511719 781.15625 640.375 776.257812 Z M 580.980469 774.078125 C 583.21875 779.667969 585.09375 785.40625 586.585938 791.257812 C 586.460938 790.996094 586.339844 790.734375 586.207031 790.472656 L 586.144531 790.339844 C 584.222656 786.46875 582.015625 782.753906 579.554688 779.226562 C 579.984375 777.5 580.460938 775.78125 580.980469 774.078125 Z M 577.574219 789.316406 C 578.558594 792.078125 579.453125 794.871094 580.269531 797.691406 C 580.269531 797.691406 580.269531 797.691406 580.269531 797.6875 C 579.386719 795.828125 578.335938 794.164062 577.144531 792.664062 C 577.269531 791.546875 577.410156 790.429688 577.574219 789.316406 Z M 570.25 772.34375 C 571.917969 775.613281 573.457031 778.945312 574.871094 782.332031 C 574.03125 784.234375 573.292969 786.1875 572.648438 788.175781 C 571.886719 787.5625 571.09375 786.984375 570.277344 786.4375 C 569.894531 784.253906 569.546875 782.054688 569.246094 779.851562 C 569.558594 779.308594 569.878906 778.773438 570.203125 778.238281 C 569.851562 778.542969 569.5 778.855469 569.15625 779.167969 C 569.097656 778.734375 569.035156 778.296875 568.980469 777.863281 C 569.355469 776.011719 569.78125 774.175781 570.25 772.34375 Z M 568.464844 768.976562 C 568.347656 769.179688 568.230469 769.382812 568.113281 769.585938 C 568.074219 769.097656 568.035156 768.609375 568 768.121094 C 568.15625 768.40625 568.308594 768.691406 568.464844 768.976562 Z M 561.476562 781.898438 C 561.71875 782.144531 561.972656 782.402344 562.230469 782.671875 C 561.765625 784.058594 561.339844 785.457031 560.957031 786.871094 C 560.625 786.449219 560.289062 786.03125 559.949219 785.617188 C 559.835938 785.035156 559.726562 784.445312 559.617188 783.863281 C 560.261719 783.148438 560.886719 782.492188 561.476562 781.898438 Z M 552.988281 771.804688 C 552.925781 774.011719 552.921875 776.21875 552.96875 778.429688 C 552.894531 778.367188 552.824219 778.296875 552.75 778.234375 C 552.824219 778.359375 552.898438 778.484375 552.96875 778.609375 C 553.007812 780.230469 553.074219 781.851562 553.167969 783.46875 C 553.011719 784.460938 552.84375 785.449219 552.671875 786.4375 C 552.386719 786.628906 552.105469 786.820312 551.828125 787.019531 C 550.699219 785.285156 549.5 783.601562 548.226562 781.972656 C 549.679688 778.519531 551.269531 775.132812 552.988281 771.804688 Z M 545.378906 789.316406 C 545.539062 790.429688 545.679688 791.542969 545.804688 792.660156 C 544.613281 794.164062 543.5625 795.828125 542.683594 797.683594 C 542.683594 797.6875 542.679688 797.6875 542.679688 797.691406 C 543.492188 794.871094 544.390625 792.078125 545.378906 789.316406 Z M 541.96875 774.078125 C 542.09375 774.484375 542.214844 774.890625 542.332031 775.296875 C 542.132812 775.097656 541.925781 774.898438 541.722656 774.699219 C 541.800781 774.492188 541.882812 774.285156 541.96875 774.078125 Z M 541.113281 776.257812 C 541.761719 777.433594 542.386719 778.625 542.992188 779.824219 C 540.695312 783.175781 538.621094 786.6875 536.808594 790.34375 L 536.742188 790.476562 C 536.613281 790.738281 536.492188 791 536.363281 791.261719 C 537.664062 786.164062 539.246094 781.15625 541.113281 776.257812 Z M 481.71875 774.078125 C 483.957031 779.667969 485.832031 785.40625 487.324219 791.257812 C 487.199219 790.996094 487.078125 790.734375 486.949219 790.472656 L 486.882812 790.339844 C 484.960938 786.46875 482.753906 782.753906 480.292969 779.226562 C 480.722656 777.5 481.199219 775.78125 481.71875 774.078125 Z M 478.3125 789.316406 C 479.296875 792.078125 480.191406 794.871094 481.007812 797.691406 C 481.007812 797.691406 481.007812 797.691406 481.007812 797.6875 C 480.125 795.828125 479.074219 794.164062 477.882812 792.664062 C 478.007812 791.546875 478.148438 790.429688 478.3125 789.316406 Z M 471.011719 786.4375 C 469.957031 780.410156 469.195312 774.289062 468.738281 768.121094 C 471.289062 772.734375 473.578125 777.476562 475.605469 782.332031 C 474.765625 784.234375 474.027344 786.1875 473.382812 788.175781 C 472.621094 787.5625 471.832031 786.984375 471.011719 786.4375 Z M 471.011719 786.4375 " fill-opacity="1" fill-rule="nonzero"/></g><path fill="#999999" d="M 593.136719 597.109375 C 590.992188 597.109375 589.867188 596.609375 588.878906 596.171875 C 588.042969 595.796875 587.382812 595.507812 585.917969 595.507812 C 584.453125 595.507812 583.796875 595.796875 582.960938 596.171875 C 581.96875 596.609375 580.84375 597.109375 578.699219 597.109375 C 576.554688 597.109375 575.429688 596.609375 574.441406 596.171875 C 573.605469 595.796875 572.945312 595.507812 571.484375 595.507812 C 570.019531 595.507812 569.359375 595.796875 568.527344 596.171875 C 567.539062 596.609375 566.414062 597.109375 564.269531 597.109375 C 562.125 597.109375 561 596.609375 560.007812 596.171875 C 559.171875 595.796875 558.515625 595.507812 557.050781 595.507812 C 556.167969 595.507812 555.445312 594.785156 555.445312 593.902344 C 555.445312 593.015625 556.167969 592.296875 557.050781 592.296875 C 559.195312 592.296875 560.320312 592.796875 561.3125 593.238281 C 562.148438 593.609375 562.804688 593.902344 564.269531 593.902344 C 565.730469 593.902344 566.390625 593.609375 567.222656 593.238281 C 568.214844 592.796875 569.339844 592.296875 571.484375 592.296875 C 573.628906 592.296875 574.75 592.796875 575.746094 593.238281 C 576.578125 593.609375 577.238281 593.902344 578.699219 593.902344 C 580.164062 593.902344 580.824219 593.609375 581.660156 593.238281 C 582.648438 592.796875 583.773438 592.296875 585.917969 592.296875 C 588.0625 592.296875 589.1875 592.796875 590.179688 593.238281 C 591.015625 593.609375 591.671875 593.902344 593.136719 593.902344 C 594.023438 593.902344 594.742188 594.621094 594.742188 595.507812 C 594.742188 596.390625 594.023438 597.109375 593.136719 597.109375 Z M 593.136719 597.109375 " fill-opacity="1" fill-rule="nonzero"/><path fill="#999999" d="M 613.722656 597.109375 C 612.15625 597.109375 611.289062 596.417969 610.714844 595.957031 C 610.292969 595.621094 610.152344 595.507812 609.710938 595.507812 C 609.273438 595.507812 609.128906 595.621094 608.707031 595.957031 C 608.132812 596.414062 607.265625 597.109375 605.703125 597.109375 C 604.136719 597.109375 603.269531 596.417969 602.695312 595.957031 C 602.273438 595.621094 602.132812 595.507812 601.691406 595.507812 C 600.808594 595.507812 600.089844 594.785156 600.089844 593.902344 C 600.089844 593.015625 600.808594 592.296875 601.691406 592.296875 C 603.257812 592.296875 604.125 592.988281 604.699219 593.449219 C 605.121094 593.789062 605.261719 593.902344 605.703125 593.902344 C 606.140625 593.902344 606.285156 593.789062 606.707031 593.449219 C 607.28125 592.992188 608.148438 592.296875 609.710938 592.296875 C 611.277344 592.296875 612.144531 592.988281 612.71875 593.449219 C 613.140625 593.789062 613.28125 593.902344 613.722656 593.902344 C 614.605469 593.902344 615.328125 594.621094 615.328125 595.507812 C 615.328125 596.390625 614.605469 597.109375 613.722656 597.109375 Z M 613.722656 597.109375 " fill-opacity="1" fill-rule="nonzero"/><path fill="#999999" d="M 611.316406 606.472656 C 609.136719 606.472656 607.992188 605.976562 606.980469 605.535156 C 606.117188 605.160156 605.4375 604.867188 603.921875 604.867188 C 602.40625 604.867188 601.722656 605.160156 600.863281 605.535156 C 599.855469 605.972656 598.707031 606.472656 596.527344 606.472656 C 594.34375 606.472656 593.203125 605.976562 592.191406 605.535156 C 591.328125 605.160156 590.644531 604.867188 589.128906 604.867188 C 588.246094 604.867188 587.527344 604.148438 587.527344 603.261719 C 587.527344 602.375 588.246094 601.65625 589.128906 601.65625 C 591.3125 601.65625 592.457031 602.152344 593.46875 602.589844 C 594.328125 602.964844 595.011719 603.261719 596.527344 603.261719 C 598.039062 603.261719 598.722656 602.964844 599.585938 602.589844 C 600.59375 602.152344 601.738281 601.65625 603.921875 601.65625 C 606.101562 601.65625 607.246094 602.152344 608.257812 602.589844 C 609.121094 602.964844 609.800781 603.261719 611.316406 603.261719 C 612.203125 603.261719 612.921875 603.980469 612.921875 604.867188 C 612.921875 605.753906 612.203125 606.472656 611.316406 606.472656 Z M 611.316406 606.472656 " fill-opacity="1" fill-rule="nonzero"/><path fill="#999999" d="M 577.636719 606.738281 C 575.617188 606.738281 574.519531 606.203125 573.636719 605.773438 C 572.871094 605.402344 572.320312 605.132812 571.042969 605.132812 C 569.765625 605.132812 569.210938 605.402344 568.445312 605.773438 C 567.5625 606.203125 566.464844 606.738281 564.445312 606.738281 C 562.429688 606.738281 561.332031 606.203125 560.449219 605.773438 C 559.683594 605.402344 559.132812 605.132812 557.851562 605.132812 C 556.96875 605.132812 556.25 604.414062 556.25 603.527344 C 556.25 602.640625 556.96875 601.921875 557.851562 601.921875 C 559.871094 601.921875 560.96875 602.457031 561.851562 602.886719 C 562.617188 603.257812 563.167969 603.527344 564.445312 603.527344 C 565.726562 603.527344 566.277344 603.257812 567.042969 602.886719 C 567.925781 602.457031 569.023438 601.921875 571.042969 601.921875 C 573.058594 601.921875 574.160156 602.457031 575.039062 602.886719 C 575.804688 603.257812 576.359375 603.527344 577.636719 603.527344 C 578.519531 603.527344 579.242188 604.246094 579.242188 605.132812 C 579.242188 606.019531 578.519531 606.738281 577.636719 606.738281 Z M 577.636719 606.738281 " fill-opacity="1" fill-rule="nonzero"/><path fill="#999999" d="M 640.585938 606.070312 C 638.566406 606.070312 637.46875 605.535156 636.585938 605.105469 C 635.820312 604.734375 635.269531 604.464844 633.992188 604.464844 C 632.710938 604.464844 632.160156 604.734375 631.394531 605.105469 C 630.511719 605.535156 629.414062 606.070312 627.394531 606.070312 C 625.378906 606.070312 624.277344 605.535156 623.394531 605.105469 C 622.632812 604.734375 622.082031 604.464844 620.800781 604.464844 C 619.917969 604.464844 619.195312 603.746094 619.195312 602.859375 C 619.195312 601.976562 619.917969 601.253906 620.800781 601.253906 C 622.820312 601.253906 623.917969 601.789062 624.800781 602.21875 C 625.566406 602.589844 626.117188 602.859375 627.394531 602.859375 C 628.671875 602.859375 629.226562 602.589844 629.992188 602.21875 C 630.875 601.789062 631.972656 601.253906 633.992188 601.253906 C 636.007812 601.253906 637.105469 601.789062 637.988281 602.21875 C 638.753906 602.589844 639.308594 602.859375 640.585938 602.859375 C 641.46875 602.859375 642.1875 603.578125 642.1875 604.464844 C 642.1875 605.351562 641.46875 606.070312 640.585938 606.070312 Z M 640.585938 606.070312 " fill-opacity="1" fill-rule="nonzero"/><path fill="#999999" d="M 640.453125 597.109375 C 638.570312 597.109375 637.550781 596.558594 636.734375 596.113281 C 636.0625 595.75 635.617188 595.507812 634.546875 595.507812 C 633.480469 595.507812 633.035156 595.75 632.363281 596.113281 C 631.546875 596.558594 630.527344 597.109375 628.644531 597.109375 C 626.761719 597.109375 625.742188 596.558594 624.925781 596.113281 C 624.253906 595.75 623.808594 595.507812 622.742188 595.507812 C 621.855469 595.507812 621.136719 594.785156 621.136719 593.902344 C 621.136719 593.015625 621.855469 592.296875 622.742188 592.296875 C 624.625 592.296875 625.640625 592.847656 626.457031 593.292969 C 627.132812 593.65625 627.578125 593.902344 628.644531 593.902344 C 629.714844 593.902344 630.160156 593.65625 630.832031 593.292969 C 631.648438 592.847656 632.664062 592.296875 634.546875 592.296875 C 636.433594 592.296875 637.449219 592.847656 638.269531 593.292969 C 638.941406 593.65625 639.386719 593.902344 640.457031 593.902344 C 641.339844 593.902344 642.058594 594.621094 642.058594 595.507812 C 642.058594 596.390625 641.339844 597.109375 640.453125 597.109375 Z M 640.453125 597.109375 " fill-opacity="1" fill-rule="nonzero"/><path fill="#999999" d="M 593.136719 617.933594 C 590.992188 617.933594 589.867188 617.433594 588.878906 616.996094 C 588.042969 616.621094 587.382812 616.332031 585.917969 616.332031 C 584.453125 616.332031 583.796875 616.621094 582.960938 616.996094 C 581.96875 617.433594 580.84375 617.933594 578.699219 617.933594 C 576.554688 617.933594 575.429688 617.433594 574.441406 616.996094 C 573.605469 616.621094 572.945312 616.332031 571.484375 616.332031 C 570.019531 616.332031 569.359375 616.621094 568.527344 616.996094 C 567.539062 617.433594 566.414062 617.933594 564.269531 617.933594 C 562.125 617.933594 561 617.433594 560.007812 616.996094 C 559.171875 616.621094 558.515625 616.332031 557.050781 616.332031 C 556.167969 616.332031 555.445312 615.609375 555.445312 614.726562 C 555.445312 613.839844 556.167969 613.121094 557.050781 613.121094 C 559.195312 613.121094 560.320312 613.621094 561.3125 614.058594 C 562.148438 614.433594 562.804688 614.726562 564.269531 614.726562 C 565.730469 614.726562 566.390625 614.433594 567.222656 614.058594 C 568.214844 613.621094 569.339844 613.121094 571.484375 613.121094 C 573.628906 613.121094 574.75 613.621094 575.746094 614.058594 C 576.578125 614.433594 577.238281 614.726562 578.699219 614.726562 C 580.164062 614.726562 580.824219 614.433594 581.660156 614.058594 C 582.648438 613.621094 583.773438 613.121094 585.917969 613.121094 C 588.0625 613.121094 589.1875 613.621094 590.179688 614.058594 C 591.015625 614.433594 591.671875 614.726562 593.136719 614.726562 C 594.023438 614.726562 594.742188 615.445312 594.742188 616.332031 C 594.742188 617.214844 594.023438 617.933594 593.136719 617.933594 Z M 593.136719 617.933594 " fill-opacity="1" fill-rule="nonzero"/><path fill="#999999" d="M 613.722656 617.933594 C 612.15625 617.933594 611.289062 617.242188 610.714844 616.78125 C 610.292969 616.445312 610.152344 616.332031 609.710938 616.332031 C 609.273438 616.332031 609.128906 616.445312 608.707031 616.78125 C 608.132812 617.238281 607.265625 617.933594 605.703125 617.933594 C 604.136719 617.933594 603.269531 617.242188 602.695312 616.78125 C 602.273438 616.445312 602.132812 616.332031 601.691406 616.332031 C 600.808594 616.332031 600.089844 615.609375 600.089844 614.726562 C 600.089844 613.839844 600.808594 613.121094 601.691406 613.121094 C 603.257812 613.121094 604.125 613.8125 604.699219 614.273438 C 605.121094 614.613281 605.261719 614.726562 605.703125 614.726562 C 606.140625 614.726562 606.285156 614.613281 606.707031 614.273438 C 607.28125 613.816406 608.148438 613.121094 609.710938 613.121094 C 611.277344 613.121094 612.144531 613.8125 612.71875 614.273438 C 613.140625 614.613281 613.28125 614.726562 613.722656 614.726562 C 614.605469 614.726562 615.328125 615.445312 615.328125 616.332031 C 615.328125 617.214844 614.605469 617.933594 613.722656 617.933594 Z M 613.722656 617.933594 " fill-opacity="1" fill-rule="nonzero"/><path fill="#999999" d="M 611.316406 627.296875 C 609.136719 627.296875 607.992188 626.800781 606.980469 626.359375 C 606.117188 625.984375 605.4375 625.691406 603.921875 625.691406 C 602.40625 625.691406 601.722656 625.984375 600.863281 626.359375 C 599.855469 626.796875 598.707031 627.296875 596.527344 627.296875 C 594.34375 627.296875 593.203125 626.800781 592.191406 626.359375 C 591.328125 625.984375 590.644531 625.691406 589.128906 625.691406 C 588.246094 625.691406 587.527344 624.972656 587.527344 624.085938 C 587.527344 623.199219 588.246094 622.480469 589.128906 622.480469 C 591.3125 622.480469 592.457031 622.976562 593.46875 623.414062 C 594.328125 623.789062 595.011719 624.085938 596.527344 624.085938 C 598.039062 624.085938 598.722656 623.789062 599.585938 623.414062 C 600.59375 622.976562 601.738281 622.480469 603.921875 622.480469 C 606.101562 622.480469 607.246094 622.976562 608.257812 623.414062 C 609.121094 623.789062 609.800781 624.085938 611.316406 624.085938 C 612.203125 624.085938 612.921875 624.804688 612.921875 625.691406 C 612.921875 626.574219 612.203125 627.296875 611.316406 627.296875 Z M 611.316406 627.296875 " fill-opacity="1" fill-rule="nonzero"/><path fill="#999999" d="M 577.636719 627.5625 C 575.617188 627.5625 574.519531 627.027344 573.636719 626.597656 C 572.871094 626.226562 572.320312 625.957031 571.042969 625.957031 C 569.765625 625.957031 569.210938 626.226562 568.445312 626.597656 C 567.5625 627.027344 566.464844 627.5625 564.445312 627.5625 C 562.429688 627.5625 561.332031 627.027344 560.449219 626.597656 C 559.683594 626.226562 559.132812 625.957031 557.851562 625.957031 C 556.96875 625.957031 556.25 625.238281 556.25 624.351562 C 556.25 623.464844 556.96875 622.746094 557.851562 622.746094 C 559.871094 622.746094 560.96875 623.28125 561.851562 623.710938 C 562.617188 624.082031 563.167969 624.351562 564.445312 624.351562 C 565.726562 624.351562 566.277344 624.082031 567.042969 623.710938 C 567.925781 623.28125 569.023438 622.746094 571.042969 622.746094 C 573.058594 622.746094 574.160156 623.28125 575.039062 623.710938 C 575.804688 624.082031 576.359375 624.351562 577.636719 624.351562 C 578.519531 624.351562 579.242188 625.070312 579.242188 625.957031 C 579.242188 626.84375 578.519531 627.5625 577.636719 627.5625 Z M 577.636719 627.5625 " fill-opacity="1" fill-rule="nonzero"/><path fill="#999999" d="M 640.585938 626.894531 C 638.566406 626.894531 637.46875 626.359375 636.585938 625.929688 C 635.820312 625.558594 635.269531 625.289062 633.992188 625.289062 C 632.710938 625.289062 632.160156 625.558594 631.394531 625.929688 C 630.511719 626.359375 629.414062 626.894531 627.394531 626.894531 C 625.378906 626.894531 624.277344 626.359375 623.394531 625.929688 C 622.632812 625.558594 622.082031 625.289062 620.800781 625.289062 C 619.917969 625.289062 619.195312 624.570312 619.195312 623.683594 C 619.195312 622.796875 619.917969 622.078125 620.800781 622.078125 C 622.820312 622.078125 623.917969 622.613281 624.800781 623.042969 C 625.566406 623.414062 626.117188 623.683594 627.394531 623.683594 C 628.671875 623.683594 629.226562 623.414062 629.992188 623.042969 C 630.875 622.613281 631.972656 622.078125 633.992188 622.078125 C 636.007812 622.078125 637.105469 622.613281 637.988281 623.042969 C 638.753906 623.414062 639.308594 623.683594 640.585938 623.683594 C 641.46875 623.683594 642.1875 624.402344 642.1875 625.289062 C 642.1875 626.175781 641.46875 626.894531 640.585938 626.894531 Z M 640.585938 626.894531 " fill-opacity="1" fill-rule="nonzero"/><path fill="#999999" d="M 640.453125 617.933594 C 638.570312 617.933594 637.550781 617.382812 636.734375 616.9375 C 636.0625 616.574219 635.617188 616.332031 634.546875 616.332031 C 633.480469 616.332031 633.035156 616.574219 632.363281 616.9375 C 631.546875 617.382812 630.527344 617.933594 628.644531 617.933594 C 626.761719 617.933594 625.742188 617.382812 624.925781 616.9375 C 624.253906 616.574219 623.808594 616.332031 622.742188 616.332031 C 621.855469 616.332031 621.136719 615.609375 621.136719 614.726562 C 621.136719 613.839844 621.855469 613.121094 622.742188 613.121094 C 624.625 613.121094 625.640625 613.671875 626.457031 614.117188 C 627.132812 614.480469 627.578125 614.726562 628.644531 614.726562 C 629.714844 614.726562 630.160156 614.480469 630.832031 614.117188 C 631.648438 613.671875 632.664062 613.121094 634.546875 613.121094 C 636.433594 613.121094 637.449219 613.671875 638.269531 614.117188 C 638.941406 614.480469 639.386719 614.726562 640.457031 614.726562 C 641.339844 614.726562 642.058594 615.445312 642.058594 616.332031 C 642.058594 617.214844 641.339844 617.933594 640.453125 617.933594 Z M 640.453125 617.933594 " fill-opacity="1" fill-rule="nonzero"/></svg>